<svg width="197" height="90" viewBox="0 0 197 90" fill="none" xmlns="http://www.w3.org/2000/svg">
<path d="M146.008 21.9969C146.008 21.6978 157.078 42.3353 181.912 50.1117C178.022 51.009 174.133 51.9062 170.243 52.5044C167.251 49.2144 153.189 33.9607 136.733 23.7915C136.733 23.4924 146.307 43.8307 169.345 52.8035C165.456 53.4017 161.566 53.9999 157.677 54.5981C154.984 51.3081 142.717 36.0543 127.458 25.2869C127.458 24.9878 135.536 44.728 156.779 54.5981C152.89 54.8972 149 55.1963 145.11 55.4954C143.016 52.2053 131.946 36.9516 118.183 25.8851C118.183 25.586 125.064 44.728 144.512 55.4954C140.623 55.7945 136.733 55.7945 132.544 55.7945C130.749 52.5044 121.474 37.2507 108.608 26.1842C108.608 26.1842 114.293 44.4289 131.946 55.7945C128.056 55.7945 124.167 55.4954 119.978 55.1963C118.482 52.2054 110.703 37.2507 99.0341 25.8851C99.0341 25.8851 103.522 43.5317 119.679 55.1963C115.789 54.8972 111.9 54.5981 107.711 53.9999C106.514 51.009 99.9317 36.3534 89.4598 25.2869C89.4598 25.2869 92.751 42.0362 107.412 53.9999C103.522 53.4017 99.6325 52.8035 95.743 51.9063C94.8454 49.2144 89.4599 35.157 80.1848 23.7915C80.1848 23.7915 82.5783 39.6434 95.4438 51.6072C91.5542 50.7099 87.6647 49.8126 83.7751 48.9153C83.1767 46.5226 78.988 32.7643 70.6105 21.6978C70.6105 21.6978 72.1064 36.6525 83.4759 48.6162C79.5863 47.4199 75.6968 46.5226 71.8072 45.0271C71.2088 42.9334 68.2169 29.7733 61.0361 19.006C61.0361 19.006 61.6345 33.0634 71.508 44.728C67.6185 43.5317 64.0281 42.0362 60.1386 40.5407C59.8394 38.4471 57.745 26.1842 51.4619 16.015C51.4619 16.015 51.4619 29.1752 59.8394 40.5407C55.9498 39.0452 52.3594 37.2507 48.7691 35.4561C48.7691 33.6615 47.5723 22.296 41.8876 12.1268C41.8876 12.1268 41.2892 24.3896 48.4699 35.157C44.8795 33.3625 40.99 31.5679 37.3996 29.4742C37.3996 27.9788 37.1004 17.5105 32.3133 7.9395C32.3133 7.9395 31.1165 19.006 37.1004 29.4742C33.51 27.3806 29.9197 25.2869 26.3293 22.8942C26.3293 21.9969 26.6285 12.1268 22.739 2.85492C22.739 2.85492 21.243 13.0241 26.0301 22.5951C24.8333 21.6978 23.3374 20.8005 22.1406 19.9032C21.8414 19.3051 18.5502 8.83678 11.9679 0.462158C11.9679 0.462158 14.0622 11.2295 22.1406 19.9032C20.6446 18.7069 18.8494 17.8096 17.3534 16.6132C17.6526 16.6132 17.6526 16.9123 17.9518 16.9123C17.9518 16.9123 10.1727 7.34132 0.299198 1.35945C0.299198 1.35945 7.18073 11.2295 17.0542 16.6132C18.5502 17.8096 20.3454 19.006 21.8414 20.2023C20.3454 19.6041 9.8735 15.1177 0 14.5195C0 14.5195 11.3695 20.8005 22.1406 20.2023C23.3374 21.0996 24.8333 21.9969 26.0301 22.8942C15.259 22.296 5.38554 25.2869 5.38554 25.2869C16.4558 27.6797 25.4317 23.1933 26.3293 22.8942C29.9197 25.2869 33.2108 27.3806 36.8012 29.4742C24.8333 29.4742 14.0623 33.6615 14.0623 33.6615C26.3293 35.4561 35.6044 30.0724 36.8012 29.4742C40.3916 31.5679 43.9819 33.3624 47.5723 35.4561C34.7068 36.3534 23.0382 41.438 23.0382 41.438C36.2028 42.9334 46.3755 36.3534 47.5723 35.4561C51.1627 37.2507 55.0522 39.0452 58.6426 40.5407C44.8795 42.6344 32.6125 48.6162 32.6125 48.6162C46.9739 49.2144 57.4458 41.7371 58.9418 40.5407C62.8313 42.0362 66.4217 43.5316 70.3113 45.0271C55.6506 48.018 42.7851 55.4954 42.7851 55.4954C58.3434 55.4954 69.1145 46.5226 70.6105 45.3262C74.5 46.5226 78.3896 48.018 82.2791 48.9153C66.7209 53.1026 53.257 61.7764 53.257 61.7764C70.0121 60.8791 80.7831 50.7099 82.5783 48.9153C86.4679 50.1117 90.3574 51.009 94.247 51.9063C77.7912 57.589 64.0281 67.4591 64.0281 67.4591C81.9799 65.3655 92.751 53.9999 94.5462 51.9063C98.4358 52.8035 102.325 53.4017 106.215 53.9999C89.1607 61.1781 75.0984 72.2446 75.0984 72.2446C93.9478 68.9546 104.719 56.3926 106.514 53.9999C110.404 54.5981 114.293 55.1963 118.482 55.4954C100.829 64.1691 86.7671 76.731 86.7671 76.731C106.514 72.2446 117.285 58.1872 119.08 55.4954C122.97 55.7945 126.859 56.0936 131.048 56.0936C113.096 66.2628 98.7349 80.3202 98.7349 80.6193C119.679 74.9365 129.851 59.0845 131.647 56.0936C135.536 56.0936 139.426 56.0936 143.614 56.0936C125.363 68.0573 111.002 83.6102 111.002 83.9093C132.843 76.731 142.717 59.3836 144.512 56.0936C148.402 55.7945 152.291 55.7945 156.48 55.1963C138.229 68.9546 123.568 86.302 123.568 86.302C146.008 77.3292 155.582 58.7854 157.078 55.1963C160.968 54.8972 164.857 54.299 168.747 53.7008C150.197 69.2537 136.135 88.0966 136.135 88.3957C159.472 77.6283 168.149 57.5891 169.645 53.7008C173.534 53.1026 177.424 52.2054 181.313 51.3081C163.062 68.9546 149 89.293 149 89.5921C172.936 77.0301 180.715 55.4954 182.211 51.3081C186.998 50.1117 192.084 48.9153 196.871 47.1208C196.572 46.5226 196.572 45.9244 196.273 45.6253C191.486 47.1208 186.699 48.6162 181.912 49.8126C179.518 46.5226 163.661 31.5679 146.008 21.9969Z" fill="url(#paint0_linear_20_8)"/>
<defs>
<linearGradient id="paint0_linear_20_8" x1="222.888" y1="-162.5" x2="-187.366" y2="494.488" gradientUnits="userSpaceOnUse">
<stop stop-color="#41CBB9"/>
<stop offset="1" stop-color="#307E70"/>
</linearGradient>
</defs>
</svg>
