<svg width="200" height="206" viewBox="0 0 200 206" fill="none" xmlns="http://www.w3.org/2000/svg">
<path d="M40.7549 126.882C40.7549 126.583 42.8493 157.689 20.7088 184.009C25.7951 182.215 30.5823 180.42 35.3694 178.626C36.267 172.644 41.3533 145.725 52.1244 122.695C52.1244 122.396 55.4156 152.006 36.267 178.326C41.0541 176.233 45.8413 174.139 50.6284 172.045C51.2268 166.363 54.2188 140.342 63.4939 117.91C63.4939 117.61 68.2811 145.725 51.526 171.746C56.3132 169.354 60.8012 166.961 65.2891 164.568C65.2891 159.484 66.7851 134.36 74.5642 112.227C74.5642 111.928 80.2489 138.248 66.1867 163.97C70.6746 161.278 75.1626 158.586 79.6505 155.894C79.3513 151.109 79.0521 127.481 85.6345 105.647C85.6345 105.348 92.2168 130.172 80.5481 155.296C85.0361 152.305 89.2248 149.314 93.4136 146.323C92.8152 141.837 91.02 119.405 96.1063 98.4684C96.1063 98.4684 103.586 121.2 94.012 145.725C98.2007 142.435 102.389 139.145 106.279 135.855C105.681 131.668 102.389 110.731 106.279 90.692C106.279 90.692 114.357 111.928 106.578 135.556C110.468 132.266 114.357 128.677 118.247 124.789C117.349 121.2 113.161 101.459 115.853 82.3174C115.853 82.3174 124.53 101.758 118.546 124.49C122.436 120.9 126.026 117.012 129.616 113.124C128.719 109.834 123.632 91.5893 125.128 73.3446C125.128 73.3446 134.104 91.2902 129.916 112.526C133.506 108.638 137.096 104.45 140.387 100.263C139.191 97.5712 133.506 80.8219 134.104 63.4745C134.104 63.4745 143.379 79.9246 140.687 99.9639C143.978 95.7766 147.269 91.5893 150.261 87.1029C149.064 84.7101 142.781 69.4563 142.482 53.3053C142.482 53.3053 151.757 67.9609 150.56 86.8038C153.552 82.3174 156.544 77.831 159.536 73.3446C158.339 71.2509 151.458 57.7917 150.56 42.5379C150.56 42.5379 159.835 55.698 159.536 73.0455C162.528 68.26 165.221 63.7736 167.614 58.689C166.717 57.1935 159.536 44.9307 157.741 30.8733C157.741 30.8733 166.717 42.5379 167.614 58.3899C170.307 53.6044 172.701 48.5198 174.795 43.4352C174.197 42.5379 166.717 31.7705 164.622 18.6104C164.622 18.6104 173.299 28.7796 174.795 43.1361C175.693 41.3416 176.59 39.2479 177.189 37.4533C176.889 36.556 173.299 22.7977 174.795 8.44123C174.795 8.44123 180.181 22.1996 177.189 37.1542C178.086 34.7615 179.283 32.3687 180.181 29.976C179.881 30.2751 179.881 30.5742 179.582 30.8733C179.582 30.8733 181.677 14.7222 188.259 0.664795C188.259 0.664795 187.661 16.5168 180.181 29.6769C179.283 32.0696 178.385 34.7615 177.189 37.1542C178.385 35.3597 187.062 23.0968 197.833 15.3204C197.833 15.3204 189.456 30.5742 177.189 37.4533C176.291 39.2479 175.693 41.3416 174.795 43.1361C186.464 34.7615 199.928 31.1724 199.928 31.1724C189.157 41.6406 175.992 43.1361 174.795 43.1361C172.701 48.2207 170.307 53.3053 167.614 58.0908C181.078 49.7162 195.739 46.7252 196.038 46.7252C183.771 57.4926 169.41 58.3899 167.614 58.3899C165.221 63.1754 162.528 67.9609 159.536 72.7464C174.795 64.6708 191.251 61.979 191.251 61.979C177.189 73.0455 161.63 72.7464 159.536 72.7464C156.843 77.5319 153.851 82.0183 150.56 86.5047C167.614 78.7283 185.566 76.9337 185.566 76.9337C170.008 88.0002 152.954 86.8038 150.56 86.8038C147.568 91.2902 144.277 95.4775 140.986 99.6648C159.835 92.4866 179.283 91.5893 179.283 91.5893C161.63 102.656 143.679 100.263 140.687 99.9639C137.396 104.151 133.805 108.339 130.215 112.227C150.859 105.946 171.803 105.946 171.803 105.946C152.355 116.713 133.207 113.124 129.916 112.526C126.325 116.414 122.735 120.302 118.845 124.19C141.285 118.807 163.426 120.003 163.426 120.003C142.183 130.471 121.837 125.387 118.247 124.49C114.357 128.079 110.468 131.668 106.578 135.257C130.514 131.07 154.15 133.462 154.45 133.761C131.112 143.632 109.869 137.052 106.279 135.855C102.389 139.444 98.2007 142.734 94.012 145.725C119.743 143.033 144.576 146.922 144.875 146.922C119.444 156.194 97.6023 147.819 93.4136 146.024C89.2248 149.314 85.0361 152.305 80.5481 155.296C107.775 154.1 134.104 159.484 134.104 159.484C106.578 167.858 83.8393 157.689 79.9497 155.595C75.4618 158.586 70.9738 161.278 66.4859 163.97C95.508 164.568 122.735 171.447 122.735 171.746C93.1144 178.925 70.0762 166.961 65.5883 164.568C61.1003 167.26 56.3132 169.653 51.8253 172.045C82.3433 174.438 110.468 183.411 110.468 183.411C79.0521 189.393 55.1164 175.336 50.9277 172.345C46.1405 174.737 41.3534 176.831 36.5662 178.925C68.2811 183.411 97.6023 194.178 97.6023 194.477C64.0923 199.263 39.8574 182.813 35.6686 179.523C30.8815 181.616 25.7951 183.411 21.008 185.206C53.9196 192.085 84.1385 204.946 84.1385 204.946C48.5341 207.937 24.2991 189.393 19.8112 185.505C13.528 187.598 7.24492 189.692 0.662593 191.487C0.363397 190.888 0.363406 189.991 0.064209 189.393C6.64654 187.897 12.9297 185.804 19.2128 183.71C20.7088 178.027 27.8895 150.212 40.7549 126.882Z" fill="url(#paint0_linear_20_14)"/>
<defs>
<linearGradient id="paint0_linear_20_14" x1="-197.112" y1="-43" x2="369.423" y2="231.595" gradientUnits="userSpaceOnUse">
<stop stop-color="#41CBB9"/>
<stop offset="1" stop-color="#307E70"/>
</linearGradient>
</defs>
</svg>
