<svg width="166" height="250" viewBox="0 0 166 250" fill="none" xmlns="http://www.w3.org/2000/svg">
<path d="M27.0101 170.734C27.6085 170.435 31.7973 140.526 42.5683 136.937C53.9378 132.749 54.8354 142.919 54.8354 142.919C55.4338 142.619 62.6145 110.916 70.6928 106.429C79.3695 101.644 83.2591 110.916 83.2591 110.916C83.5583 110.916 87.1487 85.7917 94.3294 78.6134C102.109 71.4352 103.305 82.5016 103.305 82.5016C103.604 82.5016 107.494 59.1723 112.58 53.1905C117.966 47.2086 123.651 56.4805 123.651 56.7796C123.95 56.7796 126.942 31.6557 131.131 27.4684C135.918 23.2811 138.61 28.9639 138.61 28.9639C138.91 28.9639 143.398 -0.347308 154.468 0.549973C166.436 1.74635 158.058 33.1512 157.759 32.8521C157.759 32.8521 163.145 28.3657 165.239 34.3476C167.633 40.6285 154.169 66.6497 153.87 66.3506C153.87 66.3506 164.641 60.9669 164.94 69.9397C165.239 79.2116 148.484 102.84 148.185 102.541C148.185 102.541 158.657 93.8672 157.161 106.429C155.665 119.589 132.327 140.825 132.028 140.227C132.028 140.227 143.098 138.133 141.303 150.097C139.508 162.958 104.801 185.988 104.801 185.39C104.801 185.39 116.171 182.698 111.683 197.653C106.596 213.505 70.992 222.477 71.2912 221.879C70.992 221.879 93.1326 225.767 69.1968 243.713C43.7651 261.958 9.05831 227.263 9.6567 227.263C9.9559 226.964 -5.30314 180.903 8.7591 166.248C23.4197 150.994 27.3093 170.435 27.0101 170.734Z" fill="url(#paint0_linear_20_16)"/>
<path opacity="0.05" d="M8.75908 166.846C23.4197 150.994 27.0101 170.435 27.0101 170.734C27.6085 170.435 31.7972 140.526 42.5683 136.937C53.9378 132.749 54.8354 142.919 54.8354 142.919C55.4338 142.62 62.6145 110.916 70.6928 106.429C79.3695 101.644 83.2591 110.916 83.2591 110.916C83.5583 110.916 87.1487 85.7918 94.3294 78.6135C97.3214 75.9217 99.4157 75.6226 100.613 76.8189C89.8414 110.617 82.6607 160.565 114.076 179.707C109.289 183.296 105.699 185.39 104.801 185.689H104.502C104.502 185.689 104.502 185.689 104.801 185.689C105.998 185.39 115.872 183.894 111.384 197.952C106.596 213.206 73.0864 222.178 70.992 222.178C72.488 222.478 91.6366 226.665 68.5984 244.012C43.1667 262.257 8.4599 227.562 9.05829 227.562C9.95588 227.562 -5.30318 181.801 8.75908 166.846Z" fill="#1F5148"/>
<path opacity="0.8" d="M45.5603 154.883C46.4579 169.239 46.1586 184.194 44.6627 199.447C64.4096 182.1 82.0623 162.36 97.0221 141.124C97.9197 126.469 97.3213 112.112 96.1245 98.0548C98.2189 110.916 99.1165 124.076 99.4157 137.834C114.675 116 127.241 92.372 136.815 67.2481C136.815 66.6499 136.815 65.4535 136.516 63.9581C136.217 61.5653 136.217 58.2753 135.918 54.9853C135.618 51.6952 135.618 48.7043 135.319 46.0125C135.319 43.6197 135.02 42.1242 135.02 42.1242C135.02 42.1242 135.319 43.6197 135.618 46.0125C135.918 48.4052 136.217 51.3961 136.516 54.6862C136.815 57.9762 136.815 61.2662 136.815 63.659C136.815 65.1544 136.815 66.3508 136.815 66.949C143.398 50.1998 148.484 33.1514 152.074 15.5049C146.09 45.1152 136.217 73.8281 122.454 100.747C123.052 100.148 124.249 99.2511 126.044 98.0548C128.737 96.2602 132.028 93.5683 135.618 91.1756C139.209 88.7828 142.799 86.3901 145.492 84.5955C148.185 82.801 149.98 81.6046 149.98 81.6046C149.98 81.6046 148.484 83.1001 145.791 85.4928C143.098 87.5865 139.807 90.2783 136.217 92.9701C132.627 95.3629 129.036 97.7556 126.343 99.2511C124.548 100.148 123.052 101.046 122.454 101.345C115.572 114.804 108.092 127.665 99.4157 140.227C91.9358 151.293 83.5583 161.762 74.8816 171.931C89.5422 169.239 104.801 165.351 119.761 160.266C103.904 166.547 88.0462 171.333 72.488 174.623C58.1265 190.774 41.9699 205.728 24.6165 218.889C35.986 222.777 47.6546 226.067 59.6225 228.759C46.757 226.964 34.1908 224.272 22.2229 220.683C15.6406 225.469 9.05826 229.955 2.17673 234.441C1.87754 233.544 1.27912 232.946 0.979919 232.049C15.6406 222.777 29.4036 212.608 42.5683 201.541C44.6627 185.689 45.5603 169.837 45.5603 154.883Z" fill="#1F5148"/>
<defs>
<linearGradient id="paint0_linear_20_16" x1="-223.078" y1="-528.093" x2="370.886" y2="367.262" gradientUnits="userSpaceOnUse">
<stop stop-color="#41CBB9"/>
<stop offset="1" stop-color="#359D8A"/>
</linearGradient>
</defs>
</svg>
