<svg width="166" height="250" viewBox="0 0 166 250" fill="none" xmlns="http://www.w3.org/2000/svg">
<path d="M139.494 170.734C138.895 170.435 134.707 140.526 123.936 136.937C112.566 132.749 111.669 142.919 111.669 142.919C111.07 142.619 103.889 110.916 95.8111 106.429C87.1344 101.644 83.2449 110.916 83.2449 110.916C82.9457 110.916 79.3553 85.7917 72.1745 78.6134C64.3954 71.4352 63.1986 82.5016 63.1986 82.5016C62.8995 82.5016 59.0099 59.1723 53.9236 53.1905C48.538 47.2086 42.8533 56.4805 42.8533 56.7796C42.5541 56.7796 39.5621 31.6557 35.3734 27.4684C30.5862 23.2811 27.8935 28.9639 27.8935 28.9639C27.5943 28.9639 23.1063 -0.347308 12.036 0.549973C0.068161 1.74635 8.44565 33.1512 8.74484 32.8521C8.74484 32.8521 3.3593 28.3657 1.26492 34.3476C-1.12865 40.6285 12.3352 66.6497 12.6344 66.3506C12.6344 66.3506 1.86334 60.9669 1.56415 69.9397C1.26495 79.2116 18.0199 102.84 18.3191 102.541C18.3191 102.541 7.84724 93.8672 9.34323 106.429C10.8392 119.589 34.1766 140.825 34.4758 140.227C34.4758 140.227 23.4055 138.133 25.2007 150.097C26.9958 162.958 61.7027 185.988 61.7027 185.39C61.7027 185.39 50.3332 182.698 54.8212 197.653C59.9075 213.505 95.5119 222.477 95.2127 221.879C95.5119 221.879 73.3714 225.767 97.3071 243.713C122.739 261.958 157.446 227.263 156.847 227.263C156.548 226.964 171.807 180.903 157.745 166.248C143.084 150.994 139.195 170.435 139.494 170.734Z" fill="url(#paint0_linear_20_16)"/>
<path opacity="0.05" d="M157.745 166.846C143.084 150.994 139.494 170.435 139.494 170.734C138.895 170.435 134.707 140.526 123.936 136.937C112.566 132.749 111.669 142.919 111.669 142.919C111.07 142.62 103.889 110.916 95.8111 106.429C87.1344 101.644 83.2448 110.916 83.2448 110.916C82.9456 110.916 79.3552 85.7918 72.1745 78.6135C69.1825 75.9217 67.0882 75.6226 65.8914 76.8189C76.6625 110.617 83.8432 160.565 52.4276 179.707C57.2147 183.296 60.805 185.39 61.7026 185.689H62.0018C62.0018 185.689 62.0018 185.689 61.7026 185.689C60.5058 185.39 50.6323 183.894 55.1203 197.952C59.9074 213.206 93.4175 222.178 95.5119 222.178C94.0159 222.478 74.8673 226.665 97.9055 244.012C123.337 262.257 158.044 227.562 157.446 227.562C156.548 227.562 171.807 181.801 157.745 166.846Z" fill="#1F5148"/>
<path opacity="0.8" d="M120.944 154.883C120.046 169.239 120.345 184.194 121.841 199.447C102.094 182.1 84.4417 162.36 69.4818 141.124C68.5842 126.469 69.1826 112.112 70.3794 98.0548C68.285 110.916 67.3874 124.076 67.0882 137.834C51.8292 116 39.2629 92.372 29.6886 67.2481C29.6886 66.6499 29.6887 65.4535 29.9879 63.9581C30.287 61.5653 30.287 58.2753 30.5862 54.9853C30.8854 51.6952 30.8854 48.7043 31.1846 46.0125C31.1846 43.6197 31.4838 42.1242 31.4838 42.1242C31.4838 42.1242 31.1846 43.6197 30.8855 46.0125C30.5863 48.4052 30.287 51.3961 29.9879 54.6862C29.6887 57.9762 29.6886 61.2662 29.6886 63.659C29.6886 65.1544 29.6886 66.3508 29.6886 66.949C23.1063 50.1998 18.02 33.1514 14.4296 15.5049C20.4136 45.1152 30.287 73.8281 44.0501 100.747C43.4517 100.148 42.2549 99.2511 40.4597 98.0548C37.767 96.2602 34.4758 93.5683 30.8855 91.1756C27.2951 88.7828 23.7047 86.3901 21.0119 84.5955C18.3192 82.801 16.524 81.6046 16.524 81.6046C16.524 81.6046 18.02 83.1001 20.7127 85.4928C23.4055 87.5865 26.6967 90.2783 30.287 92.9701C33.8774 95.3629 37.4678 97.7556 40.1605 99.2511C41.9557 100.148 43.4517 101.046 44.0501 101.345C50.9316 114.804 58.4115 127.665 67.0882 140.227C74.5681 151.293 82.9456 161.762 91.6224 171.931C76.9617 169.239 61.7027 165.351 46.7428 160.266C62.6003 166.547 78.4577 171.333 94.0159 174.623C108.377 190.774 124.534 205.728 141.887 218.889C130.518 222.777 118.849 226.067 106.881 228.759C119.747 226.964 132.313 224.272 144.281 220.683C150.863 225.469 157.446 229.955 164.327 234.441C164.626 233.544 165.225 232.946 165.524 232.049C150.863 222.777 137.1 212.608 123.936 201.541C121.841 185.689 120.944 169.837 120.944 154.883Z" fill="#1F5148"/>
<defs>
<linearGradient id="paint0_linear_20_16" x1="389.582" y1="-528.093" x2="-204.382" y2="367.262" gradientUnits="userSpaceOnUse">
<stop stop-color="#41CBB9"/>
<stop offset="1" stop-color="#359D8A"/>
</linearGradient>
</defs>
</svg>
