<svg width="201" height="205" viewBox="0 0 201 205" fill="none" xmlns="http://www.w3.org/2000/svg">
<path d="M160.171 126.32C160.171 126.021 158.076 157.127 180.217 183.447C175.131 181.652 170.343 179.858 165.556 178.063C164.659 172.081 159.572 145.163 148.801 122.133C148.801 121.834 145.51 151.444 164.659 177.764C159.872 175.671 155.084 173.577 150.297 171.483C149.699 165.8 146.707 139.779 137.432 117.347C137.432 117.048 132.645 145.163 149.4 171.184C144.612 168.791 140.125 166.399 135.637 164.006C135.637 158.921 134.141 133.797 126.361 111.664C126.361 111.365 120.677 137.686 134.739 163.408C130.251 160.716 125.763 158.024 121.275 155.332C121.574 150.547 121.874 126.918 115.291 105.084C115.291 104.785 108.709 129.61 120.378 154.734C115.89 151.743 111.701 148.752 107.512 145.761C108.11 141.275 109.906 118.843 104.819 97.9061C104.819 97.9061 97.3394 120.637 106.914 145.163C102.725 141.873 98.5362 138.583 94.6466 135.293C95.245 131.106 98.5362 110.169 94.6466 90.1297C94.6466 90.1297 86.5683 111.365 94.0482 134.994C90.1587 131.704 86.2691 128.115 82.3796 124.226C83.2772 120.637 87.4659 100.897 84.7731 81.7551C84.7731 81.7551 76.0964 101.196 82.0804 123.927C78.1908 120.338 74.6004 116.45 71.0101 112.562C71.9077 109.272 76.994 91.027 75.498 72.7823C75.498 72.7823 66.5221 90.7279 70.7109 111.964C67.1205 108.075 63.5302 103.888 60.239 99.7007C61.4358 97.0089 67.1205 80.2596 66.5221 62.9122C66.5221 62.9122 57.247 79.3623 59.9398 99.4016C56.6486 95.2143 53.3575 91.027 50.3655 86.5406C51.5623 84.1479 57.8454 68.8941 58.1446 52.743C58.1446 52.743 48.8695 67.3986 50.0663 86.2415C47.0743 81.7551 44.0824 77.2687 41.0904 72.7823C42.2872 70.6886 49.1687 57.2294 50.0663 41.9756C50.0663 41.9756 40.7912 55.1358 41.0904 72.4832C38.0984 67.6977 35.4057 63.2113 33.0121 58.1267C33.9097 56.6312 41.0904 44.3684 42.8856 30.311C42.8856 30.311 33.9097 41.9756 33.0121 57.8276C30.3193 53.0421 27.9258 47.9575 25.8314 42.8729C26.4298 41.9756 33.9097 31.2083 36.0041 18.0482C36.0041 18.0482 27.3274 28.2173 25.8314 42.5738C24.9338 40.7793 24.0362 38.6856 23.4378 36.891C23.737 35.9938 27.3274 22.2355 25.8314 7.87897C25.8314 7.87897 20.4458 21.6373 23.4378 36.592C22.5402 34.1992 21.3434 31.8064 20.4458 29.4137C20.745 29.7128 20.745 30.0119 21.0442 30.311C21.0442 30.311 18.9499 14.1599 12.3675 0.102539C12.3675 0.102539 12.9659 15.9545 20.4458 29.1146C21.3434 31.5074 22.241 34.1992 23.4378 36.592C22.241 34.7974 13.5643 22.5346 2.79323 14.7581C2.79323 14.7581 11.1707 30.0119 23.4378 36.891C24.3354 38.6856 24.9338 40.7793 25.8314 42.5738C14.1627 34.1992 0.698853 30.6101 0.698853 30.6101C11.4699 41.0784 24.6346 42.5738 25.8314 42.5738C27.9258 47.6584 30.3193 52.743 33.0121 57.5285C19.5482 49.1539 4.58841 46.163 4.58841 46.163C16.8555 56.9303 31.2169 57.8276 33.0121 57.8276C35.4057 62.6131 38.0984 67.3986 41.0904 72.1841C25.8314 64.1086 9.37556 61.4167 9.37556 61.4167C23.4378 72.4832 38.996 72.1841 41.0904 72.1841C43.7832 76.9696 46.7752 81.456 50.0663 85.9424C33.0121 78.166 15.0603 76.3714 15.0603 76.3714C30.6185 87.4379 47.6727 86.2415 50.0663 86.2415C53.0583 90.7279 56.3494 94.9152 59.6406 99.1025C40.7912 91.9243 21.3434 91.027 21.3434 91.027C38.996 102.093 56.9478 99.7007 59.9398 99.4016C63.231 103.589 66.8213 107.776 70.4117 111.664C49.7671 105.383 28.8234 105.383 28.8234 105.383C48.2711 116.151 67.4197 112.562 70.7109 111.964C74.3013 115.852 77.8916 119.74 81.7812 123.628C59.3414 118.245 37.2009 119.441 37.2009 119.441C58.4438 129.909 78.7892 124.825 82.3796 123.927C86.2691 127.516 90.1587 131.106 94.0482 134.695C70.1125 130.507 46.476 132.9 46.1768 133.199C69.5141 143.069 90.7571 136.489 94.3474 135.293C98.237 138.882 102.426 142.172 106.615 145.163C80.8836 142.471 56.0503 146.359 55.7511 146.359C81.1828 155.631 103.024 147.257 107.213 145.462C111.402 148.752 115.59 151.743 120.078 154.734C92.8515 153.538 66.5221 158.921 66.5221 158.921C94.0482 167.296 116.787 157.127 120.677 155.033C125.165 158.024 129.653 160.716 134.141 163.408C105.119 164.006 77.8916 170.885 77.8916 171.184C107.512 178.362 130.55 166.399 135.038 164.006C139.526 166.698 144.313 169.09 148.801 171.483C118.283 173.876 90.1587 182.849 90.1587 182.849C121.574 188.831 145.51 174.773 149.699 171.782C154.486 174.175 159.273 176.269 164.06 178.362C132.345 182.849 103.024 193.616 103.024 193.915C136.534 198.701 160.769 182.251 164.958 178.961C169.745 181.054 174.831 182.849 179.619 184.643C146.707 191.522 116.488 204.383 116.488 204.383C152.092 207.374 176.327 188.831 180.815 184.942C187.098 187.036 193.382 189.13 199.964 190.924C200.263 190.326 200.263 189.429 200.562 188.831C193.98 187.335 187.697 185.241 181.414 183.148C179.918 177.764 172.737 149.649 160.171 126.32Z" fill="url(#paint0_linear_20_7)"/>
<defs>
<linearGradient id="paint0_linear_20_7" x1="543.888" y1="-136" x2="-448.703" y2="368.922" gradientUnits="userSpaceOnUse">
<stop stop-color="#41CBB9"/>
<stop offset="1" stop-color="#307E70"/>
</linearGradient>
</defs>
</svg>
