<svg width="467" height="476" viewBox="0 0 467 476" fill="none" xmlns="http://www.w3.org/2000/svg">
<path d="M240.668 173.902C261.312 173.304 273.28 180.781 289.437 193.343C305.593 205.905 361.244 210.69 361.244 210.69C356.158 198.727 363.937 149.974 357.654 136.814C351.371 123.654 343.891 106.606 339.403 97.932C334.915 89.2582 327.734 74.3036 332.521 65.0317C337.308 56.0589 355.559 51.2734 364.535 57.5543C373.81 63.8353 372.015 71.3126 372.015 71.3126C372.015 71.3126 377.7 70.7144 378.298 85.6691C378.897 100.624 375.905 118.869 378.298 128.739C380.692 138.609 404.628 223.252 396.549 243.291C388.471 263.331 334.316 255.554 312.176 249.273C290.035 243.291 275.375 234.02 258.021 237.01C240.369 240.001 222.716 262.733 222.716 262.733C222.716 262.733 184.419 277.986 187.411 231.627C186.214 218.168 205.662 187.959 205.662 187.959L240.668 173.902Z" fill="#F4A082"/>
<path opacity="0.3" d="M244.857 173.902C243.361 173.902 242.164 173.902 240.668 173.902L205.961 188.259C205.961 188.259 186.214 218.467 187.71 231.926C184.419 278.286 223.015 263.032 223.015 263.032C223.015 263.032 226.605 258.546 231.991 253.162C187.411 260.041 216.134 195.736 244.857 173.902Z" fill="url(#paint0_linear_20_37)"/>
<path d="M106.628 201.418C106.628 201.418 118.296 135.319 122.784 115.878C127.272 96.4366 134.752 59.0499 144.326 38.4124C154.2 17.4759 160.184 1.32483 170.656 0.128459C181.128 -1.06792 255.029 6.40942 273.28 9.40036C291.531 12.3913 308.286 12.3913 322.049 21.3641C335.812 30.636 351.969 45.2916 354.662 53.068C357.654 60.8445 360.945 65.9291 349.575 68.92C338.206 71.9109 324.443 68.92 315.766 62.639C307.089 56.3581 291.83 40.207 280.76 35.1224C264.005 29.4396 198.182 42.5998 183.82 38.1133C183.82 38.1133 181.128 55.7599 176.041 71.3127C170.955 86.8656 164.073 126.645 170.356 146.983C176.939 167.023 106.628 201.418 106.628 201.418Z" fill="#F4A082"/>
<path opacity="0.55" d="M127.871 92.8477C125.776 101.521 124.28 109.597 122.784 115.878C118.296 135.319 106.628 201.419 106.628 201.419C106.628 201.419 177.238 167.322 170.656 146.984C169.459 143.394 168.86 139.506 168.561 135.02C150.909 142.497 119.493 132.029 127.871 92.8477Z" fill="url(#paint1_linear_20_37)"/>
<path d="M198.182 28.2431C201.473 19.5694 191.599 4.61472 180.529 6.11019C169.459 7.60566 164.373 9.99841 160.782 18.9712C160.782 18.9712 165.27 10.2975 172.152 12.3912C172.152 12.3912 156.893 13.5875 155.995 33.6268C155.097 53.6661 174.545 53.9652 174.545 53.9652L198.182 28.2431Z" fill="#1D3542"/>
<path d="M195.686 15.1284C185.214 16.0257 174.742 22.3067 166.365 26.494C173.246 24.1012 178.033 22.0076 184.915 22.0076C171.451 22.0076 164.27 35.1677 160.979 48.926C166.365 54.6088 174.742 54.9079 174.742 54.9079L198.379 28.8867C199.875 24.6994 198.678 19.3157 195.686 15.1284Z" fill="url(#paint2_linear_20_37)"/>
<path d="M179.033 121.261C162.278 119.467 157.192 96.7356 159.585 74.9018C161.979 53.0679 180.23 23.1585 211.047 19.2703C231.991 16.5785 261.013 33.9259 267.296 44.6933C277.768 62.938 275.375 82.6782 275.375 82.6782L179.033 121.261Z" fill="#1D3542"/>
<path d="M270.587 54.5635C278.067 65.929 278.067 100.026 264.304 112.887C250.541 125.449 266.099 137.412 247.25 146.983C247.25 146.983 257.722 140.702 254.132 126.645C250.541 112.289 258.32 69.5182 258.32 69.5182L270.587 54.5635Z" fill="#1D3542"/>
<path opacity="0.3" d="M360.047 163.733C359.748 181.977 357.953 203.213 360.945 210.69C360.945 210.69 352.567 210.092 341.198 208.298C343.591 223.551 333.419 237.609 327.734 252.863C353.166 257.648 390.266 259.742 396.549 243.292C397.148 242.095 397.447 240.6 397.746 238.805C371.118 224.15 369.921 190.352 360.047 163.733Z" fill="url(#paint3_linear_20_37)"/>
<path d="M208.354 294.137C212.244 279.781 223.015 263.032 223.015 263.032C223.015 263.032 192.497 263.032 197.883 234.618C201.473 215.775 240.967 174.201 240.967 174.201L234.983 173.603L188.308 178.089L169.16 143.394C169.16 143.394 164.373 141.6 160.782 143.394C157.192 145.189 116.8 179.585 106.927 196.334C97.0533 213.083 82.6918 215.775 84.487 232.524C86.2822 249.273 93.1637 260.041 96.4549 269.313C97.9509 273.5 99.4469 288.156 104.832 307.597C140.736 317.467 179.332 314.775 208.354 294.137Z" fill="#FFD2B9"/>
<path d="M95.5573 267.518C95.8565 268.117 96.1557 268.715 96.1557 269.313C97.6517 273.5 99.1477 288.156 104.533 307.597C140.736 317.766 179.332 315.074 208.354 294.138C212.244 279.781 223.015 263.032 223.015 263.032C223.015 263.032 211.346 263.032 203.567 256.153C178.734 285.464 129.965 281.875 95.5573 267.518Z" fill="#FFD2B9"/>
<path d="M104.533 307.298C110.816 329.131 122.485 357.246 146.72 383.267C146.72 383.267 209.551 393.437 223.015 319.56C223.015 319.56 206.858 318.962 206.858 303.409C206.858 300.418 207.457 297.128 208.354 293.838C179.332 314.775 140.736 317.467 104.533 307.298Z" fill="#F4A082"/>
<path opacity="0.7" d="M206.859 303.709C206.859 300.718 207.457 297.428 208.354 294.138C202.071 298.624 195.19 302.512 188.009 305.204C198.78 337.805 173.947 368.014 145.224 381.772C145.822 382.37 146.122 382.969 146.72 383.567C146.72 383.567 207.756 394.932 223.015 319.86C223.015 319.561 206.859 318.962 206.859 303.709Z" fill="url(#paint4_linear_20_37)"/>
<path d="M425.272 335.413C409.714 302.512 394.754 270.509 392.361 263.032C387.873 247.778 377.401 225.047 371.417 210.391C365.433 195.736 366.031 186.763 365.433 179.286C364.535 172.107 364.535 164.032 357.953 162.835C351.071 161.639 352.867 175.697 347.78 182.277C342.694 188.857 345.087 201.419 346.883 219.364C348.678 237.31 333.12 243.89 335.513 262.733C337.907 281.576 352.268 269.612 364.535 286.361C371.118 295.633 374.11 323.748 378.298 350.666C395.352 351.264 411.21 344.684 425.272 335.413Z" fill="#F4A082"/>
<path opacity="0.7" d="M372.614 313.28C374.708 324.645 376.503 337.805 378.298 350.965C395.352 351.264 411.21 344.684 425.272 335.412C424.674 334.216 424.375 333.319 423.776 332.122C404.927 332.721 385.479 326.739 372.614 313.28Z" fill="#F4A082"/>
<path d="M461.475 414.672C458.483 405.699 441.429 370.107 424.973 335.412C411.21 344.684 395.053 351.264 377.999 350.965C381.589 373.996 385.778 396.128 393.856 405.4C386.077 400.914 311.877 377.884 302.901 371.005C293.626 364.125 291.531 348.872 272.383 334.216C253.234 319.561 232.589 324.944 222.716 319.561C222.716 319.561 207.457 385.361 143.13 379.379C78.8023 373.397 -3.4768 382.968 0.113557 421.252C4.00311 459.536 54.2682 458.041 75.2119 458.639C95.8565 459.536 167.664 457.742 198.481 457.742C228.999 457.742 248.148 439.497 254.431 438.6C260.415 437.702 389.668 473.893 432.752 468.509C475.238 463.724 467.758 432.319 461.475 414.672Z" fill="#1F5148"/>
<path d="M181.726 98.2311C181.726 98.2311 172.152 135.02 170.357 140.403C166.467 153.264 76.7079 208.896 116.8 235.216C158.688 262.733 234.684 173.304 234.684 173.304C234.684 173.304 220.622 172.705 215.834 161.938C211.346 151.171 219.425 133.823 219.425 133.823C219.425 133.823 199.977 93.1465 181.726 98.2311Z" fill="#F4A082"/>
<path opacity="0.7" d="M216.134 161.938C211.646 151.171 219.724 133.823 219.724 133.823C219.724 133.823 200.276 93.1465 181.726 98.2311C181.726 98.2311 181.128 100.325 179.332 107.503C182.624 137.113 196.387 172.107 222.716 186.464C230.196 178.687 234.983 173.304 234.983 173.304C234.983 173.304 220.622 173.005 216.134 161.938Z" fill="url(#paint5_linear_20_37)"/>
<path d="M264.603 59.9471C264.603 59.9471 267.895 85.3701 267.595 96.7356C267.296 108.101 261.612 110.195 260.116 113.186C258.62 116.476 258.62 124.551 254.132 132.926C249.644 141.301 233.487 156.853 223.015 156.255C210.449 155.358 195.788 140.403 190.702 130.533C185.616 120.962 184.12 100.624 184.12 100.624C184.12 100.624 173.648 102.418 172.451 89.2583C171.254 75.7991 176.041 68.0226 186.812 73.4063C186.812 73.4063 188.608 42.8988 223.913 42.3006C258.62 41.4033 264.603 59.9471 264.603 59.9471Z" fill="#F4A082"/>
<path opacity="0.4" d="M198.481 99.7268C202.67 75.2011 217.63 57.8537 237.077 42.899C233.188 42.3008 228.401 42.0017 223.314 42.0017C188.009 42.5999 186.214 73.1074 186.214 73.1074C175.443 67.7238 170.656 75.5002 171.852 88.9594C173.049 102.419 183.521 100.325 183.521 100.325C183.521 100.325 185.017 120.962 190.103 130.234C194.891 139.207 207.457 152.666 219.126 155.358C201.473 144.89 196.686 119.766 198.481 99.7268Z" fill="url(#paint6_linear_20_37)"/>
<path d="M267.296 66.2284C255.628 76.9958 240.668 84.4731 216.134 77.893C216.134 77.893 232.889 75.5003 240.668 69.2193C222.716 76.6967 198.78 68.322 193.993 82.3794C189.206 96.4368 202.969 131.431 185.915 137.413C185.915 137.413 197.284 133.225 190.403 116.476C186.214 106.606 177.238 90.7541 182.923 66.2284C188.608 41.7027 208.654 30.6362 234.983 33.6272C261.312 36.9172 270.887 54.5637 270.887 54.5637L267.296 66.2284Z" fill="#1D3542"/>
<path d="M242.558 104.12C244.8 105.456 247.035 106.408 249.495 107.048C251.841 107.652 254.33 107.791 256.927 107.581C254.574 108.632 251.745 108.769 249.133 108.209C246.559 107.534 244.085 106.125 242.558 104.12Z" fill="#2E2430"/>
<path d="M217.638 97.9203C219.841 99.3215 222.048 100.338 224.488 101.049C226.815 101.721 229.298 101.933 231.901 101.799C229.518 102.78 226.686 102.835 224.092 102.199C221.538 101.45 219.107 99.9694 217.638 97.9203Z" fill="#2E2430"/>
<path d="M259.9 98.088C256.557 94.1449 251.631 92.3894 246.546 93.2918C245.773 93.3881 246.08 94.6134 246.854 94.517C251.497 93.7172 255.984 95.3537 258.998 99.0688C259.43 99.6312 260.328 98.7611 259.9 98.088Z" fill="#1D3542"/>
<path d="M219.471 90.3935C223.967 87.8432 229.197 87.8925 233.66 90.4916C234.352 90.8482 233.642 91.8927 232.948 91.5355C228.865 89.1852 224.09 89.1757 219.979 91.6247C219.381 92.004 218.838 90.8779 219.471 90.3935Z" fill="#1D3542"/>
<path d="M226.869 121.214C228.113 121.586 229.14 122.113 230.23 122.439C231.317 122.764 232.407 123.09 233.399 123.166C234.489 123.492 235.481 123.568 236.629 123.69C237.779 123.814 238.927 123.936 240.292 123.903C239.151 124.885 237.917 125.618 236.648 125.9C235.377 126.182 234.012 126.215 232.708 126.046C231.404 125.876 230.221 125.302 229.313 124.369C228.286 123.842 227.44 122.707 226.869 121.214Z" fill="#A34F31"/>
<path d="M221.893 136.029C226.278 139.585 231.776 140.64 237.199 139.411C238.215 139.145 237.71 137.676 236.867 137.993C231.791 139.324 226.738 138.024 222.648 134.743C221.888 134.142 221.133 135.428 221.893 136.029Z" fill="#A34F31"/>
<path d="M185.914 137.114C185.616 137.412 185.914 137.114 185.914 137.114V137.114Z" fill="url(#paint7_linear_20_37)"/>
<path opacity="0.47" d="M267.595 50.3761C259.517 60.8443 243.36 62.938 230.794 62.938C237.676 60.5452 244.557 56.0588 249.344 49.1797C233.188 62.938 207.756 56.0588 193.993 72.2099C181.128 83.2764 194.891 109.896 192.497 124.252C193.395 133.524 187.411 136.515 186.214 137.113C202.969 130.832 189.206 96.1374 194.292 82.08C199.079 68.0226 223.015 76.3972 240.967 68.9199C233.188 75.2008 216.433 77.5936 216.433 77.5936C240.967 84.1736 255.927 76.6963 267.595 65.9289L270.887 54.2643C270.587 54.5634 269.69 52.7688 267.595 50.3761Z" fill="url(#paint8_linear_20_37)"/>
<g opacity="0.7">
<path d="M303.499 35.1223C303.499 35.1223 304.397 35.4214 306.192 36.0196C307.089 36.3187 307.987 36.9169 309.184 37.5151C310.381 38.1133 311.577 39.0105 312.774 40.2069C315.168 42.3006 317.86 44.9924 320.852 47.6842C322.348 49.1797 323.844 50.077 325.64 50.9743C326.537 51.2734 327.435 51.5725 328.632 52.1707C329.529 52.4697 330.726 53.367 331.624 54.5634C331.923 55.1616 332.222 55.7598 332.222 56.358C332.222 56.6571 332.521 57.5543 332.222 58.4516C331.923 59.9471 330.726 61.1435 329.529 61.4426C327.136 62.3398 325.041 61.7416 322.947 61.4426C322.049 61.1435 321.152 61.1435 319.955 60.8444C319.057 60.5453 318.16 60.2462 317.262 59.9471C315.467 59.3489 313.971 58.7507 312.475 57.8534C310.979 56.9561 309.782 56.358 308.585 55.7598C307.389 55.1616 306.491 54.2643 305.893 53.9652C304.995 53.367 304.397 53.0679 304.097 52.7688C303.798 52.4697 303.499 52.1707 303.499 52.1707C303.499 52.1707 304.397 52.7688 306.192 53.367C307.089 53.6661 307.987 54.2643 309.184 54.8625C310.381 55.4607 311.577 55.7598 313.073 56.6571C314.569 57.2552 316.065 57.8534 317.86 58.4516C318.758 58.7507 319.656 59.0498 320.553 59.3489C321.451 59.648 322.348 59.648 323.246 59.9471C325.041 60.2462 327.136 60.2462 328.632 59.9471C329.529 59.648 329.828 59.3489 330.128 58.4516C330.128 58.1525 330.128 57.8534 330.128 57.2552C330.128 56.9562 329.828 56.6571 329.828 56.358C328.931 55.1616 326.836 54.5634 325.041 53.6661C322.947 52.7688 321.152 51.2734 319.955 49.7779C317.262 46.787 314.869 44.0951 312.475 42.0015C311.278 40.8051 310.081 39.9078 309.184 39.3096C308.286 38.4123 307.089 38.1133 306.491 37.5151C304.397 35.4214 303.499 35.1223 303.499 35.1223Z" fill="url(#paint9_linear_20_37)"/>
</g>
<path d="M356.756 58.4517C356.756 58.4517 362.74 67.4245 352.567 70.1163C342.395 72.8082 331.025 69.219 331.025 69.219C331.025 69.219 330.726 75.7991 331.624 79.3882C332.82 83.2764 331.923 80.5846 331.923 80.5846C331.923 80.5846 334.316 75.2009 340.899 74.9018C347.481 74.6027 354.363 72.21 358.252 68.0227C362.441 63.8353 356.756 58.4517 356.756 58.4517Z" fill="url(#paint10_linear_20_37)"/>
<path opacity="0.2" d="M127.871 413.775C127.871 413.775 86.8806 400.017 72.5192 400.017C72.5192 400.017 106.628 397.026 130.264 406.896C153.901 416.766 176.64 427.533 187.71 425.44C198.78 423.346 202.371 419.757 202.371 419.757C202.371 419.757 198.182 426.337 184.419 428.73C170.057 430.823 127.871 413.775 127.871 413.775Z" fill="#192E2A"/>
<path d="M121.887 459.237C155.696 459.536 188.607 460.134 195.489 461.331C209.85 463.724 233.188 464.322 247.848 465.219C262.509 466.116 269.69 470.304 276.272 472.696C282.555 475.089 289.437 478.379 293.027 472.995C296.618 467.911 284.35 463.424 280.76 456.545C277.469 449.666 265.8 446.675 250.242 440.992C234.385 435.31 235.282 419.458 218.826 413.775C202.071 408.092 206.26 425.14 187.411 428.43C177.238 430.225 152.405 421.252 128.17 413.775C120.69 427.832 119.493 443.983 121.887 459.237Z" fill="#F4A082"/>
<path opacity="0.5" d="M180.529 428.43C168.262 427.234 147.917 420.056 127.871 413.775C120.69 427.832 119.792 443.684 121.887 459.237C123.981 459.237 126.375 459.237 128.469 459.237C139.24 440.095 160.184 432.917 180.529 428.43Z" fill="#F4A082"/>
<defs>
<linearGradient id="paint0_linear_20_37" x1="609.813" y1="25.3766" x2="-496.611" y2="586.359" gradientUnits="userSpaceOnUse">
<stop offset="0.00537634" stop-color="#F5906B"/>
<stop offset="0.7473" stop-color="#F5906B"/>
</linearGradient>
<linearGradient id="paint1_linear_20_37" x1="558.204" y1="-76.3717" x2="-548.177" y2="484.589" gradientUnits="userSpaceOnUse">
<stop offset="0.00537634" stop-color="#F5906B"/>
<stop offset="0.7473" stop-color="#F5906B"/>
</linearGradient>
<linearGradient id="paint2_linear_20_37" x1="526.153" y1="-139.68" x2="-580.285" y2="421.309" gradientUnits="userSpaceOnUse">
<stop stop-color="#313F46"/>
<stop offset="1" stop-color="#305062"/>
</linearGradient>
<linearGradient id="paint3_linear_20_37" x1="635.211" y1="75.4693" x2="-471.216" y2="636.453" gradientUnits="userSpaceOnUse">
<stop offset="0.00537634" stop-color="#EA7951"/>
<stop offset="0.7473" stop-color="#F5906B"/>
</linearGradient>
<linearGradient id="paint4_linear_20_37" x1="650.455" y1="105.549" x2="-455.953" y2="666.523" gradientUnits="userSpaceOnUse">
<stop offset="0.00537634" stop-color="#F5906B"/>
<stop offset="0.7473" stop-color="#F5906B"/>
</linearGradient>
<linearGradient id="paint5_linear_20_37" x1="573.714" y1="-45.8309" x2="-532.714" y2="515.154" gradientUnits="userSpaceOnUse">
<stop offset="0.00537634" stop-color="#F5906B"/>
<stop offset="0.7473" stop-color="#F5906B"/>
</linearGradient>
<linearGradient id="paint6_linear_20_37" x1="558.987" y1="-74.8267" x2="-547.385" y2="486.129" gradientUnits="userSpaceOnUse">
<stop offset="0.00537634" stop-color="#F5906B"/>
<stop offset="0.7473" stop-color="#F5906B"/>
</linearGradient>
<linearGradient id="paint7_linear_20_37" x1="567.637" y1="-55.9685" x2="-536.353" y2="504.489" gradientUnits="userSpaceOnUse">
<stop stop-color="#000077"/>
<stop offset="0.1459" stop-color="#020087"/>
<stop offset="0.7232" stop-color="#0B00C1"/>
<stop offset="1" stop-color="#0F00D8"/>
</linearGradient>
<linearGradient id="paint8_linear_20_37" x1="555.493" y1="-81.7381" x2="-550.905" y2="479.231" gradientUnits="userSpaceOnUse">
<stop stop-color="#305062"/>
<stop offset="1" stop-color="#305062"/>
</linearGradient>
<linearGradient id="paint9_linear_20_37" x1="302.782" y1="48.1873" x2="332.369" y2="48.1873" gradientUnits="userSpaceOnUse">
<stop offset="0.00537634" stop-color="#F5906B"/>
<stop offset="0.7473" stop-color="#F5906B"/>
</linearGradient>
<linearGradient id="paint10_linear_20_37" x1="573.379" y1="-46.4758" x2="-533.042" y2="514.505" gradientUnits="userSpaceOnUse">
<stop offset="0.00537634" stop-color="#F5906B"/>
<stop offset="0.7473" stop-color="#F5906B"/>
</linearGradient>
</defs>
</svg>
