<svg width="62" height="119" viewBox="0 0 62 119" fill="none" xmlns="http://www.w3.org/2000/svg">
<path d="M9.41568 118.332C9.41568 118.332 73.743 104.873 59.0824 0.788574C59.0824 0.788574 -27.9839 54.9245 9.41568 118.332Z" fill="url(#paint0_linear_20_29)"/>
<path opacity="0.1" d="M2.83332 68.0844C21.6827 78.2536 43.2249 64.4953 60.2791 48.3442C52.7992 109.06 9.41564 118.033 9.41564 118.033C-1.05625 100.387 -1.65464 83.3382 2.83332 68.0844Z" fill="#1A7F72"/>
<path opacity="0.6" d="M14.502 49.5408L25.5723 76.4592L41.1306 41.1662L34.8474 25.9124L42.0281 39.3716L46.8153 28.6043L46.5161 28.3052L47.1145 28.0061L54.5944 11.2568L48.0121 27.4079L58.4839 21.426L47.7129 29.5015L47.4137 29.2024L35.4458 58.5136L55.7912 46.5499L34.5482 60.9064L19.8876 97.0967C20.1868 96.7976 20.486 96.7976 20.7852 96.4985C23.4779 94.7039 27.3675 92.3112 30.9578 90.2175C38.4378 85.7311 45.6185 80.9456 45.6185 80.9456C45.6185 80.9456 38.4378 85.7311 31.2571 90.8157C27.6667 93.2085 24.0763 95.9003 21.3836 97.6949C20.486 98.5922 19.5884 99.1903 18.6908 99.4894L10.9117 118.931L7.02209 117.435L24.3755 78.2538L14.502 49.5408Z" fill="#1F5148"/>
<defs>
<linearGradient id="paint0_linear_20_29" x1="-423.038" y1="-481.53" x2="377.505" y2="465.93" gradientUnits="userSpaceOnUse">
<stop stop-color="#41CBB9"/>
<stop offset="1" stop-color="#4DD0B9"/>
</linearGradient>
</defs>
</svg>
