<svg width="60" height="137" viewBox="0 0 60 137" fill="none" xmlns="http://www.w3.org/2000/svg">
<path d="M42.9418 136.314C42.9418 136.314 -24.0783 110.293 10.3293 0.525879C10.3293 0.525879 94.7028 74.7011 42.9418 136.314Z" fill="url(#paint0_linear_20_33)"/>
<path opacity="0.2" d="M33.6666 26.5469C41.745 54.6617 39.3514 80.6828 10.6285 104.012C23.1947 128.538 42.9417 136.314 42.9417 136.314C75.5542 97.432 54.012 53.7644 33.6666 26.5469Z" fill="#1A7F72"/>
<path opacity="0.6" d="M49.5241 60.9427L32.769 88.1602L21.998 47.1844L31.5723 31.6315L21.3996 45.0907L18.1084 32.5288L18.4076 32.2297L18.1084 31.9306L13.0221 12.4895L17.2108 31.3324L7.03812 23.2569L17.2108 33.7252L17.51 33.4261L24.9899 67.2236L4.94373 50.7735L25.2891 69.9155L34.5642 111.789C34.265 111.49 33.9658 111.19 33.6666 110.891C30.9739 108.499 27.3835 105.209 23.7931 102.218C16.6124 95.9366 9.43168 89.6557 9.43168 89.6557C9.43168 89.6557 16.3132 96.2357 23.1948 102.816C26.4859 106.106 30.0763 109.396 32.4699 112.088C33.3674 112.985 34.265 113.882 34.8634 114.48L39.9498 136.912L44.4377 135.716L32.769 90.2539L49.5241 60.9427Z" fill="#1F5148"/>
<defs>
<linearGradient id="paint0_linear_20_33" x1="449.364" y1="-291.483" x2="-494.976" y2="512.81" gradientUnits="userSpaceOnUse">
<stop stop-color="#41CBB9"/>
<stop offset="1" stop-color="#2EA892"/>
</linearGradient>
</defs>
</svg>
