<svg width="142" height="243" viewBox="0 0 142 243" fill="none" xmlns="http://www.w3.org/2000/svg">
<path opacity="0.82" d="M18.6747 165.982C18.3755 165.682 30.3434 194.395 17.4779 226.398C21.6667 223.108 25.8555 219.818 29.745 216.528C28.8474 210.547 24.9579 183.329 28.249 158.205C27.9498 157.906 40.8153 184.824 30.6426 215.93C34.5322 212.64 38.4217 209.051 42.3113 205.462C41.1145 200.078 35.7289 174.356 37.5241 149.831C37.2249 149.531 50.6888 174.655 42.9097 204.864C46.5 201.275 50.3896 197.386 53.6808 193.498C52.1848 188.414 45.6024 164.486 45.9016 140.858C45.6024 140.858 59.6647 163.888 54.2791 192.601C57.8695 188.713 61.1607 184.824 64.4518 180.637C62.6566 176.151 54.8775 153.719 54.2791 131.287C53.9799 131.287 68.3414 152.522 65.0503 180.039C68.3414 175.852 71.3334 171.664 74.3253 167.477C72.5301 163.29 63.8535 142.652 62.0583 121.417C62.0583 121.417 76.4197 140.858 74.9237 166.879C77.9157 162.692 80.9077 158.205 83.6004 153.719C81.5061 150.13 72.231 130.988 69.5382 110.948C69.5382 110.948 83.8996 128.595 83.8996 153.42C86.5924 148.933 89.2852 144.447 91.6788 139.661C89.5844 136.371 79.7109 119.024 76.1205 100.181C76.1205 100.181 90.482 116.033 91.978 139.362C94.3715 134.577 96.7651 129.791 98.8595 125.006C96.7651 122.314 86.2932 106.462 82.1045 88.8154C82.1045 88.8154 96.4659 103.172 99.1587 124.707C101.253 119.921 103.347 114.837 105.143 109.752C103.347 107.359 92.5764 93.3018 87.49 76.8517C87.49 76.8517 101.552 89.4136 105.143 109.453C106.938 104.368 108.733 99.2837 110.229 94.1991C108.434 92.4045 97.6627 79.8426 92.2771 64.5888C92.2771 64.5888 105.741 75.6553 110.229 93.9C111.725 88.8154 113.221 83.4317 114.418 78.3471C112.922 76.8517 101.851 66.0843 96.1667 52.0269C96.1667 52.0269 109.032 61.5979 114.418 78.3471C115.615 72.9634 116.811 67.5798 117.709 62.1961C116.213 60.9997 105.741 51.7278 99.7571 38.8668C99.7571 38.8668 112.024 47.2414 117.709 61.897C118.606 56.5133 119.504 51.1296 120.102 45.4468C119.205 44.8486 108.733 36.7731 102.45 25.1085C102.45 25.1085 114.119 31.9876 120.102 45.1477C120.402 43.0541 120.402 40.9604 120.701 38.8668C120.102 37.9695 112.323 26.0057 109.331 11.9483C109.331 11.9483 118.606 23.3139 120.701 38.5677C121 35.8758 121 33.4831 121.299 30.7912C121.299 31.0903 121.299 31.3894 121 31.6885C121 31.6885 117.709 15.8366 119.803 0.283691C119.803 0.283691 124.291 15.5375 121.299 30.4921C121.299 33.184 121 35.8758 120.701 38.5677C121.299 36.474 125.488 22.1175 133.267 11.3501C133.267 11.3501 129.976 28.3985 120.701 38.8668C120.701 40.9604 120.402 43.0541 120.102 45.1477C128.48 33.4831 140.149 26.0057 140.149 26.0057C133.267 39.1659 121.299 44.8486 120.102 45.4468C119.504 50.8305 118.906 56.5133 118.008 61.897C128.181 49.6341 141.345 42.1568 141.345 42.1568C133.267 56.2142 119.504 61.5979 118.008 62.1961C117.111 67.5798 116.213 72.9634 115.016 78.3471C126.984 65.7852 141.645 58.3079 141.645 58.3079C131.771 72.9635 116.811 78.048 115.016 78.6462C113.819 84.0299 112.323 89.1145 110.827 94.4982C124.59 81.9363 141.046 74.4589 141.046 74.4589C129.677 90.0118 113.221 94.1991 110.827 94.7973C109.331 99.8819 107.536 104.966 105.741 110.051C121.299 97.4891 139.55 90.3109 139.55 90.3109C126.386 106.163 108.434 109.752 105.741 110.35C103.946 115.435 101.851 120.22 99.7571 125.305C117.41 113.042 137.157 106.462 137.157 106.462C122.197 122.912 102.749 125.305 99.4579 125.903C97.3635 130.689 94.9699 135.474 92.5764 140.26C112.024 128.296 133.566 122.314 133.866 122.314C116.811 138.764 95.8675 140.559 92.5764 140.559C90.1828 145.344 87.49 149.831 84.7972 154.616C106.339 143.25 129.677 138.166 129.677 138.166C110.528 154.915 88.3876 155.214 84.498 155.214C81.8053 159.701 78.8133 164.187 76.1205 168.673C99.7571 157.906 124.59 153.719 124.59 154.018C103.347 170.767 79.7109 169.571 75.5221 169.272C72.5302 173.758 69.5382 177.945 66.247 182.133C91.6788 172.263 118.307 169.272 118.606 169.571C95.2691 186.021 70.4358 183.628 65.9478 183.03C62.6566 187.217 59.3655 191.105 55.7751 195.293C83.3012 186.619 111.426 184.824 111.725 185.124C85.994 201.275 59.9639 197.087 55.1767 196.19C51.5864 200.078 47.996 203.966 44.4056 207.556C74.0261 200.377 103.647 199.779 103.946 200.078C75.8213 215.631 48.8936 209.649 43.8073 208.453C40.2169 212.042 36.3274 215.631 32.1386 219.22C63.5543 213.537 94.9699 214.734 94.9699 214.734C64.4519 229.689 36.6265 221.613 31.241 219.818C27.3514 223.408 23.1627 226.698 18.9739 229.689C52.484 225.8 85.0964 228.492 85.0964 228.791C52.1848 242.849 23.4619 232.679 18.0763 230.586C12.6908 234.773 7.30524 238.362 1.6205 242.25C1.3213 241.652 0.722903 241.054 0.423706 240.456C6.10845 236.867 11.494 232.979 16.8795 229.09C15.9819 220.716 13.8876 192.003 18.6747 165.982Z" fill="url(#paint0_linear_20_15)"/>
<defs>
<linearGradient id="paint0_linear_20_15" x1="-212.612" y1="72.5" x2="498.554" y2="180.999" gradientUnits="userSpaceOnUse">
<stop stop-color="#41CBB9"/>
<stop offset="1" stop-color="#307E70"/>
</linearGradient>
</defs>
</svg>
