<svg width="133" height="95" viewBox="0 0 133 95" fill="none" xmlns="http://www.w3.org/2000/svg">
<path d="M130.817 92.0483C130.817 92.0483 53.9237 120.462 0.367432 0.525635C0.666628 0.525635 128.723 0.525652 130.817 92.0483Z" fill="url(#paint0_linear_20_21)"/>
<path opacity="0.1" d="M105.086 34.6221C91.9217 57.9514 59.9076 57.3532 31.1847 51.9695C79.3554 111.19 130.817 92.0481 130.817 92.0481C130.219 66.326 119.747 47.7822 105.086 34.6221Z" fill="#1A7F72"/>
<path opacity="0.4" d="M79.9538 22.6587L85.9377 58.5499L45.8454 31.6315L42.5542 11.2931L44.0502 30.4351L31.7831 22.3596V21.7614H31.1847L12.3353 8.90039L29.9879 21.7614L15.0281 22.3596L31.7831 23.556V23.2569L63.7972 46.5862L34.1767 47.4834L66.1907 48.3807L105.685 77.0937C105.086 77.0937 104.787 77.0937 104.189 77.0937C100 77.0937 94.6144 77.0937 89.2289 77.0937C78.4578 77.0937 67.3875 77.0937 67.3875 77.0937C67.3875 77.0937 78.1586 77.6919 89.2289 77.991C94.6144 78.2901 100 78.5892 104.189 78.5892C105.685 78.5892 107.181 78.8883 108.377 78.8883L129.62 94.1421L132.612 89.9547L88.3313 60.0454L79.9538 22.6587Z" fill="#1F5148"/>
<defs>
<linearGradient id="paint0_linear_20_21" x1="172.318" y1="-691.83" x2="-4.75606" y2="535.581" gradientUnits="userSpaceOnUse">
<stop stop-color="#41CBB9"/>
<stop offset="1" stop-color="#32BFA6"/>
</linearGradient>
</defs>
</svg>
