<svg width="155" height="68" viewBox="0 0 155 68" fill="none" xmlns="http://www.w3.org/2000/svg">
<path d="M0.13855 51.8034C0.13855 51.8034 61.7731 105.64 154.524 12.6222C154.524 12.3231 34.8454 -33.1391 0.13855 51.8034Z" fill="url(#paint0_linear_20_25)"/>
<path opacity="0.05" d="M45.018 7.23828C48.9076 33.5585 79.1265 44.625 107.849 49.7096C41.7269 87.9936 0.437744 51.8032 0.437744 51.8032C10.012 27.8758 26.4678 14.4165 45.018 7.23828Z" fill="#1F5148"/>
<path opacity="0.4" d="M72.5442 4.84595L54.2932 36.2508L101.267 25.1843L111.739 7.23868L103.661 24.5861L118.022 21.2961L118.321 20.997L118.92 21.2961L141.06 15.9124L120.116 21.5952L133.88 27.278L117.723 22.4924L118.022 22.1933L79.7249 32.6616L106.952 44.0272L76.7329 33.5589L29.7591 46.4199C30.0583 46.719 30.6567 46.719 31.2551 47.0181C35.1446 48.5136 40.2309 50.3081 45.3173 52.4018C55.49 56.29 65.6627 60.1782 65.6627 60.1782C65.6627 60.1782 55.49 56.8882 45.0181 53.2991C39.9317 51.5045 34.5462 50.009 30.9558 48.8127C29.4599 48.2145 27.9639 47.9154 27.0663 47.6163L1.93377 54.4954L0.737 49.4108L52.7972 37.148L72.5442 4.84595Z" fill="#1F5148"/>
<defs>
<linearGradient id="paint0_linear_20_25" x1="256.317" y1="-768.151" x2="-14.0548" y2="442.249" gradientUnits="userSpaceOnUse">
<stop stop-color="#41CBB9"/>
<stop offset="1" stop-color="#319E8B"/>
</linearGradient>
</defs>
</svg>
