<svg width="704" height="554" viewBox="0 0 704 554" fill="none" xmlns="http://www.w3.org/2000/svg">
<g opacity="0.1" clip-path="url(#clip0_31_98)">
<path d="M181.717 167.451C215.263 157.525 251.504 155.598 283.966 142.398C327.794 124.877 360.019 89.6373 395.556 60.1014C431.526 30.9029 478.344 5.65243 524.483 15.6051C585.858 28.7629 612.427 94.5766 628.884 150.772C646.457 210.612 664.03 270.453 681.634 330.664C691.179 362.39 700.171 397.154 685.77 427.903C667.606 466.82 619.297 483.97 575.278 494.404C400.466 536.777 -64.2136 595.31 43.5022 293.864C64.4286 234.897 117.776 186.29 181.717 167.451Z" fill="url(#paint0_linear_31_98)"/>
</g>
<defs>
<linearGradient id="paint0_linear_31_98" x1="20.9907" y1="304.644" x2="681.712" y2="249.062" gradientUnits="userSpaceOnUse">
<stop stop-color="#1A7F72"/>
<stop offset="1" stop-color="#7ADBAE"/>
</linearGradient>
<clipPath id="clip0_31_98">
<rect width="500" height="663.434" fill="white" transform="matrix(0.083827 0.99648 0.99648 -0.083827 0 55.6138)"/>
</clipPath>
</defs>
</svg>
