<svg width="580" height="438" viewBox="0 0 580 438" fill="none" xmlns="http://www.w3.org/2000/svg">
<path d="M91.5457 393.569C91.5457 393.569 61.7603 399.021 60.3073 399.021C48.3205 399.748 -1.07975 414.651 0.373194 424.828C1.09967 426.282 8.00117 428.1 10.9071 423.011C21.0777 427.736 24.7101 426.282 31.6116 423.374C36.3337 421.557 40.3293 420.467 44.3249 424.465C47.9573 428.463 59.5808 432.098 66.1191 428.463C71.9309 425.192 69.7515 419.74 74.1103 415.378C74.4736 415.014 103.533 408.108 104.259 407.745C109.708 403.383 93.7251 392.478 91.5457 393.569Z" fill="#F4A082"/>
<path fill-rule="evenodd" clip-rule="evenodd" d="M482.752 56.6193C482.752 56.6193 473.671 15.5458 438.8 4.64128C412.284 -3.71882 365.79 -4.44579 347.991 35.9008C328.013 82.0631 355.982 77.3378 342.906 97.6928C329.829 118.048 309.851 111.869 306.219 128.225C302.586 144.582 317.116 167.118 312.757 176.205C308.035 185.292 285.151 202.012 290.963 216.552C297.864 233.999 312.031 238.361 306.945 247.448C297.138 264.895 279.702 261.624 282.245 265.622C284.788 269.62 339.273 293.247 357.072 274.345C370.512 260.533 363.973 237.997 366.153 227.456C370.875 206.374 401.387 196.197 420.638 188.564C440.253 180.93 442.433 152.215 447.881 138.766C453.693 125.681 493.649 126.771 482.752 56.6193Z" fill="#1D3542"/>
<path d="M436.984 13.7291C420.639 4.64206 378.503 1.37071 360.341 41.7173C343.269 79.883 369.422 89.697 356.346 109.689C343.269 129.68 322.565 124.955 318.932 141.312C315.3 157.668 329.829 172.935 325.107 182.022C320.385 191.109 299.317 202.74 305.129 216.916C312.031 234.363 326.923 239.088 300.407 264.532" stroke="#01080A" stroke-miterlimit="10" stroke-linecap="round" stroke-linejoin="round"/>
<path d="M350.17 33.7192C330.192 72.6119 347.628 71.1579 334.188 92.9669C320.748 114.776 301.86 110.051 297.864 127.498C293.868 144.945 310.577 166.027 305.855 175.841C301.133 185.655 281.882 200.558 291.326 216.188" stroke="#01080A" stroke-miterlimit="10" stroke-linecap="round" stroke-linejoin="round"/>
<path d="M440.98 24.269C424.634 15.1819 420.275 30.8117 369.785 43.5336C352.713 81.6992 383.588 93.6942 370.512 114.049C357.435 134.404 336.73 129.315 333.098 145.672C329.466 162.029 343.995 177.295 339.273 186.382C334.551 195.469 313.483 207.101 319.295 221.277C326.197 238.724 341.089 243.449 314.573 268.893" stroke="#01080A" stroke-miterlimit="10" stroke-linecap="round" stroke-linejoin="round"/>
<path d="M397.754 52.9849C378.503 90.0601 409.015 103.872 394.848 123.5C380.682 143.129 360.341 136.949 355.619 152.943C351.26 168.936 365.063 184.929 359.978 194.016C354.892 203.103 333.098 213.281 338.183 228.183C344.359 245.994 353.076 246.721 325.107 271.074" stroke="#01080A" stroke-miterlimit="10" stroke-linecap="round" stroke-linejoin="round"/>
<path d="M429.356 63.5254C406.472 98.4197 435.168 115.14 419.186 133.314C403.203 151.488 383.225 143.128 377.413 158.758C371.238 174.388 383.225 191.471 377.413 199.831C371.238 208.191 348.718 216.188 352.35 231.454C356.709 249.629 365.063 251.446 334.915 272.891" stroke="#01080A" stroke-miterlimit="10" stroke-linecap="round" stroke-linejoin="round"/>
<path d="M408.652 93.6943C407.199 101.691 406.472 132.587 402.477 131.86C401.024 131.496 389.763 132.95 387.947 132.95C375.234 134.768 353.077 131.86 348.354 144.218C343.996 155.123 389.037 195.833 382.135 222.731C379.23 233.999 367.606 272.891 366.88 284.523C418.822 293.973 472.945 285.25 472.218 280.888C472.218 252.173 457.689 237.633 460.595 214.007C462.774 211.099 470.402 187.109 470.765 179.84C471.129 172.933 504.183 150.398 487.111 139.13C465.68 125.317 439.164 135.131 438.437 130.043C437.711 124.954 438.074 111.868 436.258 97.6926C434.442 84.9707 410.105 85.3342 408.652 93.6943Z" fill="#F4A082"/>
<path opacity="0.6" d="M434.441 103.872C434.441 109.688 424.634 118.411 415.553 118.048C406.472 118.048 406.393 114.365 407.293 108.282C407.293 102.466 406.109 96.2388 415.19 96.2388C424.634 96.6023 434.441 97.6927 434.441 103.872Z" fill="#DB8C70"/>
<path d="M390.127 65.3438C390.127 65.3438 384.315 59.1646 383.952 66.7977C383.225 82.791 392.669 84.9719 393.759 85.3353C395.212 85.6988 390.127 65.3438 390.127 65.3438Z" fill="#F4A082"/>
<path d="M454.056 65.7056C454.056 65.7056 459.868 59.5264 460.231 67.1595C460.958 83.1528 451.514 85.3337 450.424 85.6972C448.971 86.0606 454.056 65.7056 454.056 65.7056Z" fill="#F4A082"/>
<path fill-rule="evenodd" clip-rule="evenodd" d="M390.49 49.7132C389.763 55.1655 389.037 61.7081 389.4 68.6143C389.4 100.964 408.652 109.688 425.361 110.051C447.518 111.142 458.415 80.6092 456.236 62.7986C454.783 51.5306 453.33 46.4419 449.698 39.5357C436.984 21.3616 440.617 35.5374 390.49 49.7132Z" fill="#F4A082"/>
<path d="M471.068 167.666C465.85 160.123 461.602 145.656 460.036 139.139C458.469 132.623 456.997 131.558 456.997 131.558C456.997 131.558 452.62 130.544 451.186 131.66C451.569 132.744 462.237 161.277 458.656 164.248C455.795 166.842 429.517 180.752 419.417 184.927C409.178 181.107 380.616 168.155 377.666 165.661C374.347 162.811 383.33 134.611 383.674 133.514C381.425 133.064 378.05 133.514 378.05 133.514C378.05 133.514 376.753 134.05 375.414 140.617C374.075 147.184 372.13 160.669 367.918 169.104C361.257 183.034 361.548 199.752 375.226 213.328C375.965 214.042 377.106 216.93 377.857 218.371C378.978 220.169 375.808 246.763 375.808 246.763C400.701 257.598 452.942 253.414 466.241 245.184C466.241 245.184 464.926 211.398 465.64 210.658C477.811 200.267 476.285 175.209 471.068 167.666Z" fill="#FFD2B9"/>
<path d="M422.818 56.2559C424.634 64.2525 423.181 72.6126 422.455 74.0665C421.002 76.2474 417.369 74.43 417.733 76.2474C418.459 80.6092 423.908 80.9727 426.45 79.1553" stroke="#EFAFA3" stroke-width="1.38" stroke-miterlimit="10" stroke-linecap="round" stroke-linejoin="round"/>
<path opacity="0.69" d="M398.844 53.7114C401.024 52.6209 405.746 51.894 409.378 53.3479" stroke="#682C1A" stroke-width="1.31" stroke-miterlimit="10" stroke-linecap="round" stroke-linejoin="round"/>
<path d="M410.468 65.3428C408.652 68.2506 402.114 68.6141 399.934 65.7063" stroke="#49241B" stroke-miterlimit="10" stroke-linecap="round" stroke-linejoin="round"/>
<path d="M446.065 65.7065C444.249 68.6144 437.711 68.9779 435.531 66.07" stroke="#49241B" stroke-miterlimit="10" stroke-linecap="round" stroke-linejoin="round"/>
<path opacity="0.69" d="M445.339 54.0756C443.159 52.9852 438.074 52.2582 434.442 53.7122" stroke="#682C1A" stroke-width="1.31" stroke-miterlimit="10" stroke-linecap="round" stroke-linejoin="round"/>
<path d="M415.19 89.4255C415.916 90.8794 424.634 95.2412 430.446 89.062" stroke="#BC4926" stroke-width="1.45" stroke-miterlimit="10" stroke-linecap="round" stroke-linejoin="round"/>
<path opacity="0.24" fill-rule="evenodd" clip-rule="evenodd" d="M409.741 78.7922C408.288 81.7 403.566 82.427 399.208 80.973C394.849 79.1556 392.669 75.5208 394.485 72.6129C395.938 69.7051 400.66 68.9781 405.019 70.432C409.378 72.2495 411.194 75.8843 409.741 78.7922Z" fill="#ED5851"/>
<path opacity="0.24" fill-rule="evenodd" clip-rule="evenodd" d="M436.984 79.156C438.8 81.7004 443.522 82.4274 447.518 80.2465C451.514 78.0656 453.33 74.4308 451.514 71.5229C449.697 68.9785 444.975 68.2516 440.98 70.4325C436.621 72.6134 434.805 76.6117 436.984 79.156Z" fill="#ED5851"/>
<path d="M421.728 281.251C421.728 283.068 421.002 284.886 419.912 284.886C418.823 284.886 418.096 283.432 418.096 281.251C418.096 279.434 418.823 277.616 419.912 277.616C420.639 277.98 421.728 279.434 421.728 281.251Z" fill="#EFAFA3"/>
<path d="M385.768 33.7198C391.216 24.6328 414.464 9.72999 438.074 12.2744" stroke="#01080A" stroke-miterlimit="10" stroke-linecap="round" stroke-linejoin="round"/>
<path d="M578.647 198.377C582.279 186.746 569.203 168.208 551.767 175.478C530.336 180.93 470.765 267.075 470.765 267.075C470.765 267.075 429.356 281.251 368.696 271.074C366.516 276.162 359.978 290.702 359.978 290.702C359.978 290.702 306.219 319.78 226.307 356.129C195.068 370.304 91.1826 392.113 91.1826 393.204C91.1826 396.839 91.1826 409.561 91.1826 409.561C91.1826 409.561 213.593 423.373 251.37 382.663C251.37 382.663 349.807 373.212 422.455 339.772C474.761 344.134 495.466 315.419 527.43 276.162C552.494 245.266 572.835 216.915 578.647 198.377Z" fill="#1F5148"/>
<path d="M367.928 274.097C367.928 274.097 416.965 288.967 469.676 270.71" stroke="#1D4941" stroke-width="1.44" stroke-miterlimit="10" stroke-linecap="round" stroke-linejoin="round"/>
<path d="M366.354 277.477C366.354 277.477 418.54 293.923 468.223 274.709" stroke="#1D4941" stroke-width="1.44" stroke-miterlimit="10" stroke-linecap="round" stroke-linejoin="round"/>
<path d="M471.401 267.113L462.048 289.247" stroke="#1D4941" stroke-width="1.44" stroke-miterlimit="10" stroke-linecap="round"/>
<path d="M546.682 336.502C546.682 336.502 539.78 365.217 539.417 366.671C538.691 373.94 542.323 386.299 535.058 414.287C547.408 416.104 543.413 425.918 534.332 425.918C508.542 425.918 515.443 409.562 519.439 398.294C521.255 393.205 518.713 387.753 514.717 384.118C510.721 380.483 506.363 369.215 509.632 362.672C512.901 356.857 520.529 358.311 524.524 353.949C524.888 353.585 524.161 329.232 524.524 328.505C528.883 321.962 547.408 334.321 546.682 336.502Z" fill="#F4A082"/>
<path d="M578.647 191.834C583.369 228.909 546.319 320.507 546.319 351.766C546.319 351.766 531.789 358.309 524.161 349.949C525.251 323.051 503.093 275.072 538.327 227.455C559.758 198.013 565.57 200.194 578.647 191.834Z" fill="#1F5148"/>
<path d="M531.212 232.37C531.212 232.37 514.978 259.455 518.414 293.247" stroke="#1D4941" stroke-width="1.75" stroke-miterlimit="10" stroke-linecap="round"/>
<path d="M348.354 144.219C343.269 148.581 316.026 259.807 324.744 264.169C333.825 268.53 421.728 225.276 421.728 225.276C421.728 225.276 419.912 176.206 419.912 163.484C414.827 162.757 408.652 215.098 408.652 215.098C408.652 215.098 355.619 235.09 352.713 237.634C349.807 240.179 365.426 173.661 368.696 168.573C369.785 163.484 353.803 140.221 348.354 144.219Z" fill="#F4A082"/>
<path d="M490.743 144.219C495.829 148.581 523.072 259.807 514.354 264.169C505.273 268.53 417.733 225.276 417.733 225.276C417.733 225.276 419.549 176.206 419.549 163.484C424.634 162.757 430.809 215.098 430.809 215.098C430.809 215.098 483.842 235.09 486.748 237.634C489.654 240.179 474.035 173.661 470.765 168.573C469.312 163.484 485.658 140.221 490.743 144.219Z" fill="#F4A082"/>
<path d="M419.549 226.003L419.912 162.03" stroke="#DB8C70" stroke-width="1.38" stroke-miterlimit="10" stroke-linecap="round" stroke-linejoin="round"/>
<path d="M424.634 269.983C424.634 271.8 423.544 273.254 422.455 273.254C421.365 273.254 420.639 271.437 420.639 269.619C420.639 267.802 421.728 266.348 422.818 266.348C423.908 266.348 424.997 267.802 424.634 269.983Z" fill="#DB8C70"/>
<path d="M360.341 292.883L392.669 309.24" stroke="#1D4941" stroke-width="1.44" stroke-miterlimit="10" stroke-linecap="round"/>
<path opacity="0.56" d="M565.358 428.564C565.378 430.466 442.779 433.34 291.408 434.916C140.04 436.492 17.4087 436.247 17.3881 434.268C17.3683 432.366 139.967 429.492 291.335 427.916C442.706 426.341 565.339 426.661 565.358 428.564Z" fill="black" fill-opacity="0.2"/>
</svg>
