<svg width="923" height="941" viewBox="0 0 923 941" fill="none" xmlns="http://www.w3.org/2000/svg">
<g opacity="0.1" clip-path="url(#clip0_23_227)">
<path d="M696.987 231.654C690.552 194.296 660.44 167.961 611.963 171.278C570.182 173.838 538.231 188.375 494.225 159.086C326.132 46.7299 262.681 164.472 258.509 256.483C252.707 388.623 210.523 406.521 165.866 468.394C134.68 511.726 113.338 549.665 120.88 607.509C131.96 693.969 205.853 736.48 278.825 729.176C314.804 725.621 353.333 716.14 377.288 712.08C441.507 701.19 465.782 707.067 548.329 717.751C709.4 735.504 779.919 620.794 708.141 513.153C646.703 421.073 641.615 415.557 673.039 336.747C686.704 303.61 704.457 274.427 696.987 231.654Z" fill="url(#paint0_linear_23_227)"/>
</g>
<g opacity="0.1" clip-path="url(#clip1_23_227)">
<path d="M673.998 210.976C664.151 174.37 631.742 150.919 583.776 158.684C542.409 165.08 511.932 182.496 465.416 157.384C287.692 60.98 235.351 184.064 239.667 276.068C246.055 408.181 205.699 429.887 166.927 495.608C139.863 541.627 122.105 581.37 134.94 638.274C153.932 723.347 231.426 758.874 303.416 744.883C338.914 738.031 376.407 725.043 399.887 718.795C462.83 702.038 487.543 705.656 570.723 708.695C732.744 711.544 792.403 590.828 711.021 490.253C641.366 404.22 635.792 399.196 659.827 317.828C670.383 283.574 685.373 252.88 673.998 210.976Z" fill="url(#paint1_linear_23_227)"/>
</g>
<defs>
<linearGradient id="paint0_linear_23_227" x1="198.066" y1="291.735" x2="724.577" y2="649.2" gradientUnits="userSpaceOnUse">
<stop stop-color="#1A7F72"/>
<stop offset="1" stop-color="#7ADBAE"/>
</linearGradient>
<linearGradient id="paint1_linear_23_227" x1="182.727" y1="316.735" x2="739.912" y2="624.209" gradientUnits="userSpaceOnUse">
<stop stop-color="#1A7F72"/>
<stop offset="1" stop-color="#7ADBAE"/>
</linearGradient>
<clipPath id="clip0_23_227">
<rect width="636.505" height="705.231" fill="white" transform="translate(396.132) rotate(34.1738)"/>
</clipPath>
<clipPath id="clip1_23_227">
<rect width="636.505" height="705.231" fill="white" transform="translate(353.093 8.00415) rotate(28.8914)"/>
</clipPath>
</defs>
</svg>
