<svg width="618" height="626" viewBox="0 0 618 626" fill="none" xmlns="http://www.w3.org/2000/svg">
<path opacity="0.1" d="M543.998 88.9762C534.151 52.3695 501.742 28.9186 453.776 36.6839C412.409 43.0804 381.932 60.4964 335.416 35.384C157.692 -61.02 105.351 62.0637 109.667 154.068C116.055 286.181 75.6988 307.887 36.9274 373.608C9.86319 419.627 -7.89506 459.37 4.94035 516.274C23.9324 601.347 101.426 636.874 173.416 622.883C208.914 616.031 246.407 603.043 269.887 596.795C332.83 580.038 357.543 583.656 440.723 586.695C602.744 589.544 662.403 468.828 581.02 368.253C511.366 282.22 505.792 277.196 529.827 195.828C540.383 161.574 555.373 130.88 543.998 88.9762Z" fill="url(#paint0_linear_17351_5)"/>
<defs>
<linearGradient id="paint0_linear_17351_5" x1="52.7265" y1="194.735" x2="609.912" y2="502.209" gradientUnits="userSpaceOnUse">
<stop stop-color="#1A7F72"/>
<stop offset="1" stop-color="#7ADBAE"/>
</linearGradient>
</defs>
</svg>
