<svg width="52" height="84" viewBox="0 0 52 84" fill="none" xmlns="http://www.w3.org/2000/svg">
<g opacity="0.06">
<path d="M4.06707 83.137C4.06707 83.137 -17.351 39.3291 51.0824 0.705673C51.0824 0.705673 58.6571 76.6565 4.06707 83.137Z" fill="url(#paint0_linear_42_74)"/>
<path opacity="0.08" d="M36.9779 64.4733C22.3509 57.9928 20.5225 39.0699 22.3508 21.7023C-10.2987 53.5861 4.0671 83.137 4.0671 83.137C19.4777 81.3224 29.9255 74.0643 36.9779 64.4733Z" fill="#1F5148"/>
<path opacity="0.8" d="M42.463 48.9201L21.3061 54.6229L35.1495 29.4788L47.1646 26.3682L35.9331 28.1827L40.1123 20.4062H40.3735V20.1469L46.9034 8.22292L40.3735 19.3693L39.0675 10.5559L39.3287 20.6654H39.5899L27.5748 40.8844L25.4853 23.5168L26.53 42.4397L11.6418 67.3246C11.6418 67.0654 11.6418 66.8062 11.6418 66.5469C11.3807 64.214 11.1195 60.8442 10.8583 57.7335C10.3359 51.2531 9.55228 44.7726 9.55228 44.7726C9.55228 44.7726 9.81347 51.2531 10.3359 57.7335C10.3359 60.8442 10.5971 64.214 10.5971 66.5469C10.5971 67.5838 10.5971 68.3615 10.5971 68.8799L2.76117 82.3592L5.37313 83.9146L20.7837 55.919L42.463 48.9201Z" fill="#1F5148"/>
</g>
<defs>
<linearGradient id="paint0_linear_42_74" x1="343.641" y1="56.4161" x2="-738.174" y2="6.05756" gradientUnits="userSpaceOnUse">
<stop stop-color="#41CBB9"/>
<stop offset="1" stop-color="#3EB29D"/>
</linearGradient>
</defs>
</svg>
