<svg width="43" height="51" viewBox="0 0 43 51" fill="none" xmlns="http://www.w3.org/2000/svg">
<path opacity="0.1" d="M18.1062 50.3607C21.8433 51.0061 25.022 49.7154 25.4086 47.4352C25.8381 45.1549 23.089 42.9177 19.3948 42.4015C18.1921 42.2294 16.9464 42.2724 15.7436 42.5736L7.83986 22.7829L21.4137 12.6295L29.3175 32.4201C28.8879 34.7003 31.5941 36.8085 35.3312 37.4538C39.0683 38.0992 42.247 36.8085 42.6336 34.5282C43.0632 32.248 40.314 30.0108 36.6199 29.4945C35.4171 29.3225 34.1714 29.3655 32.9687 29.6666L21.8862 1.87373C21.8433 1.78768 21.8433 1.70163 21.8003 1.61559C21.7574 1.52954 21.7144 1.44349 21.6715 1.35745C21.5856 1.2714 21.4567 1.14233 21.3708 1.09931L21.0701 0.884194L20.5976 0.755127L20.3398 0.841172L19.9103 1.01326L19.6526 1.14233L19.3948 1.2714L18.8794 1.48652L1.78318 14.2644C1.00998 14.8237 0.752249 15.8562 1.09589 16.7597L12.5649 45.4991C12.2213 47.6503 14.3691 49.7154 18.1062 50.3607Z" fill="#1A7F72"/>
</svg>
