<svg width="41" height="43" viewBox="0 0 41 43" fill="none" xmlns="http://www.w3.org/2000/svg">
<g opacity="0.15" filter="url(#filter0_d_23_5)">
<path d="M5.05966 26.0292C6.21945 28.6106 8.3672 29.9873 9.91359 29.299C11.46 28.6106 11.7177 25.9862 10.472 23.4909C10.0854 22.6734 9.52699 21.942 8.83971 21.2967L17.6885 8.13161L29.63 12.2188L20.7813 25.3839C19.2349 26.0722 19.0201 28.6536 20.2228 31.192C21.3826 33.7734 23.5304 35.1501 25.0768 34.4617C26.6232 33.7734 26.8809 31.149 25.6352 28.6536C25.2486 27.8362 24.6902 27.1048 24.0029 26.4594L36.4599 7.95952C36.5029 7.91649 36.5458 7.87347 36.5888 7.78742C36.6317 7.7444 36.6747 7.65835 36.7176 7.61533C36.7606 7.52928 36.7606 7.40022 36.7606 7.31417V7.05603L36.6747 6.71184L36.5029 6.58277L36.2022 6.36766L36.0304 6.23859L35.8585 6.10952L35.4719 5.98045L20.4376 0.81768C19.7503 0.602564 19.0201 0.8607 18.6335 1.42L5.74693 20.5653C4.2435 21.2536 3.89986 23.4478 5.05966 26.0292Z" fill="#7ADBAE"/>
</g>
<defs>
<filter id="filter0_d_23_5" x="0.367477" y="0.742188" width="40.3931" height="41.8958" filterUnits="userSpaceOnUse" color-interpolation-filters="sRGB">
<feFlood flood-opacity="0" result="BackgroundImageFix"/>
<feColorMatrix in="SourceAlpha" type="matrix" values="0 0 0 0 0 0 0 0 0 0 0 0 0 0 0 0 0 0 127 0" result="hardAlpha"/>
<feOffset dy="4"/>
<feGaussianBlur stdDeviation="2"/>
<feComposite in2="hardAlpha" operator="out"/>
<feColorMatrix type="matrix" values="0 0 0 0 0 0 0 0 0 0 0 0 0 0 0 0 0 0 0.25 0"/>
<feBlend mode="normal" in2="BackgroundImageFix" result="effect1_dropShadow_23_5"/>
<feBlend mode="normal" in="SourceGraphic" in2="effect1_dropShadow_23_5" result="shape"/>
</filter>
</defs>
</svg>
