<svg width="34" height="50" viewBox="0 0 34 50" fill="none" xmlns="http://www.w3.org/2000/svg">
<g opacity="0.15" filter="url(#filter0_d_23_6)">
<path d="M8.35643 0.846812C7.45437 0.11542 6.12277 0.287513 5.39253 1.191C4.87707 1.83634 4.79116 2.73983 5.17776 3.47122L17.8496 30.5327C16.8186 31.2211 15.9166 32.0816 15.2293 33.0711C13.0815 36.1257 12.8667 39.6536 14.7997 40.9013C16.7327 42.149 19.8255 40.7292 21.9303 37.5455C24.0351 34.3618 24.2928 30.963 22.3599 29.7153L12.2654 8.16074C13.8547 8.89213 23.8633 13.2375 25.3667 16.6363C25.9681 17.6258 27.2138 17.97 28.2447 17.4107C29.2756 16.8514 29.6193 15.5607 29.0609 14.5282C26.9561 10.1398 11.2774 3.17006 8.35643 0.846812Z" fill="#7ADBAE"/>
</g>
<defs>
<filter id="filter0_d_23_6" x="0.9375" y="0.390625" width="32.3894" height="48.9607" filterUnits="userSpaceOnUse" color-interpolation-filters="sRGB">
<feFlood flood-opacity="0" result="BackgroundImageFix"/>
<feColorMatrix in="SourceAlpha" type="matrix" values="0 0 0 0 0 0 0 0 0 0 0 0 0 0 0 0 0 0 127 0" result="hardAlpha"/>
<feOffset dy="4"/>
<feGaussianBlur stdDeviation="2"/>
<feComposite in2="hardAlpha" operator="out"/>
<feColorMatrix type="matrix" values="0 0 0 0 0 0 0 0 0 0 0 0 0 0 0 0 0 0 0.25 0"/>
<feBlend mode="normal" in2="BackgroundImageFix" result="effect1_dropShadow_23_6"/>
<feBlend mode="normal" in="SourceGraphic" in2="effect1_dropShadow_23_6" result="shape"/>
</filter>
</defs>
</svg>
