<svg width="618" height="617" viewBox="0 0 618 617" fill="none" xmlns="http://www.w3.org/2000/svg">
<path opacity="0.1" d="M577.987 118.654C571.552 81.2962 541.44 54.9612 492.963 58.2776C451.182 60.8384 419.231 75.3746 375.225 46.0864C207.132 -66.2701 143.681 51.4721 139.509 143.483C133.707 275.623 91.5234 293.521 46.866 355.394C15.68 398.726 -5.66177 436.665 1.88032 494.509C12.9596 580.969 86.8533 623.48 159.825 616.176C195.804 612.621 234.333 603.14 258.288 599.08C322.507 588.19 346.782 594.067 429.329 604.751C590.4 622.504 660.919 507.794 589.141 400.153C527.703 308.073 522.615 302.557 554.039 223.747C567.704 190.61 585.457 161.427 577.987 118.654Z" fill="url(#paint0_linear_23_183)"/>
<defs>
<linearGradient id="paint0_linear_23_183" x1="79.0659" y1="178.735" x2="605.577" y2="536.2" gradientUnits="userSpaceOnUse">
<stop stop-color="#1A7F72"/>
<stop offset="1" stop-color="#7ADBAE"/>
</linearGradient>
</defs>
</svg>
