<svg width="96" height="157" viewBox="0 0 96 157" fill="none" xmlns="http://www.w3.org/2000/svg">
<g opacity="0.06">
<path d="M6.48635 154.91C6.48635 154.91 -33.6683 72.7793 94.6307 0.368112C94.6307 0.368112 108.832 142.761 6.48635 154.91Z" fill="url(#paint0_linear_42_36)"/>
<path opacity="0.08" d="M68.1875 119.92C40.7648 107.77 37.337 72.2933 40.7648 39.7326C-20.4465 99.5083 6.48644 154.91 6.48644 154.91C35.3782 151.508 54.9658 137.901 68.1875 119.92Z" fill="#1F5148"/>
<path opacity="0.8" d="M78.4711 90.7607L38.8061 101.452L64.7597 54.3121L87.2855 48.4803L66.2288 51.8822L74.0639 37.3027H74.5535V36.8168L86.7958 14.4616L74.5535 35.3588L72.1051 18.8355L72.5948 37.7887H73.0845L50.5587 75.6953L46.6412 43.1345L48.5999 78.6112L20.6876 125.265C20.6876 124.779 20.6876 124.293 20.6876 123.807C20.1979 119.434 19.7082 113.116 19.2185 107.284C18.2391 95.1345 16.77 82.985 16.77 82.985C16.77 82.985 17.2597 95.1345 18.2391 107.284C18.2391 113.116 18.7288 119.434 18.7288 123.807C18.7288 125.751 18.7288 127.209 18.7288 128.181L4.03809 153.452L8.93499 156.368L37.8267 103.882L78.4711 90.7607Z" fill="#1F5148"/>
</g>
<defs>
<linearGradient id="paint0_linear_42_36" x1="643.12" y1="104.814" x2="-1385.07" y2="10.4018" gradientUnits="userSpaceOnUse">
<stop stop-color="#41CBB9"/>
<stop offset="1" stop-color="#3EB29D"/>
</linearGradient>
</defs>
</svg>
