<svg width="77" height="126" viewBox="0 0 77 126" fill="none" xmlns="http://www.w3.org/2000/svg">
<g opacity="0.06">
<path d="M5.35209 124.645C5.35209 124.645 -26.866 58.7473 76.0747 0.648201C76.0747 0.648201 87.4689 114.897 5.35209 124.645Z" fill="url(#paint0_linear_42_69)"/>
<path opacity="0.08" d="M54.8579 96.5703C32.8553 86.8221 30.105 58.3574 32.8553 32.2323C-16.2576 80.1933 5.3521 124.645 5.3521 124.645C28.5334 121.916 44.2495 110.998 54.8579 96.5703Z" fill="#1F5148"/>
<path opacity="0.8" d="M63.109 73.1745L31.2838 81.7529L52.1077 43.93L70.1812 39.2509L53.2864 41.9804L59.5728 30.2825H59.9657V29.8926L69.7883 11.956L59.9657 28.7228L58.0012 15.4653L58.3941 30.6725H58.787L40.7135 61.0868L37.5703 34.9617L39.1419 63.4263L16.7464 100.859C16.7464 100.469 16.7464 100.08 16.7464 99.6896C16.3535 96.1802 15.9606 91.1112 15.5677 86.4321C14.7819 76.6839 13.6032 66.9357 13.6032 66.9357C13.6032 66.9357 13.9961 76.6839 14.7819 86.4321C14.7819 91.1112 15.1748 96.1802 15.1748 99.6896C15.1748 101.249 15.1748 102.419 15.1748 103.199L3.38766 123.475L7.3167 125.815L30.498 83.7026L63.109 73.1745Z" fill="#1F5148"/>
</g>
<defs>
<linearGradient id="paint0_linear_42_69" x1="516.155" y1="84.4504" x2="-1111.16" y2="8.69874" gradientUnits="userSpaceOnUse">
<stop stop-color="#41CBB9"/>
<stop offset="1" stop-color="#3EB29D"/>
</linearGradient>
</defs>
</svg>
