<svg width="696" height="679" viewBox="0 0 696 679" fill="none" xmlns="http://www.w3.org/2000/svg">
<g opacity="0.5">
<path d="M627 383.035C615.377 383.571 598.695 382.605 578.355 379.495C557.692 376.384 533.262 371.128 507.002 362.868C500.437 360.83 493.764 358.47 486.984 355.896C483.648 354.608 480.204 353.214 476.868 351.819C473.532 350.318 470.088 348.816 466.644 347.314C452.761 341.414 437.371 337.124 421.335 336.051C413.371 335.515 405.407 335.729 397.551 336.587C396.582 336.695 395.614 336.802 394.645 336.909C393.676 337.016 392.708 337.124 391.739 337.338C389.802 337.66 387.973 337.982 386.035 338.304C384.206 338.733 382.269 339.162 380.439 339.591C378.609 340.02 376.78 340.556 374.95 341.093C374.089 341.307 373.121 341.629 372.26 341.843C371.399 342.165 370.43 342.487 369.569 342.702C368.708 343.023 367.74 343.345 366.879 343.56L365.587 343.989L364.296 344.525C360.852 345.812 357.408 347.207 354.072 348.494C352.35 349.138 350.735 349.781 349.014 350.425C347.292 351.069 345.677 351.712 344.063 352.463C340.834 353.858 337.606 355.145 334.377 356.539C321.57 361.903 309.624 367.052 298.001 371.128C286.593 375.848 275.4 378.207 265.069 379.28C259.903 379.709 254.952 379.816 250.217 379.495C245.589 379.173 241.177 378.422 237.195 377.349C229.231 375.204 222.989 371.45 218.684 367.588C214.379 363.726 211.904 359.865 210.289 357.183C209.428 355.896 208.998 354.823 208.675 354.072C208.352 353.321 208.137 352.999 208.137 352.999C208.137 352.999 208.245 353.428 208.567 354.072C208.89 354.823 209.321 355.896 210.074 357.29C211.473 359.972 213.949 363.941 218.253 368.017C220.406 369.948 223.096 371.986 226.217 373.809C229.338 375.526 232.998 377.135 236.98 378.315C240.962 379.495 245.482 380.246 250.217 380.675C254.952 381.104 260.011 380.996 265.176 380.567C270.45 380.138 275.831 379.28 281.427 377.993C284.225 377.349 287.024 376.598 289.929 375.633C292.727 374.668 295.526 373.595 298.431 372.522C310.055 368.446 322.216 363.297 334.915 358.041C338.144 356.754 341.372 355.359 344.601 353.965C346.215 353.214 347.937 352.678 349.552 352.034C351.166 351.39 352.888 350.747 354.61 350.103C357.946 348.816 361.39 347.529 364.834 346.241L366.125 345.705L367.417 345.276C368.278 344.954 369.139 344.74 370 344.418C370.861 344.096 371.722 343.882 372.69 343.56C373.551 343.238 374.52 343.023 375.381 342.809C377.21 342.38 378.932 341.736 380.87 341.307C382.699 340.878 384.529 340.449 386.358 340.02C388.188 339.698 390.125 339.376 391.955 339.054C392.923 338.84 393.892 338.733 394.753 338.625L397.658 338.304C405.3 337.445 413.156 337.231 421.12 337.767C436.94 338.733 452.115 343.023 465.891 348.816C469.334 350.318 472.778 351.819 476.115 353.321C479.558 354.823 482.895 356.11 486.339 357.397C493.119 359.972 499.791 362.332 506.464 364.37C532.939 372.629 557.476 377.671 578.14 380.675C598.48 383.678 615.269 384.322 627 383.571V383.035Z" fill="#FF706E"/>
<path d="M627 369.733H626.892C615.377 370.27 598.695 368.661 578.355 364.906C558.015 361.152 534.123 355.252 508.078 346.992C501.621 344.954 494.948 342.702 488.276 340.234C486.554 339.591 484.94 339.054 483.218 338.411C481.496 337.767 479.881 337.124 478.159 336.48C474.715 335.193 471.379 333.691 467.935 332.404C454.052 326.826 438.77 323.179 422.842 322.428C414.878 321.999 407.022 322.428 399.38 323.393C391.739 324.359 384.313 326.075 377.103 328.113C362.681 332.082 349.444 338.196 337.39 344.525C325.229 350.854 313.929 357.183 302.736 361.795C299.938 362.975 297.14 363.941 294.449 365.013C291.759 366.086 288.961 366.944 286.27 367.695C280.889 369.304 275.616 370.484 270.557 371.342C260.441 372.951 250.97 372.951 243.006 371.342C235.042 369.733 228.585 366.408 224.065 362.975C219.545 359.543 216.531 356.11 214.702 353.643C213.733 352.463 213.088 351.498 212.657 350.854C212.227 350.21 211.904 349.889 211.904 349.889C211.904 349.889 212.119 350.21 212.442 350.961C212.872 351.605 213.41 352.678 214.379 353.857C216.101 356.325 219.007 359.864 223.634 363.512C228.262 367.051 234.719 370.484 242.791 372.308C250.863 374.131 260.441 374.131 270.773 372.629C275.939 371.879 281.212 370.591 286.701 369.09C289.391 368.339 292.189 367.481 294.988 366.408C297.786 365.335 300.584 364.37 303.382 363.19C314.682 358.577 326.09 352.248 338.144 346.027C350.197 339.698 363.327 333.798 377.533 329.829C384.636 327.791 392.062 326.182 399.596 325.217C407.129 324.251 414.878 323.93 422.734 324.251C438.447 325.002 453.514 328.649 467.182 334.013C470.626 335.3 474.07 336.802 477.406 338.089C479.128 338.733 480.85 339.376 482.464 340.02C484.186 340.663 485.8 341.307 487.522 341.843C494.303 344.311 500.975 346.456 507.432 348.494C533.584 356.646 557.584 362.439 577.924 366.086C598.265 369.626 615.162 371.02 626.677 370.27H626.785V369.733H627Z" fill="#FF706E"/>
<path d="M627 356.861C626.785 356.861 626.569 356.861 626.354 356.861C620.65 357.075 613.655 356.861 605.583 356.003C597.512 355.145 588.364 353.643 578.355 351.498C568.346 349.352 557.369 346.778 545.853 343.452C534.23 340.234 521.961 336.373 509.154 331.975C502.805 329.722 496.347 327.255 489.782 324.466C483.218 321.677 476.33 319.21 469.227 317.064C462.124 314.919 454.805 313.095 447.272 311.701C439.738 310.306 431.99 309.341 424.133 309.019C416.277 308.697 408.421 309.126 400.887 310.306C393.246 311.486 385.928 313.632 379.04 316.099C377.318 316.635 375.596 317.279 373.874 318.03C372.152 318.673 370.43 319.317 368.816 320.068C365.48 321.462 362.143 322.857 358.915 324.359C357.3 325.109 355.686 325.86 354.072 326.611C352.457 327.362 350.951 328.22 349.336 328.971C346.215 330.473 343.202 332.082 340.189 333.691C334.162 336.802 328.458 340.127 322.754 343.131C317.05 346.134 311.454 348.816 305.965 351.283C294.988 356.11 284.333 359.757 274.324 362.01C264.315 364.262 255.06 364.906 246.988 364.048C243.006 363.619 239.24 362.761 236.011 361.795C234.397 361.152 232.782 360.723 231.383 359.972C230.63 359.65 229.984 359.328 229.231 359.006C228.585 358.685 227.939 358.255 227.294 357.934C222.343 355.145 219.114 352.034 216.962 349.889C215.886 348.816 215.24 347.85 214.702 347.314C214.164 346.778 213.949 346.456 213.841 346.456C213.841 346.456 214.056 346.778 214.487 347.421C214.917 348.065 215.67 348.923 216.639 350.103C218.684 352.356 221.913 355.574 226.863 358.577C227.509 358.899 228.155 359.328 228.8 359.65C229.446 359.972 230.199 360.294 230.953 360.615C232.352 361.366 233.966 361.903 235.688 362.546C239.024 363.619 242.791 364.477 246.881 365.013C255.06 365.872 264.531 365.335 274.539 363.19C284.656 361.044 295.418 357.397 306.503 352.677C312.099 350.318 317.696 347.529 323.4 344.525C329.104 341.522 334.808 338.304 340.834 335.085C343.848 333.584 346.861 331.867 349.982 330.366C351.489 329.615 353.103 328.864 354.717 328.006C356.332 327.255 357.946 326.504 359.56 325.753C362.789 324.251 366.018 322.857 369.354 321.462C370.968 320.711 372.69 320.175 374.412 319.532C376.134 318.888 377.856 318.244 379.578 317.708C386.466 315.241 393.676 313.203 401.21 312.023C408.636 310.843 416.385 310.414 424.133 310.736C431.882 311.057 439.523 312.023 447.057 313.31C454.483 314.597 461.801 316.421 468.796 318.566C475.792 320.711 482.679 323.071 489.137 325.86C495.702 328.649 502.267 331.117 508.616 333.369C521.423 337.874 533.8 341.522 545.423 344.74C557.046 347.958 568.023 350.532 578.14 352.57C588.256 354.608 597.404 356.003 605.583 356.754C613.763 357.612 620.758 357.719 626.569 357.29C626.785 357.29 627 357.29 627.215 357.29V356.861H627Z" fill="#FF706E"/>
<path d="M627 343.131C626.892 343.131 626.785 343.131 626.677 343.131C626.031 343.131 625.278 343.238 624.632 343.238C613.332 343.989 596.758 341.951 576.956 337.445C557.046 333.047 533.8 326.075 508.293 317.386C501.944 315.134 495.379 312.988 488.814 310.521C482.141 308.054 475.469 305.587 468.581 303.119C454.698 297.971 439.416 295.182 423.703 295.289C415.846 295.289 408.098 296.04 400.672 297.22C396.905 297.863 393.246 298.614 389.587 299.365C387.757 299.794 385.928 300.223 384.098 300.76C382.269 301.189 380.547 301.832 378.825 302.369C371.722 304.514 365.157 307.41 358.592 310.306C352.242 313.31 346 316.528 340.189 319.961C338.682 320.819 337.283 321.677 335.776 322.428C334.377 323.286 332.978 324.144 331.579 325.002C328.781 326.719 326.09 328.435 323.4 330.258C320.709 331.975 318.126 333.691 315.436 335.3C312.853 336.909 310.162 338.518 307.579 339.913C297.14 345.812 287.024 350.425 277.338 353.536C267.652 356.646 258.504 358.255 250.54 358.148C246.558 358.041 242.791 357.612 239.455 356.861C236.119 356.003 233.213 354.93 230.63 353.75C229.338 353.107 228.155 352.463 227.078 351.819C226.002 351.068 225.034 350.532 224.173 349.889C223.312 349.245 222.558 348.601 221.805 348.065C221.159 347.421 220.513 346.885 219.975 346.349C219.437 345.812 219.007 345.383 218.576 344.954C218.146 344.525 217.823 344.203 217.608 343.881C217.07 343.345 216.747 343.023 216.747 343.023C216.747 343.023 216.962 343.345 217.5 343.989C217.715 344.311 218.038 344.632 218.469 345.061C218.792 345.491 219.222 346.027 219.76 346.563C220.298 347.1 220.944 347.636 221.59 348.387C222.343 349.03 223.096 349.674 223.957 350.318C224.818 351.068 225.787 351.605 226.863 352.356C227.939 352.999 229.123 353.75 230.415 354.394C232.998 355.681 236.011 356.861 239.347 357.719C242.791 358.577 246.558 359.114 250.647 359.221C258.827 359.435 268.082 357.934 277.876 354.823C287.669 351.712 297.893 347.1 308.44 341.307C311.023 339.805 313.714 338.304 316.404 336.695C319.095 335.085 321.678 333.369 324.368 331.653C327.059 329.937 329.749 328.22 332.547 326.504C333.947 325.646 335.346 324.788 336.745 323.93C338.144 323.071 339.65 322.321 341.05 321.462C346.861 318.137 352.996 315.026 359.345 312.023C365.802 309.234 372.367 306.338 379.363 304.192C381.085 303.656 382.807 303.012 384.636 302.583C386.466 302.154 388.188 301.618 390.017 301.296C393.676 300.438 397.336 299.794 400.995 299.151C408.421 297.971 416.062 297.327 423.81 297.327C439.308 297.22 454.375 300.009 468.043 305.05C474.931 307.517 481.711 309.985 488.383 312.452C495.056 314.812 501.621 317.064 507.97 319.21C533.584 327.791 556.938 334.656 576.848 338.947C596.758 343.238 613.44 345.169 624.847 344.203C625.601 344.203 626.247 344.096 626.892 344.096C627 344.096 627.108 344.096 627.215 344.096V343.131H627Z" fill="#FF706E"/>
<path d="M627 329.937C626.139 330.044 625.386 330.151 624.417 330.258C618.821 330.688 611.825 330.58 603.861 329.508C595.897 328.542 586.857 326.826 577.064 324.466C557.369 319.746 534.338 312.237 509.154 303.334C502.805 301.081 496.347 298.829 489.783 296.469C486.446 295.289 483.11 294.109 479.666 293.036C476.222 291.964 472.778 290.784 469.119 290.033C454.806 286.815 439.631 284.777 424.133 284.884C408.636 284.991 393.354 287.244 379.47 292.071C365.587 296.898 352.996 303.441 341.48 310.199C338.574 311.916 335.776 313.632 332.978 315.348C330.18 317.064 327.489 318.781 324.799 320.497C319.418 323.93 314.359 327.362 309.194 330.366C299.077 336.48 289.176 341.736 279.813 345.491C270.45 349.245 261.517 351.498 253.553 352.034C249.571 352.249 245.805 352.141 242.468 351.605C239.132 351.069 236.119 350.21 233.536 349.138C232.244 348.601 231.06 347.958 229.984 347.421C228.908 346.778 227.832 346.241 226.971 345.598C226.11 344.954 225.249 344.418 224.495 343.882C223.85 343.238 223.204 342.702 222.558 342.273C222.02 341.843 221.482 341.307 221.159 340.985C220.729 340.556 220.406 340.234 220.191 340.02C219.652 339.484 219.33 339.269 219.33 339.269C219.33 339.269 219.545 339.591 220.083 340.127C220.298 340.449 220.621 340.771 221.052 341.2C221.482 341.629 221.913 342.165 222.451 342.594C222.989 343.131 223.634 343.667 224.28 344.311C225.034 344.847 225.787 345.491 226.648 346.134C227.509 346.778 228.585 347.314 229.661 348.065C230.737 348.709 232.029 349.245 233.32 349.889C235.903 351.069 239.024 351.927 242.468 352.57C245.912 353.107 249.679 353.321 253.769 353.107C261.948 352.678 270.988 350.425 280.459 346.671C289.929 342.916 299.938 337.875 310.162 331.653C315.328 328.649 320.494 325.217 325.767 321.784C328.458 320.068 331.148 318.352 333.947 316.635C336.745 314.919 339.543 313.203 342.449 311.594C353.964 304.836 366.556 298.4 380.224 293.68C393.892 288.96 408.959 286.815 424.349 286.707C439.739 286.6 454.806 288.531 469.012 291.749C472.563 292.5 476.007 293.573 479.343 294.645C482.787 295.718 486.123 296.898 489.352 298.078C496.025 300.438 502.482 302.69 508.832 304.943C534.123 313.846 557.261 321.141 577.064 325.753C586.965 328.006 596.005 329.722 604.077 330.58C612.148 331.438 619.144 331.546 624.848 331.009C625.709 330.902 626.57 330.795 627.323 330.688V329.937H627Z" fill="#FF706E"/>
<path d="M393.354 308.268C393.246 308.161 393.138 308.268 392.923 308.268C392.815 308.268 392.708 308.376 392.493 308.376C392.385 308.376 392.17 308.483 391.955 308.483C391.201 308.698 390.34 308.59 389.156 308.161C387.219 307.518 385.174 306.445 383.991 308.805C383.56 309.77 383.452 310.521 383.345 311.916C383.345 313.846 383.452 316.206 383.775 318.137C383.883 318.995 383.991 319.853 383.991 320.819C383.991 321.033 384.098 322.964 383.991 323.501C383.668 323.179 382.269 322.857 381.515 322.964C380.116 323.071 378.932 323.715 378.502 323.93C377.641 324.466 377.103 325.539 377.426 326.719C377.748 327.791 378.609 328.435 379.793 328.435C380.009 328.435 380.116 328.435 380.331 328.435C381.192 328.328 382.161 328.113 383.022 327.791C385.928 326.397 385.605 322.535 385.282 319.853C385.174 318.244 384.959 316.635 384.744 315.026C384.636 313.632 384.852 313.096 386.251 313.096C387.327 313.096 388.403 313.31 389.479 313.203C390.34 313.096 391.309 312.774 391.955 312.237C392.6 311.701 392.923 310.95 393.031 310.307C393.461 309.448 393.354 308.268 393.354 308.268Z" fill="#477E7F"/>
<path d="M310.916 362.761C311.777 364.37 314.144 364.263 315.651 363.297C316.404 362.868 317.48 362.224 317.911 361.581C318.664 360.508 318.234 359.328 318.126 358.148C317.911 356.539 317.373 354.608 316.942 352.999C316.297 350.639 315.759 348.494 315.328 346.992C315.113 346.241 315.005 345.598 315.005 345.169C314.898 344.74 315.005 344.632 315.005 344.525C315.005 344.525 314.898 344.525 314.79 344.632C314.682 344.74 314.575 344.954 314.575 345.169C314.467 345.705 314.467 346.349 314.575 347.1C314.682 348.709 315.22 350.961 315.866 353.321C316.189 354.823 317.05 356.646 317.05 358.148C315.758 358.255 314.252 358.47 313.068 358.899C311.884 359.328 310.808 360.401 310.916 361.688C310.7 362.117 310.808 362.439 310.916 362.761Z" fill="#325F62"/>
<path d="M334.485 331.975C333.408 330.58 331.041 331.224 329.749 332.297C329.104 332.833 328.243 333.691 327.92 334.442C327.382 335.729 328.027 336.695 328.458 337.875C328.996 339.376 329.965 341.2 330.61 342.702C331.686 344.954 332.655 346.885 333.408 348.28C333.731 349.031 333.947 349.567 334.162 349.996C334.269 350.425 334.269 350.532 334.377 350.64C334.377 350.64 334.485 350.64 334.592 350.532C334.7 350.425 334.7 350.21 334.7 349.996C334.7 349.46 334.592 348.816 334.377 348.065C333.947 346.456 332.978 344.418 331.902 342.273C331.256 340.878 330.072 339.269 329.857 337.767C331.041 337.446 332.547 336.909 333.624 336.266C334.7 335.515 335.561 334.442 335.238 333.048C334.808 332.511 334.7 332.189 334.485 331.975Z" fill="#477E7F"/>
<path d="M253.769 349.245C252.585 346.242 250.432 343.667 247.742 342.165C245.051 340.664 242.038 340.127 239.24 340.342C237.841 340.449 236.549 340.771 235.258 341.2C234.074 341.736 232.89 342.38 231.921 343.238C230.845 344.203 230.092 345.383 229.661 346.563V346.671V346.778C229.554 347.1 229.338 347.421 229.338 347.958C229.231 348.387 229.123 349.031 229.123 349.567C229.123 350.747 229.446 352.356 230.415 353.643C230.63 353.965 230.953 354.287 231.276 354.608C231.598 354.823 232.029 355.145 232.459 355.359C233.32 355.788 234.181 356.003 235.258 356.003C236.226 356.003 237.302 355.574 238.056 355.038C238.809 354.501 239.347 353.643 239.455 352.785C239.67 351.819 239.455 350.961 239.132 350.318C238.701 349.674 238.163 349.138 237.625 348.816C236.441 348.172 233.536 348.494 232.89 348.601C232.244 348.709 232.782 346.456 233.32 345.598C234.935 343.345 237.302 342.273 239.885 341.951C244.836 341.414 251.078 344.954 252.154 350.103C253.23 354.93 251.293 360.401 246.773 363.834C245.159 365.121 243.114 365.979 241.392 366.73C239.67 367.588 237.948 368.232 236.334 368.661C233.966 369.304 231.598 369.948 229.338 370.591C228.047 370.913 227.186 371.021 227.078 372.522C227.078 373.059 227.078 373.488 227.186 373.917C227.294 374.668 227.509 375.204 227.724 375.633C227.724 375.74 227.832 375.955 228.047 376.062C228.047 376.062 228.155 376.062 228.155 376.169H228.262C228.37 376.277 228.477 376.277 228.693 376.277C229.123 376.384 229.661 376.277 230.199 376.277C232.459 376.169 235.796 375.526 239.67 374.024C241.607 373.273 243.652 372.308 245.697 371.021C247.742 369.733 249.894 368.124 251.616 365.979C254.952 362.01 256.244 355.252 253.769 349.245Z" fill="#325F62"/>
<path d="M263.239 349.567C261.948 349.138 260.333 349.674 260.011 351.605C259.688 354.93 263.132 355.145 264.208 353.429C265.284 351.605 264.531 349.996 263.239 349.567Z" fill="#325F62"/>
<path d="M263.454 358.47C262.163 358.041 260.549 358.577 260.226 360.508C259.795 363.834 263.347 364.048 264.423 362.332C265.499 360.508 264.746 358.899 263.454 358.47Z" fill="#325F62"/>
<path d="M363.65 295.182C363.327 295.289 362.574 295.718 361.498 296.147C360.744 296.469 359.883 296.684 358.807 297.005C357.731 297.22 356.547 297.542 355.363 297.863C352.996 298.614 350.843 299.473 349.336 300.438C348.798 300.76 346.753 301.725 346.753 302.369C346.753 302.905 347.076 303.763 347.292 304.514C347.722 306.123 348.691 308.161 349.659 310.414C350.52 312.13 351.274 313.739 351.812 315.134C350.951 315.026 350.09 315.241 349.229 315.67C347.937 316.314 347.076 317.279 346.753 317.708C346.108 318.459 346.108 319.746 346.753 320.604C347.399 321.463 348.475 321.784 349.552 321.355C349.659 321.248 349.875 321.248 349.982 321.141C350.735 320.712 353.211 319.317 353.318 317.172C353.426 315.992 352.78 314.919 352.35 313.846C351.812 312.452 351.274 311.165 350.628 309.878C350.413 309.341 349.444 306.981 349.229 306.552C349.659 306.338 350.197 306.123 350.951 305.694C352.35 304.943 354.395 303.978 356.762 303.227C357.946 302.905 359.13 302.583 360.206 302.261C361.282 301.94 362.251 301.511 363.004 301.082C363.65 300.652 364.188 300.331 364.511 300.009C365.049 301.082 366.341 304.192 366.879 305.372C368.063 307.839 369.246 310.092 370 311.808C369.139 311.808 368.385 311.916 367.524 312.345C366.233 312.988 365.372 313.954 365.049 314.383C364.403 315.134 364.403 316.421 365.049 317.386C365.695 318.244 366.771 318.566 367.847 318.137C367.955 318.03 368.17 318.03 368.385 317.923C369.139 317.494 370 316.957 370.538 316.314C372.475 314.168 371.829 313.096 370 309.019C369.354 307.625 368.816 306.23 368.063 304.836C366.771 302.154 365.695 299.902 364.834 298.078C364.403 297.22 363.865 295.933 363.65 295.182C363.865 295.075 363.758 295.075 363.65 295.182Z" fill="#325F62"/>
<path d="M295.31 336.373C294.988 336.48 294.234 336.909 293.158 337.231C292.405 337.445 291.544 337.66 290.467 337.874C289.391 338.089 288.207 338.304 287.024 338.625C284.548 339.269 282.396 340.02 280.889 340.878C280.351 341.2 278.306 342.058 278.199 342.702C278.199 343.238 278.414 344.096 278.629 344.954C279.06 346.563 279.813 348.709 280.674 350.961C281.427 352.785 282.073 354.394 282.611 355.788C281.75 355.681 280.889 355.788 280.028 356.217C278.737 356.754 277.768 357.719 277.445 358.041C276.692 358.792 276.692 360.079 277.338 360.937C277.983 361.903 279.06 362.224 280.136 361.795C280.243 361.688 280.459 361.688 280.674 361.581C281.427 361.259 283.903 359.972 284.225 357.826C284.333 356.646 283.795 355.574 283.472 354.501C283.042 353.107 282.503 351.819 281.965 350.425C281.75 349.889 281.535 349.459 281.32 348.923C281.75 348.816 282.288 348.494 283.042 348.172C284.548 347.529 286.593 346.563 288.961 346.027C290.145 345.705 291.328 345.49 292.405 345.169C293.481 344.954 294.449 344.525 295.203 344.203C295.956 343.881 296.387 343.452 296.817 343.131C297.248 344.203 297.786 345.49 298.324 346.778C299.4 349.352 300.369 351.605 301.122 353.321C300.261 353.214 299.508 353.428 298.539 353.75C297.248 354.287 296.279 355.252 295.956 355.574C295.203 356.325 295.203 357.612 295.849 358.577C296.494 359.543 297.57 359.864 298.647 359.435C298.754 359.328 298.97 359.328 299.185 359.221C300.046 358.899 300.799 358.363 301.445 357.719C303.49 355.681 302.952 354.608 301.23 350.425C300.691 349.03 300.153 347.636 299.508 346.241C298.324 343.452 297.463 341.092 296.709 339.376C296.279 338.518 295.849 337.124 295.633 336.373C295.418 336.265 295.31 336.265 295.31 336.373Z" fill="#477E7F"/>
<path d="M421.443 305.479C421.12 303.763 418.645 303.227 417.03 303.656C416.169 303.87 414.986 304.192 414.34 304.729C413.264 305.587 413.371 306.767 413.264 308.054C413.048 309.663 413.048 311.701 412.941 313.31C412.833 315.777 412.941 317.923 412.833 319.532C412.833 320.282 412.726 320.926 412.726 321.355C412.618 321.784 412.51 321.892 412.618 321.999C412.618 321.999 412.726 321.999 412.833 321.999C412.941 321.892 413.156 321.784 413.264 321.57C413.479 321.141 413.694 320.497 413.802 319.639C414.125 318.03 414.232 315.777 414.34 313.31C414.34 311.808 414.125 309.77 414.555 308.376C415.847 308.59 417.246 308.805 418.537 308.698C419.829 308.59 421.12 307.947 421.443 306.552C421.443 306.123 421.443 305.801 421.443 305.479Z" fill="#325F62"/>
<path d="M442.859 295.074C442.537 293.358 440.061 292.822 438.447 293.251C437.586 293.465 436.402 293.787 435.757 294.324C434.68 295.182 434.788 296.362 434.68 297.649C434.465 299.258 434.465 301.296 434.357 302.905C434.25 305.372 434.357 307.518 434.25 309.127C434.25 309.877 434.142 310.521 434.142 310.95C434.035 311.379 433.927 311.487 434.035 311.594C434.035 311.594 434.142 311.594 434.25 311.594C434.357 311.487 434.573 311.379 434.68 311.165C434.896 310.736 435.111 310.092 435.218 309.234C435.541 307.625 435.649 305.372 435.757 302.905C435.757 301.403 435.541 299.365 435.972 297.971C437.263 298.185 438.662 298.4 439.954 298.292C441.245 298.185 442.537 297.542 442.859 296.147C442.967 295.718 442.967 295.396 442.859 295.074Z" fill="#477E7F"/>
<path d="M467.182 310.95C467.074 310.843 466.967 310.95 466.751 310.95C466.644 310.95 466.536 311.057 466.321 311.057C466.213 311.057 465.998 311.165 465.783 311.165C465.03 311.379 464.169 311.272 462.985 310.843C461.048 310.199 459.003 309.127 457.819 311.486C457.388 312.452 457.281 313.203 457.173 314.597C457.173 316.528 457.281 318.888 457.604 320.819C457.711 321.677 457.819 322.535 457.819 323.5C457.819 323.715 457.927 325.646 457.819 326.182C457.496 325.86 456.097 325.539 455.344 325.646C453.945 325.753 452.761 326.397 452.33 326.611C451.469 327.148 450.931 328.22 451.254 329.4C451.577 330.473 452.438 331.117 453.622 331.117C453.729 331.117 453.945 331.117 454.16 331.117C455.021 331.009 455.989 330.795 456.85 330.473C459.756 329.078 459.433 325.217 459.11 322.535C459.003 320.926 458.787 319.317 458.572 317.708C458.465 316.314 458.68 315.777 460.079 315.777C461.155 315.777 462.231 315.992 463.308 315.884C464.169 315.777 465.137 315.455 465.783 314.919C466.429 314.383 466.751 313.632 466.859 312.988C467.29 312.237 467.29 311.057 467.182 310.95Z" fill="#325F62"/>
<path d="M504.634 324.788C504.527 323.715 503.666 322.857 502.482 322.75C502.374 322.75 502.159 322.75 501.944 322.75C501.083 322.75 498.285 322.75 497.101 324.573C496.455 325.539 496.455 326.826 496.347 327.899C496.132 329.293 495.917 336.587 495.809 337.982C495.809 338.518 495.702 341.522 495.702 342.058C495.271 341.951 494.625 341.951 493.872 341.951C492.258 341.951 489.998 341.844 487.63 341.307C486.446 341.093 485.262 340.771 484.186 340.556C483.11 340.342 482.034 340.235 481.173 340.235C480.527 340.235 479.989 340.342 479.558 340.449C479.666 338.196 479.774 333.584 479.989 332.082C480.635 332.511 481.496 332.726 482.464 332.833C483.863 332.94 485.155 332.511 485.585 332.297C486.554 331.975 487.2 330.795 486.984 329.722C486.877 328.65 486.016 327.791 484.832 327.684C484.724 327.684 484.509 327.684 484.294 327.684C483.433 327.684 482.464 327.684 481.603 328.006C478.913 328.864 478.913 330.151 478.59 334.657C478.482 336.158 478.375 337.66 478.267 339.162C477.837 342.38 477.514 344.847 477.514 345.062C477.621 345.169 477.514 345.169 478.052 345.276C478.482 345.383 478.913 345.276 479.989 345.491C480.742 345.598 481.603 345.705 482.679 345.812C483.756 345.92 484.832 346.242 486.123 346.563C488.599 347.1 490.859 347.314 492.581 347.207C493.119 347.207 496.025 347.314 496.347 346.778C496.563 346.349 496.563 345.705 496.67 344.847C496.885 343.238 496.993 340.771 497.208 338.411C497.316 336.48 497.531 328.864 497.746 327.47C498.5 327.899 499.361 328.22 500.222 328.22C501.621 328.328 502.912 327.899 503.343 327.684C504.204 327.04 504.742 325.968 504.634 324.788Z" fill="#477E7F"/>
<path d="M473.532 305.908C473.747 307.625 476.007 308.483 477.729 308.161C478.59 308.054 479.774 307.839 480.527 307.41C481.603 306.659 481.711 305.479 481.926 304.299C482.249 302.69 482.572 300.76 482.787 299.043C483.11 296.576 483.325 294.431 483.54 292.822C483.648 292.071 483.756 291.427 483.863 290.998C483.971 290.569 484.079 290.462 484.079 290.355C484.079 290.355 483.971 290.247 483.863 290.355C483.756 290.462 483.54 290.569 483.433 290.784C483.11 291.213 482.895 291.856 482.679 292.607C482.249 294.216 481.819 296.362 481.496 298.829C481.28 300.331 481.388 302.369 480.742 303.763C479.558 303.441 478.052 303.012 476.76 303.012C475.469 303.012 474.177 303.549 473.639 304.836C473.532 305.265 473.424 305.587 473.532 305.908Z" fill="#325F62"/>
<path d="M533.907 318.888C533.8 318.781 533.692 318.888 533.477 318.888C533.369 318.888 533.262 318.995 533.046 318.995C532.939 318.995 532.723 319.103 532.508 319.103C531.755 319.317 530.894 319.21 529.71 318.781C527.773 318.137 525.728 317.065 524.544 319.424C524.114 320.39 524.006 321.141 523.899 322.535C523.899 324.466 524.006 326.826 524.329 328.757C524.437 329.615 524.544 330.473 524.544 331.438C524.544 331.653 524.652 333.584 524.544 334.12C524.221 333.798 522.822 333.477 522.069 333.584C520.67 333.691 519.486 334.335 519.056 334.549C518.195 335.086 517.657 336.158 517.979 337.338C518.302 338.411 519.163 339.055 520.347 339.055C520.455 339.055 520.67 339.055 520.885 339.055C521.746 338.947 522.715 338.733 523.576 338.411C526.481 337.016 526.159 333.155 525.836 330.473C525.728 328.864 525.513 327.255 525.298 325.646C525.19 324.251 525.405 323.715 526.804 323.715C527.881 323.715 528.957 323.93 530.033 323.822C530.894 323.715 531.863 323.393 532.508 322.857C533.154 322.321 533.477 321.57 533.584 320.926C534.015 320.068 533.907 318.888 533.907 318.888Z" fill="#477E7F"/>
<path d="M501.836 182.073C501.621 182.394 501.298 182.931 500.975 183.36C500.652 183.896 500.329 184.54 499.791 185.183C497.962 187.972 494.948 191.727 490.321 195.91C489.137 196.983 487.845 197.948 486.554 199.021C485.801 199.557 485.155 200.094 484.401 200.523C484.079 200.737 483.648 201.059 483.325 201.274C482.895 201.488 482.572 201.81 482.141 202.025C479.02 204.17 475.254 206.101 471.272 207.924C463.2 211.572 453.406 214.575 442.429 216.399C431.344 218.222 419.075 218.866 405.945 217.793C399.38 217.257 392.6 216.291 385.82 214.682C384.098 214.253 382.376 213.824 380.654 213.395C378.932 212.859 377.21 212.43 375.489 211.893C372.045 210.821 368.601 209.533 365.157 208.246C351.166 203.312 336.422 198.056 320.709 193.872C304.996 189.689 288.53 186.578 271.418 184.54C254.307 182.716 237.41 183.038 221.267 184.325C205.124 185.613 189.626 188.402 175.205 192.37C160.784 196.232 147.438 200.737 135.062 205.564C122.686 210.392 111.493 215.433 101.484 220.582C96.964 223.049 92.8744 225.302 89 227.662V229.056C93.0896 226.696 97.3945 224.336 102.022 221.977C112.031 216.935 123.224 211.893 135.6 207.174C147.977 202.454 161.322 198.056 175.635 194.194C189.949 190.225 205.231 187.651 221.374 186.363C237.41 185.076 254.199 184.754 271.203 186.578C288.207 188.616 304.674 191.62 320.171 195.803C335.776 199.987 350.413 205.135 364.511 210.07C368.063 211.25 371.399 212.537 374.95 213.717C376.672 214.36 378.394 214.79 380.116 215.219C381.838 215.648 383.56 216.077 385.282 216.506C392.17 218.008 399.058 218.973 405.623 219.509C418.86 220.582 431.344 219.831 442.429 217.9C453.514 215.97 463.415 212.859 471.487 209.104C475.577 207.174 479.236 205.135 482.357 202.99C482.787 202.775 483.11 202.454 483.541 202.239C483.971 201.917 484.294 201.703 484.617 201.381C485.37 200.845 486.123 200.308 486.769 199.772C488.061 198.592 489.46 197.627 490.536 196.554C495.164 192.263 498.177 188.294 499.899 185.505C500.329 184.862 500.76 184.218 500.975 183.574C501.298 183.038 501.513 182.609 501.729 182.18C502.159 181.429 502.267 181 502.267 181C502.59 181 502.267 181.322 501.836 182.073Z" fill="#82BAB0"/>
<path d="M501.944 189.689C501.729 190.011 501.406 190.547 501.083 190.976C500.76 191.512 500.437 192.156 499.899 192.8C498.069 195.589 495.056 199.343 490.428 203.526C489.244 204.599 487.953 205.564 486.662 206.637C485.908 207.174 485.262 207.71 484.509 208.246C484.186 208.461 483.756 208.783 483.433 209.104C483.002 209.319 482.68 209.641 482.249 209.855C479.128 212.001 475.469 213.931 471.379 215.755C463.308 219.402 453.622 222.513 442.537 224.336C431.559 226.16 419.183 226.804 406.053 225.731C399.488 225.195 392.816 224.229 385.928 222.62C382.484 221.762 379.148 220.904 375.704 219.724C372.26 218.651 368.816 217.364 365.264 216.184C358.269 213.824 351.058 211.357 343.525 209.104C339.866 207.924 335.991 206.852 332.225 205.779C328.35 204.706 324.584 203.634 320.602 202.668C312.745 200.63 304.674 198.914 296.494 197.519C288.207 196.018 279.813 195.052 271.203 194.409C262.594 193.765 254.091 193.658 245.697 193.979C237.302 194.194 229.016 195.374 221.052 196.661C205.124 199.45 189.841 202.99 175.743 208.032C161.86 213.073 148.838 218.544 136.784 224.015C124.73 229.593 113.861 235.278 104.067 240.856C98.6859 243.967 93.6277 247.077 89 250.188V251.583C93.843 248.365 99.1164 245.147 104.82 241.928C114.614 236.458 125.484 230.773 137.537 225.302C149.591 219.831 162.613 214.468 176.604 209.641C190.595 204.706 205.769 201.274 221.697 198.485C229.661 197.198 237.733 196.018 246.02 195.803C254.307 195.481 262.809 195.589 271.311 196.232C279.813 196.876 288.207 197.841 296.387 199.343C304.566 200.737 312.638 202.454 320.386 204.385C324.261 205.35 328.135 206.423 332.009 207.388C335.776 208.461 339.543 209.533 343.31 210.713C350.736 212.966 357.946 215.326 364.942 217.686C368.493 218.866 371.829 220.153 375.381 221.226C378.825 222.406 382.376 223.264 385.82 224.122C392.708 225.624 399.596 226.589 406.161 227.125C419.398 228.198 431.882 227.447 442.967 225.516C454.052 223.586 463.846 220.475 472.025 216.613C476.007 214.682 479.774 212.644 482.895 210.499C483.325 210.284 483.648 209.962 484.079 209.748C484.509 209.426 484.832 209.212 485.155 208.89C485.908 208.353 486.662 207.817 487.307 207.281C488.599 206.101 489.998 205.135 491.074 204.063C495.702 199.772 498.608 195.803 500.329 193.014C500.76 192.37 501.19 191.727 501.406 191.083C501.729 190.547 501.944 190.118 502.159 189.689C502.59 188.938 502.697 188.509 502.697 188.509C502.697 188.616 502.374 189.045 501.944 189.689Z" fill="#82BAB0"/>
<path d="M502.051 197.305C501.836 197.627 501.513 198.056 501.19 198.592C500.868 199.128 500.545 199.772 500.007 200.416C498.177 203.097 495.271 206.959 490.644 211.035C486.123 215.219 479.774 219.402 471.917 223.157C463.953 226.804 454.375 229.915 443.505 231.738C432.636 233.562 420.474 234.313 407.56 233.347C401.102 232.811 394.43 231.953 387.757 230.451C384.421 229.7 380.977 228.842 377.641 227.769C374.305 226.696 370.861 225.516 367.309 224.444C363.865 223.264 360.314 222.191 356.762 221.011C353.103 220.046 349.444 218.973 345.785 218.008C343.955 217.471 342.126 216.935 340.189 216.506C338.251 216.077 336.422 215.648 334.485 215.219C332.548 214.79 330.61 214.361 328.673 213.932C326.736 213.502 324.799 213.073 322.862 212.752C318.88 212.108 314.898 211.357 310.916 210.713C308.871 210.284 306.934 210.177 304.889 209.855C302.844 209.641 300.799 209.426 298.754 209.104C296.71 208.89 294.665 208.675 292.62 208.354C290.575 208.246 288.423 208.139 286.378 207.924C284.333 207.817 282.181 207.71 280.136 207.495C277.983 207.388 275.939 207.174 273.786 207.281C269.589 207.281 265.284 207.174 261.194 207.174C259.15 207.066 256.997 207.281 254.952 207.388C252.908 207.495 250.755 207.603 248.71 207.71C240.423 207.924 232.352 208.783 224.388 210.177C216.532 211.572 208.783 213.395 201.464 215.755C194.146 218.222 187.151 220.904 180.371 223.586C153.035 234.42 129.143 246.005 110.309 257.59C102.237 262.631 95.1344 267.566 89 272.5V273.895C95.242 268.96 102.668 263.919 110.955 258.77C129.896 247.292 153.681 235.922 180.909 225.195C187.689 222.513 194.792 219.831 202.003 217.471C209.213 215.111 216.854 213.288 224.603 212.001C232.459 210.713 240.423 209.748 248.71 209.533C250.755 209.426 252.8 209.319 254.845 209.319C256.89 209.212 258.934 209.104 261.087 209.104C265.284 209.104 269.481 209.212 273.679 209.212C275.831 209.212 277.876 209.319 279.921 209.426C281.965 209.533 284.118 209.641 286.163 209.855C288.207 209.963 290.36 210.07 292.405 210.284C294.449 210.499 296.494 210.713 298.539 211.035C300.584 211.25 302.629 211.464 304.674 211.786C306.718 212.001 308.763 212.215 310.7 212.644C314.682 213.288 318.664 214.039 322.539 214.682C324.476 215.004 326.413 215.433 328.35 215.862C330.287 216.291 332.225 216.72 334.054 217.15C335.991 217.579 337.821 218.008 339.758 218.437C341.588 218.866 343.525 219.402 345.354 219.939C349.014 220.904 352.673 221.977 356.332 222.942C359.883 224.122 363.435 225.195 366.879 226.375C370.323 227.555 373.767 228.627 377.21 229.7C380.654 230.665 384.098 231.631 387.542 232.382C394.322 233.883 401.102 234.742 407.667 235.171C420.69 236.136 432.958 235.278 443.936 233.347C454.913 231.416 464.599 228.198 472.563 224.444C480.527 220.582 486.877 216.184 491.397 211.893C495.917 207.603 498.823 203.741 500.545 200.952C500.975 200.308 501.406 199.665 501.621 199.128C501.944 198.592 502.159 198.163 502.374 197.734C502.805 196.983 502.912 196.661 502.912 196.554C502.697 196.232 502.482 196.661 502.051 197.305Z" fill="#82BAB0"/>
<path d="M502.697 205.243C502.482 205.564 502.267 205.993 501.944 206.53C501.621 207.066 501.298 207.71 500.76 208.353C498.93 211.035 496.025 214.789 491.612 218.866C490.536 219.938 489.244 220.904 487.953 221.976C487.307 222.513 486.554 222.942 485.908 223.478C485.155 224.015 484.509 224.551 483.648 225.087C480.527 227.125 477.083 229.163 473.209 231.094C469.334 232.918 465.03 234.634 460.294 236.243C455.667 237.745 450.608 239.032 445.227 240.105C434.573 242.143 422.519 243.108 409.712 242.465C403.362 242.143 396.69 241.392 390.017 240.105C386.681 239.461 383.345 238.71 379.901 237.745C378.179 237.316 376.565 236.78 374.843 236.243C373.121 235.707 371.399 235.063 369.785 234.527C362.897 232.167 355.794 230.022 348.475 227.984C341.157 226.053 333.624 224.229 325.767 222.835C318.019 221.44 310.055 220.26 301.875 219.509C293.696 218.866 285.409 218.329 277.122 218.544C275.078 218.544 272.925 218.651 270.88 218.758C268.836 218.866 266.683 218.866 264.638 219.08C262.594 219.295 260.549 219.402 258.504 219.509C256.459 219.724 254.414 219.938 252.369 220.153C250.325 220.367 248.28 220.689 246.343 221.011C244.298 221.333 242.361 221.547 240.316 221.976C236.334 222.727 232.459 223.693 228.585 224.658C213.303 228.734 198.882 233.669 185.429 239.032C158.524 249.652 135.17 261.88 117.197 274.431C108.264 280.76 100.623 287.196 94.4887 293.417C92.4439 295.455 90.6143 297.493 89 299.532V300.926C90.8296 298.673 92.982 296.421 95.242 294.168C101.376 288.054 109.018 281.725 117.95 275.503C135.923 263.06 159.169 251.046 186.075 240.534C199.527 235.278 213.949 230.343 229.123 226.374C232.89 225.409 236.764 224.444 240.639 223.693C242.576 223.264 244.621 223.049 246.558 222.727C248.603 222.406 250.54 222.084 252.585 221.869C254.63 221.655 256.674 221.44 258.612 221.226C260.656 221.011 262.701 220.904 264.746 220.797C266.791 220.582 268.836 220.582 270.88 220.475C272.925 220.475 274.97 220.26 277.122 220.26C285.409 220.153 293.696 220.582 301.768 221.226C309.839 221.869 317.696 223.156 325.444 224.444C333.193 225.838 340.727 227.662 347.937 229.485C355.256 231.523 362.359 233.561 369.139 235.921C372.583 236.994 376.027 238.281 379.363 239.139C382.807 240.105 386.251 240.856 389.587 241.499C396.367 242.787 403.04 243.43 409.497 243.752C422.411 244.288 434.573 243.323 445.335 241.07C450.716 239.998 455.774 238.603 460.51 237.101C465.245 235.492 469.55 233.669 473.424 231.845C477.298 229.914 480.85 227.769 483.971 225.731C484.724 225.195 485.478 224.658 486.231 224.122C486.984 223.586 487.63 223.049 488.276 222.513C489.567 221.44 490.859 220.367 491.935 219.295C496.347 215.111 499.253 211.142 500.975 208.461C501.406 207.817 501.729 207.173 502.051 206.637C502.374 206.101 502.59 205.672 502.805 205.243C503.235 204.492 503.343 204.17 503.343 204.17C503.343 204.17 503.128 204.492 502.697 205.243Z" fill="#82BAB0"/>
<path d="M502.805 215.433C502.374 216.077 501.836 217.149 500.868 218.544C499.146 221.226 496.24 224.98 491.72 229.056C489.46 231.094 486.877 233.132 483.863 235.278C480.742 237.316 477.298 239.354 473.532 241.178C469.657 243.001 465.352 244.825 460.725 246.326C456.097 247.828 451.039 249.115 445.765 250.188C435.111 252.333 423.272 253.299 410.466 252.655C397.766 252.012 384.206 249.866 370.753 245.039C369.031 244.503 367.309 243.859 365.587 243.323C363.865 242.787 362.036 242.25 360.314 241.714C356.762 240.641 353.211 239.676 349.552 238.71C342.233 236.887 334.7 235.278 326.951 233.991C311.454 231.523 295.095 230.451 278.522 231.094C270.235 231.416 261.948 232.167 253.984 233.24C251.939 233.454 250.002 233.883 247.957 234.098C246.02 234.42 243.975 234.634 242.038 235.063C238.056 235.814 234.289 236.887 230.522 237.959C222.989 240.212 215.778 242.894 208.675 245.683C201.68 248.472 194.9 251.368 188.335 254.479C162.29 266.815 140.12 280.545 123.224 294.383C114.829 301.248 107.726 308.22 102.022 314.764C99.224 317.982 96.7487 321.307 94.5963 324.311C93.6277 325.812 92.5515 327.314 91.6905 328.709C90.8296 330.21 90.0762 331.605 89.3229 332.892C89.2152 333.107 89.1076 333.321 89 333.536V335.037C89.3229 334.501 89.5381 333.857 89.9686 333.321C90.7219 332.034 91.5829 330.639 92.3363 329.245C93.3049 327.85 94.2735 326.349 95.3497 324.847C97.5021 321.843 99.9774 318.733 102.776 315.515C108.479 309.078 115.583 302.321 123.977 295.455C140.874 281.725 163.044 268.102 189.088 255.873C195.545 252.87 202.325 249.974 209.321 247.185C216.316 244.396 223.527 241.821 230.953 239.569C234.72 238.496 238.486 237.423 242.361 236.672C244.298 236.243 246.235 236.029 248.28 235.707C250.217 235.385 252.262 235.063 254.199 234.849C262.163 233.776 270.342 233.132 278.629 232.703C295.203 232.06 311.346 233.132 326.736 235.6C334.485 236.78 341.911 238.496 349.229 240.212C352.888 241.178 356.439 242.036 359.991 243.216C361.713 243.752 363.543 244.288 365.264 244.825C366.986 245.361 368.708 246.005 370.43 246.541C384.098 251.475 397.766 253.621 410.681 254.157C423.488 254.693 435.541 253.621 446.196 251.368C451.577 250.295 456.635 248.901 461.263 247.292C465.891 245.683 470.195 243.859 474.07 241.928C477.944 239.998 481.388 237.852 484.509 235.814C487.523 233.669 490.213 231.523 492.365 229.378C496.778 225.195 499.684 221.333 501.298 218.544C502.159 217.257 502.697 216.077 503.128 215.326C503.558 214.575 503.666 214.253 503.666 214.253C503.558 214.36 503.235 214.682 502.805 215.433Z" fill="#82BAB0"/>
<path d="M188.335 233.991C187.151 232.382 185.537 230.987 183.707 230.129C182.308 229.485 180.694 229.378 179.294 229.807C177.895 230.236 176.712 230.987 175.851 231.845C174.99 232.703 174.451 233.562 174.021 234.634C173.591 234.205 173.052 233.776 172.622 233.454C170.9 231.953 169.07 230.344 167.241 228.627C167.026 228.413 166.918 228.305 166.703 228.091C166.918 226.696 167.026 225.409 167.241 224.015C167.564 221.011 167.887 218.008 167.456 214.79C167.241 213.181 166.81 211.572 166.165 210.07C165.519 208.568 164.55 207.174 163.259 206.101C162.613 205.565 161.86 205.028 160.999 204.706C160.138 204.385 159.062 204.277 158.093 204.599C157.124 204.921 156.371 205.565 155.833 206.208C155.295 206.852 154.757 207.495 154.434 208.353C153.788 210.07 154.003 211.786 154.326 213.181C154.757 214.682 155.295 216.077 155.941 217.257C157.232 219.831 158.954 222.084 160.568 224.122C161.429 225.195 162.29 226.16 163.044 227.125C163.259 227.447 163.582 227.769 163.797 227.984C163.689 228.413 163.582 228.949 163.474 229.378C163.044 231.523 162.613 233.883 162.398 236.458C162.183 238.925 162.29 241.607 163.151 244.181C164.012 246.756 165.627 249.008 167.671 250.617C171.438 254.05 177.895 253.943 182.308 251.797C183.384 251.261 184.568 250.51 185.537 249.652C185.967 250.188 186.29 250.725 186.72 251.261C187.366 252.334 188.012 253.299 188.335 254.264C188.442 254.372 188.442 254.479 188.442 254.586C188.442 254.693 188.55 254.801 188.442 254.801V254.908L188.335 255.015C188.227 255.123 188.012 255.23 187.797 255.337C187.258 255.444 186.613 255.659 186.075 255.981C185.537 256.195 185.106 256.41 184.783 256.732C184.46 256.946 184.137 257.268 183.922 257.482C183.707 257.697 183.492 258.019 183.384 258.233C183.276 258.448 183.169 258.662 183.061 258.877C183.061 258.984 182.954 259.091 182.954 259.199C182.308 260.271 182.523 261.666 183.384 262.631C184.245 263.597 185.752 263.704 186.828 263.168C188.119 262.631 189.088 261.666 189.734 260.486C190.918 258.448 191.133 256.088 190.487 253.835C190.164 252.655 189.626 251.583 189.088 250.51C188.55 249.545 187.904 248.686 187.258 247.721C187.904 246.863 188.335 246.005 188.658 245.254C190.057 242.358 190.595 239.14 189.411 236.029C189.303 235.814 189.303 235.707 189.196 235.492C189.088 235.171 188.765 234.634 188.335 233.991ZM157.985 216.291C157.34 215.111 156.909 213.931 156.586 212.644C156.263 211.464 156.263 210.177 156.586 209.104C157.447 206.744 159.815 206.101 161.752 207.71C161.86 207.924 162.613 208.568 163.259 210.07C164.012 211.786 164.658 214.468 164.873 217.793C164.873 218.222 164.981 218.651 164.981 219.08C164.981 219.509 164.981 219.938 164.981 220.368C164.981 221.226 164.981 222.191 164.766 223.157C164.658 223.8 164.55 224.551 164.443 225.302C163.689 224.444 163.044 223.586 162.29 222.727C160.784 220.797 159.169 218.651 157.985 216.291ZM175.42 249.223C174.344 249.116 173.16 248.794 172.191 248.257C171.223 247.721 170.254 246.863 169.609 246.005C168.102 244.181 167.456 241.714 167.241 239.032C167.026 236.672 167.241 234.312 167.456 231.845C168.209 232.596 169.501 233.669 171.223 235.063C171.976 235.6 172.73 236.351 173.483 237.101C173.483 237.423 173.483 237.638 173.483 237.96C173.591 239.89 174.236 241.285 174.99 242.143C175.205 242.465 175.635 242.679 175.958 242.894C177.25 243.538 176.066 241.929 175.851 241.499C175.42 240.641 175.205 239.676 175.205 238.71C175.528 238.925 175.851 239.247 176.173 239.569C177.142 240.427 178.003 241.392 178.972 242.25C179.402 242.679 179.94 243.216 180.478 243.645C180.909 244.181 181.447 244.717 181.877 245.254C182.308 245.79 182.846 246.327 183.276 246.863C183.384 246.97 183.492 247.077 183.599 247.185C183.169 247.506 182.631 247.828 181.77 248.257C179.725 249.223 177.68 249.545 175.42 249.223ZM187.689 240.641C187.581 242.465 186.613 244.288 185.429 245.468C184.46 244.288 183.599 243.323 182.415 242.143C180.371 240.105 178.111 237.96 175.743 235.921C175.743 235.814 175.743 235.814 175.851 235.707C175.851 235.492 176.066 235.278 176.173 235.063C176.281 234.849 176.389 234.634 176.496 234.42C177.034 233.562 177.895 232.811 179.079 232.382C180.263 231.953 181.662 232.06 182.954 232.596C184.245 233.24 185.429 234.312 186.397 235.707C187.151 237.101 187.797 238.818 187.689 240.641Z" fill="#E75B5A"/>
<path d="M454.052 206.315C453.945 206.208 453.837 206.208 453.622 206.315C453.514 206.315 453.406 206.423 453.191 206.423C453.084 206.423 452.868 206.53 452.653 206.53C451.9 206.744 450.931 206.637 449.747 206.208C447.81 205.457 445.765 204.384 444.474 206.744C444.043 207.71 443.828 208.568 443.828 209.855C443.721 211.893 443.936 214.253 444.151 216.291C444.259 217.149 444.259 218.115 444.366 218.973C444.366 219.188 444.474 221.118 444.366 221.762C444.043 221.44 442.644 221.118 441.891 221.118C440.492 221.226 439.2 221.762 438.77 222.084C437.801 222.62 437.371 223.693 437.586 224.873C437.801 225.945 438.77 226.696 439.954 226.696C440.169 226.696 440.277 226.696 440.492 226.696C441.353 226.589 442.429 226.482 443.182 226.053C446.088 224.658 445.873 220.797 445.658 218.008C445.55 216.399 445.335 214.682 445.227 213.073C445.12 211.679 445.335 211.142 446.842 211.142C447.918 211.142 449.102 211.357 450.178 211.25C451.146 211.142 452.115 210.928 452.761 210.284C453.514 209.748 453.729 208.89 453.945 208.353C454.16 207.495 454.052 206.315 454.052 206.315Z" fill="#FCA7A7"/>
<path d="M233.536 199.021C233.859 200.737 236.334 201.381 238.056 200.845C238.917 200.63 240.101 200.308 240.746 199.772C241.823 198.914 241.715 197.734 241.823 196.447C242.038 194.73 242.038 192.692 242.038 191.083C242.038 188.616 242.038 186.363 242.038 184.754C242.038 183.896 242.145 183.253 242.145 182.931C242.253 182.502 242.361 182.394 242.253 182.287C242.253 182.287 242.145 182.287 242.038 182.287C241.93 182.394 241.715 182.502 241.607 182.716C241.392 183.145 241.177 183.789 241.069 184.647C240.746 186.256 240.639 188.616 240.639 191.083C240.639 192.585 240.962 194.623 240.531 196.125C239.24 195.91 237.733 195.696 236.441 195.803C235.15 195.91 233.859 196.661 233.536 197.948C233.428 198.27 233.428 198.699 233.536 199.021Z" fill="#E75B5A"/>
<path d="M235.796 221.869C235.365 220.367 232.89 219.938 231.276 220.367C230.415 220.582 229.231 220.904 228.585 221.44C227.509 222.191 227.617 223.264 227.509 224.336C227.401 225.731 227.401 227.554 227.401 228.949C227.401 231.094 227.509 233.025 227.509 234.42C227.509 235.063 227.509 235.707 227.401 236.029C227.401 236.35 227.186 236.565 227.294 236.565C227.294 236.565 227.401 236.565 227.509 236.565C227.617 236.458 227.832 236.35 227.939 236.136C228.155 235.707 228.37 235.17 228.478 234.42C228.693 233.025 228.8 231.094 228.8 228.949C228.8 227.662 228.477 225.945 228.8 224.658C230.092 224.873 231.599 224.98 232.89 224.765C234.181 224.658 235.473 224.015 235.796 222.835C235.903 222.406 235.903 222.084 235.796 221.869Z" fill="#FCA7A7"/>
<path d="M214.056 191.298C213.626 191.298 212.872 191.512 211.689 191.512C210.828 191.512 209.967 191.512 208.89 191.405C207.814 191.298 206.63 191.191 205.231 191.083C202.648 190.976 200.281 191.191 198.666 191.512C198.128 191.62 195.761 191.941 195.545 192.585C195.33 193.121 195.33 194.087 195.33 194.838C195.222 196.554 195.438 198.807 195.653 201.274C195.868 203.205 196.083 205.028 196.191 206.53C195.438 206.208 194.469 206.101 193.501 206.208C192.101 206.423 190.918 207.066 190.487 207.281C189.626 207.817 189.196 208.997 189.519 210.177C189.841 211.25 190.81 211.893 191.994 211.786C192.209 211.786 192.317 211.786 192.532 211.679C193.393 211.572 196.191 211.035 197.052 208.997C197.483 207.924 197.267 206.637 197.267 205.457C197.267 203.956 197.16 202.561 196.944 201.059C196.837 200.523 196.729 197.949 196.622 197.412C197.052 197.412 197.698 197.305 198.451 197.198C200.065 196.983 202.325 196.661 204.801 196.769C206.092 196.769 207.276 196.876 208.352 196.983C209.428 196.983 210.505 196.983 211.366 196.769C212.119 196.661 212.765 196.447 213.195 196.232C213.303 197.412 213.518 200.845 213.733 202.239C214.056 205.028 214.379 207.603 214.594 209.426C213.841 209.104 212.98 208.997 212.011 209.104C210.612 209.319 209.428 209.963 208.998 210.177C208.137 210.713 207.707 211.893 208.029 213.073C208.352 214.146 209.321 214.79 210.505 214.682C210.72 214.682 210.828 214.682 211.043 214.575C211.904 214.468 212.872 214.253 213.733 213.717C216.316 212.322 216.101 211.035 215.563 206.53C215.455 205.028 215.348 203.419 215.132 201.917C214.81 198.914 214.594 196.339 214.271 194.409C214.164 193.443 214.056 191.941 214.164 191.191C214.271 191.298 214.164 191.298 214.056 191.298Z" fill="#E75B5A"/>
<path d="M340.511 193.872C340.404 193.765 340.296 193.872 340.081 193.872C339.973 193.872 339.866 193.979 339.651 194.087C339.543 194.087 339.328 194.194 339.112 194.301C338.359 194.516 337.39 194.516 336.207 194.087C334.162 193.443 332.117 192.478 331.041 194.945C330.61 195.91 330.503 196.768 330.503 198.056C330.503 200.094 330.826 202.454 331.041 204.384C331.148 205.243 331.256 206.208 331.364 207.066C331.364 207.281 331.579 209.212 331.471 209.855C331.148 209.533 329.749 209.212 328.888 209.319C327.489 209.533 326.305 210.177 325.875 210.391C325.014 210.928 324.584 212.108 324.906 213.288C325.229 214.36 326.198 215.004 327.382 215.004C327.597 215.004 327.705 215.004 327.92 215.004C328.781 214.897 329.749 214.682 330.61 214.253C333.516 212.751 333.086 208.782 332.763 206.101C332.548 204.492 332.332 202.775 332.117 201.166C331.902 199.772 332.117 199.236 333.624 199.236C334.7 199.236 335.884 199.343 336.96 199.236C337.929 199.128 338.79 198.807 339.543 198.163C340.189 197.519 340.512 196.768 340.619 196.125C340.619 195.052 340.619 193.872 340.511 193.872Z" fill="#FCA7A7"/>
<path d="M286.055 196.661C285.84 195.481 284.979 194.73 283.795 194.623C283.687 194.623 283.472 194.623 283.257 194.623C282.396 194.623 279.49 194.73 278.306 196.661C277.661 197.627 277.768 199.021 277.553 200.094C277.338 201.595 277.338 208.997 277.23 210.499C277.23 211.035 277.23 214.146 277.23 214.682C276.8 214.682 276.154 214.682 275.293 214.682C273.571 214.682 271.311 214.682 268.836 214.253C267.652 214.039 266.468 213.717 265.284 213.502C264.208 213.288 263.132 213.18 262.271 213.288C261.625 213.288 261.087 213.395 260.656 213.502C260.764 211.142 260.764 206.53 260.872 204.921C261.625 205.35 262.486 205.564 263.454 205.564C264.854 205.564 266.145 205.135 266.683 204.921C267.652 204.492 268.19 203.419 268.082 202.239C267.867 201.166 267.006 200.308 265.822 200.201C265.607 200.201 265.499 200.201 265.284 200.201C264.423 200.201 263.347 200.308 262.486 200.63C259.795 201.595 259.795 202.883 259.58 207.495C259.472 208.997 259.472 210.606 259.365 212.108C259.042 215.433 258.719 217.9 258.827 218.115C258.934 218.222 258.827 218.222 259.365 218.329C259.795 218.329 260.226 218.329 261.41 218.437C262.163 218.544 263.024 218.544 264.208 218.651C265.284 218.758 266.468 219.08 267.759 219.295C270.342 219.724 272.602 219.938 274.324 219.831C274.862 219.831 277.876 219.831 278.199 219.295C278.414 218.866 278.306 218.222 278.414 217.257C278.521 215.54 278.629 213.073 278.737 210.606C278.844 208.675 278.844 200.845 278.952 199.343C279.705 199.772 280.566 199.986 281.535 200.094C282.934 200.094 284.225 199.665 284.764 199.45C285.625 199.021 286.163 197.841 286.055 196.661Z" fill="#FCA7A7"/>
<path d="M360.206 223.586C360.099 223.478 359.991 223.586 359.776 223.586C359.668 223.586 359.561 223.693 359.345 223.8C359.238 223.8 359.022 223.907 358.807 224.015C358.054 224.229 357.085 224.229 355.901 223.8C353.857 223.156 351.812 222.191 350.736 224.658C350.305 225.624 350.197 226.482 350.197 227.769C350.197 229.807 350.52 232.167 350.736 234.098C350.843 234.956 350.951 235.921 351.058 236.78C351.058 236.994 351.274 238.925 351.166 239.569C350.843 239.247 349.444 238.925 348.583 239.032C347.184 239.247 346 239.89 345.57 240.105C344.709 240.641 344.278 241.821 344.601 243.001C344.924 244.074 345.893 244.717 347.076 244.717C347.292 244.717 347.399 244.717 347.615 244.717C348.476 244.61 349.444 244.396 350.305 243.967C353.211 242.465 352.78 238.496 352.457 235.814C352.242 234.205 352.027 232.489 351.812 230.88C351.597 229.485 351.812 228.949 353.318 228.949C354.395 228.949 355.579 229.056 356.655 228.949C357.623 228.842 358.484 228.52 359.238 227.876C359.883 227.233 360.206 226.482 360.314 225.838C360.314 224.873 360.206 223.693 360.206 223.586Z" fill="#E75B5A"/>
<path d="M308.333 207.603C307.902 205.886 305.427 205.35 303.813 205.886C302.952 206.101 301.768 206.423 301.122 207.066C300.046 208.032 300.261 209.104 300.153 210.392C300.046 212.108 300.046 214.146 300.046 215.755C300.046 218.222 300.153 220.475 300.153 222.084C300.153 222.835 300.153 223.586 300.046 223.907C300.046 224.336 299.831 224.444 299.938 224.551C299.938 224.551 300.046 224.551 300.153 224.551C300.261 224.444 300.476 224.336 300.584 224.122C300.799 223.693 301.014 222.942 301.122 222.191C301.337 220.475 301.445 218.222 301.445 215.755C301.445 214.253 301.122 212.215 301.445 210.713C302.736 210.928 304.243 211.142 305.534 210.928C306.826 210.713 308.117 210.07 308.44 208.675C308.333 208.246 308.333 207.924 308.333 207.603Z" fill="#E75B5A"/>
<path d="M431.021 229.593C430.591 227.876 428.115 227.34 426.501 227.876C425.64 228.091 424.456 228.52 423.811 229.056C422.734 230.022 422.95 231.094 422.842 232.382C422.734 234.098 422.734 236.136 422.734 237.745C422.734 240.212 422.842 242.465 422.842 244.074C422.842 244.825 422.842 245.576 422.734 245.897C422.734 246.326 422.519 246.434 422.627 246.541C422.627 246.541 422.734 246.541 422.842 246.541C422.95 246.434 423.165 246.326 423.272 246.112C423.488 245.683 423.703 244.932 423.811 244.181C424.026 242.465 424.133 240.212 424.133 237.745C424.133 236.243 423.811 234.205 424.133 232.703C425.425 232.918 426.932 233.132 428.223 232.918C429.515 232.703 430.806 232.06 431.129 230.665C431.129 230.343 431.129 230.022 431.021 229.593Z" fill="#E75B5A"/>
<path d="M394.753 201.703C394.322 201.703 393.569 201.917 392.385 201.917C391.524 201.917 390.663 201.917 389.587 201.81C388.511 201.703 387.327 201.596 385.928 201.488C383.345 201.381 380.977 201.596 379.363 201.917C378.825 202.025 376.457 202.347 376.242 202.99C376.027 203.526 376.027 204.492 376.027 205.243C375.919 206.959 376.134 209.212 376.349 211.679C376.565 213.61 376.78 215.433 376.888 216.935C376.134 216.613 375.166 216.506 374.197 216.613C372.798 216.828 371.614 217.471 371.184 217.686C370.323 218.222 369.892 219.402 370.215 220.582C370.538 221.655 371.507 222.298 372.69 222.191C372.906 222.191 373.013 222.191 373.228 222.084C374.089 221.977 376.888 221.44 377.749 219.402C378.179 218.33 377.964 217.042 377.964 215.862C377.964 214.361 377.856 212.966 377.641 211.464C377.533 210.928 377.426 208.354 377.318 207.817C377.749 207.817 378.394 207.71 379.255 207.603C380.87 207.388 383.13 207.066 385.713 207.174C387.004 207.174 388.188 207.281 389.264 207.388C390.34 207.388 391.416 207.388 392.277 207.174C393.031 207.066 393.677 206.852 394.107 206.637C394.215 207.817 394.43 211.25 394.645 212.644C394.968 215.433 395.291 218.008 395.506 219.831C394.753 219.509 393.892 219.402 392.923 219.509C391.524 219.724 390.34 220.368 389.91 220.582C389.049 221.118 388.618 222.298 388.941 223.478C389.264 224.551 390.233 225.195 391.416 225.087C391.632 225.087 391.739 225.087 391.955 224.98C392.816 224.873 393.784 224.658 394.645 224.122C397.228 222.728 397.013 221.44 396.475 216.935C396.367 215.433 396.259 213.824 396.044 212.322C395.721 209.319 395.506 206.745 395.183 204.814C395.076 203.848 394.968 202.347 395.076 201.596C394.968 201.703 394.86 201.703 394.753 201.703Z" fill="#E75B5A"/>
<path d="M394.645 244.396C395.076 246.112 397.551 246.648 399.165 246.112C400.026 245.897 401.21 245.468 401.856 244.932C402.824 243.967 402.717 242.894 402.824 241.607C402.932 239.89 402.932 237.96 402.932 236.243C402.932 233.776 402.824 231.523 402.824 229.914C402.824 229.164 402.824 228.52 402.932 228.091C402.932 227.662 403.04 227.555 403.04 227.447C403.04 227.447 402.932 227.447 402.824 227.447C402.717 227.555 402.502 227.662 402.394 227.876C402.179 228.305 401.963 228.949 401.856 229.807C401.641 231.416 401.533 233.669 401.641 236.243C401.641 237.745 402.071 239.783 401.641 241.285C400.349 241.07 398.842 240.963 397.551 241.07C396.259 241.285 394.968 241.929 394.753 243.323C394.538 243.752 394.538 244.074 394.645 244.396Z" fill="#FCA7A7"/>
</g>
<path d="M443.418 65.675C437.104 56.7262 434.613 61.5017 429.157 56.2529C424.905 52.1657 421.726 50.9181 418.59 51.0041C415.498 50.9181 412.319 52.1657 408.023 56.2529C402.568 61.5017 400.034 56.7262 393.762 65.675C387.448 74.6238 402.869 84.0028 402.869 84.0028L417.817 86.6272C417.817 86.6272 418.161 85.1644 418.633 82.7982C419.106 85.1644 419.449 86.6272 419.449 86.6272L434.398 84.0028C434.312 84.0028 449.733 74.6238 443.418 65.675Z" fill="#2C2858"/>
<path d="M419.578 150.99C439.293 150.99 455.274 133.808 455.274 112.613C455.274 91.4184 439.293 74.2366 419.578 74.2366C399.864 74.2366 383.883 91.4184 383.883 112.613C383.883 133.808 399.864 150.99 419.578 150.99Z" fill="#2C2858"/>
<path d="M388.908 173.491L454.63 175.083L423.53 203.521L388.908 173.491Z" fill="#F4A082"/>
<path d="M454.716 300.022H384.441C375.163 311.38 372.07 324.201 371.039 332.418C370.309 338.226 367.645 343.604 363.393 347.605C342.388 367.568 283.367 426.251 293.977 445.569C303.771 463.423 357.637 452.065 382.809 445.655C386.03 444.837 388.779 444.106 390.884 443.504C396.511 442.686 400.463 443.59 402.267 444.751C406.434 447.462 412.534 462.864 415.841 471.985C417.302 475.986 422.027 478.481 426.279 478.438C426.279 478.438 426.107 443.289 425.162 424.488C424.175 405.686 411.46 412.914 400.291 417.217C398.53 417.905 396.297 418.593 393.762 419.282L354.029 420.701C354.029 420.701 391.529 382.067 404.931 374.624C418.333 367.138 424.217 377.635 424.217 377.635L429.157 614.779C429.286 621.877 429.372 632.16 429.028 633.365C428.513 635.172 418.633 651.09 425.377 651.09C432.121 651.09 439.166 651.09 439.166 651.09C439.166 651.09 446.211 651.09 452.955 651.09C459.699 651.09 449.819 635.172 449.303 633.365C448.96 632.246 449.046 622.738 449.174 615.682C449.174 615.682 457.937 558.332 459.011 515.955C460.085 473.577 465.97 446.644 474.561 386.842C483.109 326.954 454.716 300.022 454.716 300.022Z" fill="#F4A082"/>
<path d="M450.549 288.75L454.415 274.294L446.898 266.421L419.535 272.444L392.173 266.421L384.656 274.294L388.522 288.75L384.441 300.022H413.479H425.592H454.63L450.549 288.75Z" fill="#F4A082"/>
<path d="M437.104 178.309C423.917 184.031 411.846 181.751 402.267 177.062C386.718 169.447 367.946 173.061 356.305 185.924C344.922 198.487 334.054 211.007 334.054 211.007C334.054 211.007 356.348 230.668 373.702 232.777C373.702 232.777 382.164 271.798 383.883 274.337C383.883 274.337 392.602 278.467 405.317 280.618C409.956 281.479 414.467 281.866 418.848 281.866C419.106 281.866 419.407 281.866 419.664 281.866C419.922 281.866 420.223 281.866 420.48 281.866C424.819 281.866 429.372 281.479 434.011 280.618C446.726 278.467 455.446 274.337 455.446 274.337C457.121 271.798 465.626 232.777 465.626 232.777C482.98 230.668 501.193 214.019 501.193 214.019C501.193 214.019 492.903 202.574 483.668 190.313C472.8 175.943 453.599 171.168 437.104 178.309Z" fill="#E62552"/>
<path d="M386.331 199.176C384.355 201.628 382.508 204.166 380.833 206.748C379.157 209.372 377.697 212.083 376.451 214.922C375.248 217.762 374.303 220.687 373.788 223.742C373.273 226.797 373.187 229.894 373.573 233.035C372.585 230.023 372.328 226.797 372.671 223.613C372.972 220.429 373.874 217.289 375.12 214.363C376.408 211.437 377.998 208.684 379.888 206.103C381.778 203.564 383.882 201.198 386.331 199.176Z" fill="#C4204A"/>
<path d="M452.826 199.176C454.802 201.628 456.649 204.166 458.324 206.748C459.999 209.372 461.46 212.083 462.705 214.922C463.908 217.762 464.853 220.687 465.369 223.742C465.884 226.797 465.97 229.894 465.583 233.035C466.571 230.023 466.829 226.797 466.485 223.613C466.185 220.429 465.283 217.289 464.037 214.363C462.748 211.437 461.159 208.684 459.269 206.103C457.379 203.564 455.274 201.198 452.826 199.176Z" fill="#C4204A"/>
<path d="M431.391 154.174H410.772V174.825H431.391V154.174Z" fill="#F4A082"/>
<path d="M431.391 166.564V154.174H410.772V164.714C415.197 167.124 421.769 168.5 431.391 166.564Z" fill="#DB8C70"/>
<path d="M460.815 117.303C458.796 116.313 456.477 116.485 454.372 117.561C455.102 98.5877 439.638 82.6261 420.18 83.2715C400.721 82.5831 385.257 98.5447 385.987 117.561C383.882 116.485 381.563 116.313 379.544 117.303C375.678 119.196 374.518 124.66 376.881 129.478C379.243 134.297 384.269 136.663 388.135 134.77C388.651 134.512 389.166 134.168 389.596 133.781C391.786 149.484 404.888 161.229 420.223 161.014C435.558 161.229 448.616 149.484 450.85 133.781C451.279 134.168 451.752 134.512 452.31 134.77C456.176 136.663 461.202 134.297 463.565 129.478C465.841 124.66 464.638 119.196 460.815 117.303Z" fill="#F4A082"/>
<path d="M414.681 118.421C413.221 117.905 411.889 117.518 410.515 117.303C409.14 117.044 407.809 117.001 406.477 117.13C405.188 117.303 403.857 117.561 402.611 118.12L402.138 118.292C401.967 118.335 401.838 118.464 401.666 118.507L400.678 118.98C400.034 119.325 399.432 119.712 398.702 120.056C399.089 119.411 399.518 118.765 400.034 118.163C400.592 117.647 401.108 117.044 401.795 116.657C403.083 115.711 404.673 115.194 406.262 115.022C407.852 114.85 409.484 115.108 410.944 115.711C412.405 116.313 413.736 117.173 414.681 118.421Z" fill="#07095B"/>
<path d="M426.279 118.378C427.224 117.131 428.513 116.27 429.973 115.625C431.434 115.022 433.066 114.764 434.656 114.893C436.245 115.065 437.834 115.582 439.123 116.485C439.81 116.872 440.326 117.475 440.884 117.991C441.4 118.55 441.829 119.196 442.216 119.841C441.485 119.54 440.884 119.11 440.24 118.808L439.295 118.335C439.123 118.249 438.994 118.163 438.822 118.12L438.35 117.948C437.104 117.389 435.772 117.131 434.441 117.001C433.109 116.872 431.778 116.958 430.403 117.217C429.071 117.475 427.74 117.862 426.279 118.378Z" fill="#07095B"/>
<path d="M420.695 120.357C420.566 121.863 420.652 123.369 420.953 124.875C421.082 125.649 421.296 126.381 421.597 127.112C421.898 127.843 422.284 128.575 422.929 129.22L423.229 129.435L423.487 129.607C423.573 129.693 423.745 129.779 423.831 129.866C424.046 130.038 424.174 130.253 424.303 130.511C424.518 130.984 424.432 131.586 424.175 132.146C423.616 133.307 422.413 134.168 421.039 134.813C422.542 134.727 424.175 134.168 425.12 132.705C425.592 132.017 425.85 130.984 425.549 130.081C425.463 129.866 425.377 129.607 425.248 129.435C425.12 129.22 424.948 129.048 424.819 128.876C424.647 128.704 424.475 128.575 424.303 128.446C424.174 128.36 424.174 128.36 424.132 128.274L423.96 128.145C423.53 127.757 423.187 127.155 422.886 126.553C422.585 125.95 422.327 125.262 422.07 124.574C421.554 123.24 421.168 121.82 420.695 120.357Z" fill="#DB8C70"/>
<path d="M522.972 253.213C516.743 242.328 505.618 230.109 494.363 219.31C480.102 229.808 471.253 231.658 467.516 232.475C489.466 247.749 491.013 253.987 491.013 253.987C479.501 257.214 430.575 256.31 430.575 256.31C430.575 256.31 428.943 252.008 426.967 249.297C424.991 246.587 424.089 229.679 422.456 225.161C422.199 224.473 421.941 223.871 421.64 223.355C420.008 221.849 418.977 222.107 418.376 222.537L417.731 223.355C417.474 223.785 417.259 224.301 417.044 224.86C415.412 229.378 414.51 246.286 412.534 248.996C410.558 251.707 408.925 256.009 408.925 256.009C408.925 256.009 359.999 256.913 348.487 253.686C348.487 253.686 349.733 247.62 371.683 232.346C367.989 231.873 358.711 229.077 344.836 219.267C333.582 230.066 322.671 242.07 316.443 252.954C300.592 280.704 399.905 275.283 417.516 268.443C417.516 268.443 418.547 268.486 419.578 267.281C420.695 268.744 421.855 268.701 421.855 268.701C439.51 275.585 538.779 280.962 522.972 253.213Z" fill="#F4A082"/>
<path opacity="0.5" d="M425.334 643.432C425.334 643.432 428.47 640.894 430.446 643.432C430.446 643.432 434.742 641.926 436.717 642.873C438.693 643.819 440.068 642.572 444.278 643.432C448.487 644.292 449.475 642.787 451.924 643.432L448.53 635.645C448.058 634.526 446.941 633.795 445.738 633.752L433.109 633.236C431.906 633.193 430.79 633.795 430.188 634.87L425.334 643.432Z" fill="#DB8C70"/>
<path d="M385.687 389.897C393.247 383.056 400.42 377.076 404.888 374.581C418.29 367.095 424.175 377.592 424.175 377.592L424.733 404.783C436.073 407.579 451.494 409.774 471.211 409.171C472.241 402.202 473.358 394.802 474.518 386.756C483.109 326.911 454.716 300.022 454.716 300.022H384.441C375.163 311.38 372.07 324.201 371.039 332.418C370.309 338.226 367.645 343.604 363.393 347.605C360.429 350.402 356.735 353.973 352.568 358.103C358.539 367.955 369.192 381.637 385.687 389.897Z" fill="#1F5148"/>
<g opacity="0.5">
<path opacity="0.5" d="M425.077 420.96C425.42 425.735 425.635 430.554 425.85 435.329C425.936 437.739 426.022 440.105 426.108 442.514L426.279 449.699L426.408 456.884C426.408 459.293 426.451 461.66 426.451 464.069C426.451 468.844 426.451 473.663 426.279 478.439C425.936 473.663 425.678 468.844 425.506 464.069C425.42 461.66 425.334 459.293 425.248 456.884L425.077 449.699L424.948 442.514C424.948 440.105 424.905 437.739 424.905 435.329C424.905 430.554 424.948 425.735 425.077 420.96Z" fill="#DB8C70"/>
</g>
<path d="M353.986 420.658C351.408 422.594 348.659 424.229 345.867 425.735C343.032 427.241 340.154 428.575 337.147 429.779C335.644 430.382 334.14 430.898 332.637 431.457C331.864 431.715 331.09 431.93 330.36 432.146L329.2 432.49C328.814 432.576 328.427 432.705 328.041 432.791L325.721 433.35L323.359 433.823L322.199 434.039L320.996 434.211C320.223 434.297 319.407 434.426 318.633 434.469C319.407 434.254 320.18 434.039 320.953 433.867L322.113 433.565L323.273 433.221L325.549 432.576L327.826 431.844C330.833 430.855 333.84 429.822 336.761 428.618C337.491 428.317 338.221 428.058 338.951 427.714C339.682 427.413 340.412 427.112 341.142 426.768L343.333 425.821C344.063 425.477 344.793 425.176 345.481 424.832C348.316 423.584 351.151 422.164 353.986 420.658Z" fill="#DB8C70"/>
<path d="M419.535 222.193C419.793 225.936 419.922 229.722 420.008 233.465C420.051 235.358 420.094 237.208 420.137 239.101L420.18 244.737L420.137 250.373C420.094 252.266 420.094 254.116 420.051 256.009C419.965 259.752 419.836 263.538 419.578 267.281C419.321 263.538 419.192 259.752 419.106 256.009C419.063 254.116 419.02 252.266 419.02 250.373L418.977 244.737L419.02 239.101C419.063 237.208 419.063 235.358 419.106 233.465C419.149 229.722 419.278 225.936 419.535 222.193Z" fill="#DB8C70"/>
<path d="M348.487 253.686C345.352 253.643 342.259 253.729 339.166 254.03C337.62 254.159 336.116 254.417 334.57 254.719C333.024 254.977 331.563 255.407 330.017 255.794C330.36 255.622 330.704 255.45 331.091 255.278L331.649 255.02L332.207 254.805L333.324 254.417L334.441 254.073C334.613 254.03 334.828 253.944 334.999 253.901L335.558 253.772C335.944 253.686 336.331 253.6 336.718 253.514C337.491 253.385 338.264 253.256 339.08 253.17C340.67 252.998 342.216 252.955 343.805 252.998C345.352 253.17 346.941 253.299 348.487 253.686Z" fill="#DB8C70"/>
<path d="M490.841 253.944C493.977 253.901 497.07 253.987 500.162 254.288C501.709 254.417 503.212 254.675 504.759 254.977C506.305 255.235 507.765 255.665 509.312 256.052C508.968 255.88 508.625 255.708 508.238 255.536L507.679 255.278L507.121 255.063L506.004 254.675L504.887 254.331C504.716 254.288 504.501 254.202 504.329 254.159L503.771 254.073C503.384 253.987 502.997 253.901 502.611 253.815C501.838 253.686 501.064 253.557 500.248 253.471C498.659 253.299 497.113 253.256 495.523 253.299C493.977 253.428 492.388 253.6 490.841 253.944Z" fill="#DB8C70"/>
<path d="M385.987 117.475C385.987 117.475 397.113 94.7586 407.594 92.0481C418.075 89.2947 415.498 100.438 431.434 104.783C447.327 109.085 441.357 120.658 454.415 117.518L455.317 110.161C455.317 110.161 450.205 97.297 450.205 96.8237C450.205 96.3504 441.528 87.4016 440.583 87.0575C439.638 86.7133 431.176 83.4435 430.102 83.2284C429.028 83.0133 417.989 80.9912 417.474 80.9912C417.001 80.9912 408.968 80.518 406.735 81.8086C404.501 83.0993 396.554 82.7552 393.805 85.9819C391.056 89.2086 389.295 97.0818 388.822 98.1144C388.35 99.19 383.84 106.676 383.925 108.139C384.011 109.559 385.987 117.475 385.987 117.475Z" fill="#2C2858"/>
<path opacity="0.3" d="M413.736 140.879C413.736 140.879 418.075 138.9 422.542 141.267C422.542 141.267 426.838 137.997 430.661 140.449C430.661 140.449 429.587 147.376 422.07 147.591C414.553 147.763 413.736 140.879 413.736 140.879Z" fill="#F79691"/>
<path d="M409.613 138.771C410.515 139.374 411.46 139.933 412.448 140.406C413.393 140.879 414.424 141.31 415.412 141.654C417.431 142.342 419.578 142.772 421.683 142.772C423.831 142.772 425.936 142.342 427.912 141.525C429.888 140.707 431.735 139.503 433.41 138.126C432.68 138.943 431.864 139.675 430.962 140.363C430.102 141.052 429.114 141.611 428.126 142.084C427.138 142.557 426.065 142.945 424.991 143.203C423.917 143.461 422.8 143.547 421.683 143.59C419.449 143.59 417.216 143.117 415.197 142.256C413.135 141.439 411.245 140.277 409.613 138.771Z" fill="white"/>
<path d="M400.377 124.703C400.764 125.305 401.193 125.778 401.709 126.251C401.451 126.338 401.236 126.381 400.979 126.381C400.635 126.424 400.291 126.424 399.948 126.338C399.776 126.338 399.604 126.251 399.432 126.251C399.26 126.208 399.089 126.165 398.917 126.079C399.089 126.165 399.218 126.251 399.389 126.294C399.561 126.338 399.733 126.424 399.905 126.467C400.248 126.596 400.592 126.639 400.979 126.682C401.322 126.725 401.666 126.682 402.01 126.639C401.838 126.768 401.666 126.854 401.494 126.983C401.193 127.155 400.893 127.284 400.549 127.37C400.377 127.413 400.206 127.456 400.034 127.456C399.862 127.499 399.69 127.499 399.518 127.499C399.69 127.499 399.862 127.542 400.034 127.542C400.206 127.542 400.377 127.542 400.549 127.499C400.893 127.456 401.279 127.37 401.623 127.284C401.924 127.198 402.224 127.026 402.482 126.854C406.391 129.478 412.276 128.058 414.681 124.703C409.226 126.768 404.673 126.596 400.377 124.703Z" fill="#333333"/>
<path d="M442.13 124.703C441.743 125.305 441.314 125.778 440.798 126.251C441.056 126.338 441.271 126.381 441.528 126.381C441.872 126.424 442.216 126.424 442.559 126.338C442.731 126.338 442.903 126.251 443.075 126.251C443.247 126.208 443.419 126.165 443.59 126.079C443.419 126.165 443.29 126.251 443.118 126.294C442.946 126.338 442.774 126.424 442.602 126.467C442.259 126.596 441.915 126.639 441.528 126.682C441.185 126.725 440.841 126.682 440.498 126.639C440.669 126.768 440.841 126.854 441.013 126.983C441.314 127.155 441.614 127.284 441.958 127.37C442.13 127.413 442.302 127.456 442.473 127.456C442.645 127.499 442.817 127.499 442.989 127.499C442.817 127.499 442.645 127.542 442.473 127.542C442.302 127.542 442.13 127.542 441.958 127.499C441.614 127.456 441.228 127.37 440.884 127.284C440.583 127.198 440.283 127.026 440.025 126.854C436.116 129.478 430.231 128.058 427.826 124.703C433.281 126.768 437.834 126.596 442.13 124.703Z" fill="#333333"/>
<path d="M229.673 234.799C229.673 234.799 230.446 216.299 210.644 211.867C190.842 207.436 187.019 230.066 172.543 227.872C172.543 227.872 187.706 245.469 204.63 240.263C217.474 236.305 222.543 237.853 224.261 238.8C225.292 239.402 226.495 239.617 227.611 239.23C228.9 238.843 230.06 237.681 229.673 234.799Z" fill="#2C2858"/>
<path d="M215.97 238.37C215.584 237.853 215.713 237.165 216.228 236.821C218.376 235.401 223.874 232.217 230.489 231.873C231.091 231.83 231.649 232.346 231.649 232.949C231.649 233.508 231.177 234.024 230.618 234.024C224.562 234.325 219.364 237.337 217.431 238.585C216.916 238.929 216.314 238.843 215.97 238.37Z" fill="#07095B"/>
<path d="M206.477 272.014C206.477 272.014 200.807 248.695 214.338 239.962C227.869 231.228 242.173 232.218 251.924 237.423C261.675 242.672 267.517 260.914 263.135 271.326L230.747 261.387L206.477 272.014Z" fill="#2C2858"/>
<path d="M213.565 310.993L260.386 312.111L238.221 332.375L213.565 310.993Z" fill="#F4A082"/>
<path d="M261.761 310.778C257.036 310.476 254.974 311.337 250.506 313.531C246.469 315.51 241.83 316.887 236.804 316.844C231.735 316.887 227.096 315.51 223.101 313.531C218.634 311.337 213.78 310.433 209.055 310.778C211.632 346.358 202.783 351.65 202.783 351.65L210.429 401.126C210.429 401.126 221.039 407.838 236.847 407.321C252.611 407.838 263.264 401.126 263.264 401.126L270.309 350.66C270.266 350.617 259.183 346.315 261.761 310.778Z" fill="#F5A3B7"/>
<path d="M240.197 528.13L239.381 489.711C238.694 476.331 229.63 481.493 221.684 484.548C221.211 484.72 220.653 484.935 220.094 485.107C219.794 490.356 219.407 497.67 219.063 503.091C220.953 503.22 222.285 503.65 223.101 504.167C226.065 506.103 230.403 517.073 232.766 523.527C233.797 526.41 237.147 528.173 240.197 528.13Z" fill="#F4A082"/>
<path d="M256.477 625.836C256.477 625.836 256.649 624.631 256.95 622.523L242.044 618.393L242.173 625.19C242.259 630.224 242.345 637.581 242.087 638.442C241.701 639.732 234.656 651.047 239.51 651.047C244.321 651.047 249.347 651.047 249.347 651.047C249.347 651.047 254.373 651.047 259.184 651.047C263.995 651.047 256.95 639.732 256.606 638.442C256.348 637.581 256.391 630.826 256.477 625.836Z" fill="#F4A082"/>
<path d="M244.493 297.225H228.556V313.187H244.493V297.225Z" fill="#F4A082"/>
<path d="M244.493 306.819V297.225H228.556V305.357C231.993 307.207 237.062 308.282 244.493 306.819Z" fill="#DB8C70"/>
<path d="M267.259 268.701C265.713 267.927 263.909 268.056 262.276 268.916C262.835 254.245 250.893 241.898 235.816 242.414C220.738 241.898 208.797 254.245 209.355 268.916C207.723 268.099 205.919 267.97 204.373 268.701C201.409 270.164 200.464 274.38 202.311 278.123C204.158 281.866 208.024 283.673 211.031 282.21C211.46 281.995 211.804 281.737 212.147 281.436C213.866 293.568 223.96 302.689 235.816 302.517C247.671 302.689 257.809 293.568 259.484 281.436C259.828 281.737 260.171 281.995 260.601 282.21C263.565 283.673 267.474 281.866 269.321 278.123C271.168 274.38 270.223 270.164 267.259 268.701Z" fill="#F4A082"/>
<path d="M231.606 269.561C230.489 269.174 229.415 268.873 228.385 268.701C227.311 268.529 226.28 268.443 225.292 268.572C224.261 268.701 223.273 268.916 222.285 269.346L221.898 269.475C221.769 269.518 221.641 269.604 221.555 269.647L220.824 269.992C220.309 270.25 219.879 270.551 219.321 270.809C219.622 270.293 219.965 269.82 220.352 269.346C220.782 268.959 221.168 268.486 221.727 268.185C222.714 267.453 223.96 267.066 225.163 266.937C226.409 266.808 227.654 266.98 228.814 267.453C229.845 267.927 230.876 268.615 231.606 269.561Z" fill="#2C2858"/>
<path d="M240.541 269.519C241.271 268.572 242.302 267.884 243.376 267.41C244.493 266.937 245.781 266.722 246.984 266.851C248.23 266.98 249.433 267.367 250.464 268.099C250.979 268.4 251.409 268.873 251.838 269.26C252.225 269.691 252.568 270.207 252.869 270.68C252.311 270.422 251.838 270.121 251.366 269.863L250.635 269.519C250.507 269.476 250.378 269.389 250.292 269.346L249.905 269.217C248.917 268.787 247.886 268.572 246.898 268.486C245.867 268.4 244.836 268.443 243.806 268.658C242.732 268.83 241.658 269.131 240.541 269.519Z" fill="#2C2858"/>
<path d="M236.245 272.444C236.116 273.605 236.202 274.767 236.417 275.929C236.546 276.531 236.675 277.09 236.89 277.65C237.104 278.209 237.405 278.811 237.921 279.285L238.135 279.457L238.307 279.586C238.393 279.672 238.522 279.715 238.565 279.801C238.737 279.93 238.823 280.102 238.909 280.274C239.08 280.618 238.995 281.091 238.823 281.522C238.393 282.425 237.448 283.114 236.417 283.587C237.577 283.544 238.823 283.071 239.596 281.952C239.982 281.393 240.154 280.618 239.94 279.887C239.897 279.715 239.811 279.543 239.682 279.371C239.596 279.198 239.467 279.069 239.338 278.94C239.209 278.811 239.08 278.725 238.909 278.596C238.823 278.553 238.823 278.51 238.78 278.467L238.651 278.381C238.307 278.08 238.049 277.607 237.835 277.133C237.577 276.66 237.405 276.144 237.233 275.585C236.89 274.638 236.589 273.562 236.245 272.444Z" fill="#DB8C70"/>
<path opacity="0.5" d="M239.51 645.626C239.51 645.626 241.744 643.819 243.118 645.626C243.118 645.626 246.168 644.551 247.586 645.239C248.96 645.927 249.948 645.024 252.955 645.626C255.962 646.272 256.649 645.196 258.41 645.626L255.962 640.076C255.618 639.259 254.845 638.743 253.986 638.7L245.008 638.312C244.149 638.269 243.333 638.743 242.946 639.474L239.51 645.626Z" fill="#DB8C70"/>
<g opacity="0.5">
<path opacity="0.5" d="M239.338 487.215C239.596 490.614 239.768 494.056 239.897 497.455C239.982 499.176 240.025 500.854 240.068 502.575L240.197 507.694L240.283 512.814C240.283 514.535 240.326 516.213 240.326 517.934C240.326 521.333 240.326 524.774 240.197 528.173C239.94 524.774 239.768 521.333 239.639 517.934C239.553 516.213 239.51 514.535 239.467 512.814L239.338 507.694L239.252 502.575C239.252 500.854 239.209 499.176 239.209 497.455C239.209 494.013 239.209 490.614 239.338 487.215Z" fill="#F79691"/>
</g>
<path d="M188.694 487C186.89 488.377 184.914 489.538 182.895 490.614C180.876 491.69 178.814 492.636 176.709 493.496C175.636 493.927 174.562 494.314 173.488 494.658C172.929 494.83 172.414 495.002 171.855 495.174L171.039 495.433C170.782 495.519 170.481 495.562 170.223 495.648L168.548 496.078L166.873 496.422L166.014 496.594L165.154 496.723C164.596 496.809 164.038 496.852 163.479 496.938C164.038 496.809 164.596 496.637 165.111 496.508L165.928 496.293L166.744 496.035L168.376 495.562L170.008 495.045C172.156 494.357 174.304 493.583 176.366 492.765C176.881 492.55 177.397 492.335 177.955 492.12C178.471 491.905 178.986 491.69 179.501 491.474L181.048 490.786C181.563 490.528 182.079 490.313 182.594 490.098C184.656 489.065 186.718 488.076 188.694 487Z" fill="#F79691"/>
<path d="M252.654 274.595C252.354 275.025 251.709 275.757 251.065 276.187C248.144 278.166 243.72 277.091 241.915 274.595C245.996 276.187 249.433 276.058 252.654 274.595Z" fill="#333333"/>
<path d="M220.051 274.595C220.352 275.025 220.996 275.757 221.641 276.187C224.562 278.166 228.986 277.091 230.79 274.595C226.709 276.187 223.273 276.058 220.051 274.595Z" fill="#333333"/>
<path d="M263.221 401.083H210.386C101.795 531.959 145.91 515.653 221.082 503.392C221.34 497.283 221.039 490.184 220.653 484.892C219.063 486.656 191.099 486.699 188.694 487C193.032 484.075 240.283 428.403 238.909 468.07C238.909 468.07 239.338 489.668 239.381 489.711C239.381 489.366 239.338 489.065 239.295 488.764L240.025 528.13C240.068 528.13 240.111 528.13 240.154 528.13C240.197 531.701 240.24 598.43 240.713 624.889H257.422C260.429 598.43 270.008 548.093 273.101 520.257C278.728 464.069 288.092 429.779 263.221 401.083Z" fill="#1A7F72"/>
<path d="M308.84 367.568C304.415 359.824 261.761 310.734 261.761 310.734C261.761 310.734 264.209 335.946 271.941 345.626L270.309 350.574C282.637 363.997 286.073 368.041 286.073 368.041C277.869 370.365 243.032 369.719 243.032 369.719C243.032 369.719 241.872 366.622 240.455 364.728C239.037 362.792 238.393 350.746 237.233 347.519C237.104 347.089 236.933 346.745 236.761 346.444L236.331 345.884C236.116 345.712 235.816 345.583 235.429 345.669C235.043 345.626 234.742 345.755 234.57 345.884L234.141 346.444C233.969 346.745 233.797 347.132 233.668 347.519C232.508 350.746 231.864 362.792 230.446 364.728C229.029 366.665 227.869 369.719 227.869 369.719C227.869 369.719 193.032 370.365 184.828 368.041C184.828 368.041 185.73 363.739 201.366 352.854L204.544 350.101C212.276 340.377 209.141 310.691 209.141 310.691C209.141 310.691 166.486 359.738 162.062 367.525C150.807 387.273 221.469 383.444 234.055 378.539C234.055 378.539 234.742 378.582 235.472 377.764V377.721C236.202 378.582 236.933 378.539 236.933 378.539C242.216 380.604 257.852 382.454 273.359 382.454C294.45 382.54 315.326 379.012 308.84 367.568Z" fill="#F4A082"/>
<path d="M281.649 382.54H273.273H264.682C270.266 382.798 276.065 382.798 281.649 382.54Z" fill="#FDBEB9"/>
<path d="M235.386 345.669C235.558 348.337 235.644 351.004 235.73 353.714C235.773 355.048 235.773 356.382 235.816 357.716L235.859 361.717V365.718C235.816 367.052 235.816 368.385 235.773 369.719C235.73 372.386 235.644 375.054 235.429 377.764C235.257 375.097 235.172 372.43 235.086 369.719C235.043 368.385 235.043 367.052 235 365.718L234.957 361.717V357.716C235 356.382 235 355.048 235.043 353.714C235.129 351.047 235.214 348.337 235.386 345.669Z" fill="#DB8C70"/>
<path d="M184.785 368.084C182.551 368.041 180.361 368.084 178.17 368.342C177.053 368.428 175.979 368.644 174.905 368.816C173.831 369.031 172.758 369.332 171.684 369.59C171.941 369.461 172.199 369.332 172.457 369.246L172.843 369.074L173.23 368.945L174.003 368.644L174.819 368.428C174.948 368.385 175.077 368.342 175.206 368.299L175.636 368.213C175.893 368.17 176.194 368.084 176.452 368.041C177.01 367.955 177.568 367.869 178.127 367.783C179.244 367.654 180.361 367.611 181.477 367.654C182.551 367.74 183.668 367.826 184.785 368.084Z" fill="#DB8C70"/>
<path d="M286.159 368.299C288.393 368.256 290.584 368.299 292.774 368.558C293.891 368.644 294.965 368.859 296.039 369.031C297.113 369.246 298.187 369.547 299.261 369.805C299.003 369.676 298.745 369.547 298.488 369.461L298.101 369.289L297.714 369.117L296.941 368.816L296.125 368.601C295.996 368.558 295.867 368.515 295.738 368.472L295.309 368.386C295.051 368.342 294.75 368.256 294.493 368.213C293.934 368.127 293.376 368.041 292.817 367.955C291.701 367.826 290.584 367.783 289.467 367.826C288.35 367.912 287.233 368.041 286.159 368.299Z" fill="#DB8C70"/>
<path d="M209.055 310.778C209.055 310.778 198.831 315.94 192.689 320.329C186.546 324.717 186.718 345.411 202.74 351.65C218.806 357.888 215.627 331.214 215.627 331.214L209.055 310.778Z" fill="#F57191"/>
<path d="M261.718 310.778C261.718 310.778 271.941 315.94 278.084 320.329C284.226 324.717 284.055 345.411 268.032 351.65C251.967 357.888 255.146 331.214 255.146 331.214L261.718 310.778Z" fill="#F57191"/>
<path d="M228.513 286.082C229.287 289.051 232.809 291.245 237.019 291.245C242.259 291.245 244.708 288.922 245.438 285.91L228.513 286.082Z" fill="white"/>
<path d="M210.257 270.164C210.257 270.164 228.342 262.85 237.964 251.707C237.964 251.707 237.749 257.816 235.73 259.967C236.374 260.398 248.874 255.407 251.752 245.813C254.63 236.219 237.534 239.919 237.534 239.919C237.534 239.919 227.783 238.327 227.354 238.542C226.924 238.757 219.965 242.93 219.665 243.275C219.364 243.576 210.214 256.569 210.214 256.569L207.895 261.387L207.379 268.013L210.257 270.164Z" fill="#2C2858"/>
<path opacity="0.56" d="M509.998 654.504C509.998 656.407 434.366 658.004 340.997 658.004C247.63 658.004 171.998 656.483 171.998 654.504C171.998 652.602 247.63 651.004 340.997 651.004C434.366 651.004 509.998 652.602 509.998 654.504Z" fill="black" fill-opacity="0.2"/>
</svg>
