<svg width="539" height="203" viewBox="0 0 539 203" fill="none" xmlns="http://www.w3.org/2000/svg">
<g opacity="0.5">
<path d="M538 202.035C526.377 202.571 509.695 201.605 489.355 198.495C468.692 195.384 444.262 190.128 418.002 181.868C411.437 179.83 404.764 177.47 397.984 174.896C394.648 173.608 391.204 172.214 387.868 170.819C384.532 169.318 381.088 167.816 377.644 166.314C363.761 160.414 348.371 156.124 332.335 155.051C324.371 154.515 316.407 154.729 308.551 155.587C307.582 155.695 306.614 155.802 305.645 155.909C304.676 156.016 303.708 156.124 302.739 156.338C300.802 156.66 298.973 156.982 297.035 157.304C295.206 157.733 293.269 158.162 291.439 158.591C289.609 159.02 287.78 159.556 285.95 160.093C285.089 160.307 284.121 160.629 283.26 160.843C282.399 161.165 281.43 161.487 280.569 161.702C279.708 162.023 278.74 162.345 277.879 162.56L276.587 162.989L275.296 163.525C271.852 164.812 268.408 166.207 265.072 167.494C263.35 168.138 261.735 168.781 260.014 169.425C258.292 170.069 256.677 170.712 255.063 171.463C251.834 172.858 248.606 174.145 245.377 175.539C232.57 180.903 220.624 186.052 209.001 190.128C197.593 194.848 186.4 197.207 176.069 198.28C170.903 198.709 165.952 198.816 161.217 198.495C156.589 198.173 152.177 197.422 148.195 196.349C140.231 194.204 133.989 190.45 129.684 186.588C125.379 182.726 122.904 178.865 121.289 176.183C120.428 174.896 119.998 173.823 119.675 173.072C119.352 172.321 119.137 171.999 119.137 171.999C119.137 171.999 119.245 172.428 119.567 173.072C119.89 173.823 120.321 174.896 121.074 176.29C122.473 178.972 124.949 182.941 129.253 187.017C131.406 188.948 134.096 190.986 137.217 192.809C140.338 194.526 143.998 196.135 147.98 197.315C151.962 198.495 156.482 199.246 161.217 199.675C165.952 200.104 171.011 199.996 176.176 199.567C181.45 199.138 186.831 198.28 192.427 196.993C195.225 196.349 198.024 195.598 200.929 194.633C203.727 193.668 206.526 192.595 209.431 191.522C221.055 187.446 233.216 182.297 245.915 177.041C249.144 175.754 252.372 174.359 255.601 172.965C257.215 172.214 258.937 171.678 260.552 171.034C262.166 170.39 263.888 169.747 265.61 169.103C268.946 167.816 272.39 166.529 275.834 165.241L277.125 164.705L278.417 164.276C279.278 163.954 280.139 163.74 281 163.418C281.861 163.096 282.722 162.882 283.69 162.56C284.551 162.238 285.52 162.023 286.381 161.809C288.21 161.38 289.932 160.736 291.87 160.307C293.699 159.878 295.529 159.449 297.358 159.02C299.188 158.698 301.125 158.376 302.955 158.054C303.923 157.84 304.892 157.733 305.753 157.625L308.658 157.304C316.3 156.445 324.156 156.231 332.12 156.767C347.94 157.733 363.115 162.023 376.891 167.816C380.334 169.318 383.778 170.819 387.115 172.321C390.558 173.823 393.895 175.11 397.339 176.397C404.119 178.972 410.791 181.332 417.464 183.37C443.939 191.629 468.476 196.671 489.14 199.675C509.48 202.678 526.269 203.322 538 202.571V202.035Z" fill="#FF706E"/>
<path d="M538 188.733H537.892C526.377 189.27 509.695 187.661 489.355 183.906C469.015 180.152 445.123 174.252 419.078 165.992C412.621 163.954 405.948 161.702 399.276 159.234C397.554 158.591 395.94 158.054 394.218 157.411C392.496 156.767 390.881 156.124 389.159 155.48C385.715 154.193 382.379 152.691 378.935 151.404C365.052 145.826 349.77 142.179 333.842 141.428C325.878 140.999 318.022 141.428 310.38 142.393C302.739 143.359 295.313 145.075 288.103 147.113C273.681 151.082 260.444 157.196 248.39 163.525C236.229 169.854 224.929 176.183 213.736 180.795C210.938 181.975 208.14 182.941 205.449 184.013C202.759 185.086 199.961 185.944 197.27 186.695C191.889 188.304 186.616 189.484 181.557 190.342C171.441 191.951 161.97 191.951 154.006 190.342C146.042 188.733 139.585 185.408 135.065 181.975C130.545 178.543 127.531 175.11 125.702 172.643C124.733 171.463 124.088 170.498 123.657 169.854C123.227 169.21 122.904 168.889 122.904 168.889C122.904 168.889 123.119 169.21 123.442 169.961C123.872 170.605 124.41 171.678 125.379 172.857C127.101 175.325 130.007 178.864 134.634 182.512C139.262 186.051 145.719 189.484 153.791 191.308C161.863 193.131 171.441 193.131 181.773 191.629C186.939 190.879 192.212 189.591 197.701 188.09C200.391 187.339 203.189 186.481 205.988 185.408C208.786 184.335 211.584 183.37 214.382 182.19C225.682 177.577 237.09 171.248 249.144 165.027C261.197 158.698 274.327 152.798 288.533 148.829C295.636 146.791 303.062 145.182 310.596 144.217C318.129 143.251 325.878 142.93 333.734 143.251C349.447 144.002 364.514 147.649 378.182 153.013C381.626 154.3 385.07 155.802 388.406 157.089C390.128 157.733 391.85 158.376 393.464 159.02C395.186 159.663 396.8 160.307 398.522 160.843C405.303 163.311 411.975 165.456 418.432 167.494C444.584 175.646 468.584 181.439 488.924 185.086C509.265 188.626 526.162 190.02 537.677 189.27H537.785V188.733H538Z" fill="#FF706E"/>
<path d="M538 175.861C537.785 175.861 537.569 175.861 537.354 175.861C531.65 176.075 524.655 175.861 516.583 175.003C508.512 174.145 499.364 172.643 489.355 170.498C479.346 168.352 468.369 165.778 456.853 162.452C445.23 159.234 432.961 155.373 420.154 150.975C413.805 148.722 407.347 146.255 400.782 143.466C394.218 140.677 387.33 138.21 380.227 136.064C373.124 133.919 365.805 132.095 358.272 130.701C350.738 129.306 342.99 128.341 335.133 128.019C327.277 127.697 319.421 128.126 311.887 129.306C304.246 130.486 296.928 132.632 290.04 135.099C288.318 135.635 286.596 136.279 284.874 137.03C283.152 137.673 281.43 138.317 279.816 139.068C276.48 140.462 273.143 141.857 269.915 143.359C268.3 144.109 266.686 144.86 265.072 145.611C263.457 146.362 261.951 147.22 260.336 147.971C257.215 149.473 254.202 151.082 251.189 152.691C245.162 155.802 239.458 159.127 233.754 162.131C228.05 165.134 222.454 167.816 216.965 170.283C205.988 175.11 195.333 178.757 185.324 181.01C175.315 183.262 166.06 183.906 157.988 183.048C154.006 182.619 150.24 181.761 147.011 180.795C145.397 180.152 143.782 179.723 142.383 178.972C141.63 178.65 140.984 178.328 140.231 178.006C139.585 177.685 138.939 177.255 138.294 176.934C133.343 174.145 130.114 171.034 127.962 168.889C126.886 167.816 126.24 166.85 125.702 166.314C125.164 165.778 124.949 165.456 124.841 165.456C124.841 165.456 125.056 165.778 125.487 166.421C125.917 167.065 126.67 167.923 127.639 169.103C129.684 171.356 132.913 174.574 137.863 177.577C138.509 177.899 139.155 178.328 139.8 178.65C140.446 178.972 141.199 179.294 141.953 179.615C143.352 180.366 144.966 180.903 146.688 181.546C150.024 182.619 153.791 183.477 157.881 184.013C166.06 184.872 175.531 184.335 185.539 182.19C195.656 180.044 206.418 176.397 217.503 171.677C223.099 169.318 228.696 166.529 234.4 163.525C240.104 160.522 245.808 157.304 251.834 154.085C254.848 152.584 257.861 150.867 260.982 149.366C262.489 148.615 264.103 147.864 265.717 147.006C267.332 146.255 268.946 145.504 270.56 144.753C273.789 143.251 277.018 141.857 280.354 140.462C281.968 139.711 283.69 139.175 285.412 138.532C287.134 137.888 288.856 137.244 290.578 136.708C297.466 134.241 304.676 132.203 312.21 131.023C319.636 129.843 327.385 129.414 335.133 129.736C342.882 130.057 350.523 131.023 358.057 132.31C365.483 133.597 372.801 135.421 379.796 137.566C386.792 139.711 393.679 142.071 400.137 144.86C406.702 147.649 413.267 150.117 419.616 152.369C432.423 156.874 444.8 160.522 456.423 163.74C468.046 166.958 479.023 169.532 489.14 171.57C499.256 173.608 508.404 175.003 516.583 175.754C524.763 176.612 531.758 176.719 537.569 176.29C537.785 176.29 538 176.29 538.215 176.29V175.861H538Z" fill="#FF706E"/>
<path d="M538 162.131C537.892 162.131 537.785 162.131 537.677 162.131C537.031 162.131 536.278 162.238 535.632 162.238C524.332 162.989 507.758 160.951 487.956 156.445C468.046 152.047 444.8 145.075 419.293 136.386C412.944 134.134 406.379 131.988 399.814 129.521C393.141 127.054 386.469 124.587 379.581 122.119C365.698 116.971 350.416 114.182 334.703 114.289C326.846 114.289 319.098 115.04 311.672 116.22C307.905 116.863 304.246 117.614 300.587 118.365C298.757 118.794 296.928 119.223 295.098 119.76C293.269 120.189 291.547 120.832 289.825 121.369C282.722 123.514 276.157 126.41 269.592 129.306C263.242 132.31 257 135.528 251.189 138.961C249.682 139.819 248.283 140.677 246.776 141.428C245.377 142.286 243.978 143.144 242.579 144.002C239.781 145.719 237.09 147.435 234.4 149.258C231.709 150.975 229.126 152.691 226.436 154.3C223.853 155.909 221.162 157.518 218.579 158.913C208.14 164.812 198.024 169.425 188.338 172.536C178.652 175.646 169.504 177.255 161.54 177.148C157.558 177.041 153.791 176.612 150.455 175.861C147.119 175.003 144.213 173.93 141.63 172.75C140.338 172.107 139.155 171.463 138.078 170.819C137.002 170.068 136.034 169.532 135.173 168.889C134.312 168.245 133.558 167.601 132.805 167.065C132.159 166.421 131.513 165.885 130.975 165.349C130.437 164.812 130.007 164.383 129.576 163.954C129.146 163.525 128.823 163.203 128.608 162.881C128.07 162.345 127.747 162.023 127.747 162.023C127.747 162.023 127.962 162.345 128.5 162.989C128.715 163.311 129.038 163.632 129.469 164.061C129.792 164.491 130.222 165.027 130.76 165.563C131.298 166.1 131.944 166.636 132.59 167.387C133.343 168.03 134.096 168.674 134.957 169.318C135.818 170.068 136.787 170.605 137.863 171.356C138.939 171.999 140.123 172.75 141.415 173.394C143.998 174.681 147.011 175.861 150.347 176.719C153.791 177.577 157.558 178.114 161.647 178.221C169.827 178.435 179.082 176.934 188.876 173.823C198.669 170.712 208.893 166.1 219.44 160.307C222.023 158.805 224.714 157.304 227.404 155.695C230.095 154.085 232.678 152.369 235.368 150.653C238.059 148.937 240.749 147.22 243.547 145.504C244.947 144.646 246.346 143.788 247.745 142.93C249.144 142.071 250.65 141.321 252.05 140.462C257.861 137.137 263.996 134.026 270.345 131.023C276.802 128.234 283.367 125.338 290.363 123.192C292.085 122.656 293.807 122.012 295.636 121.583C297.466 121.154 299.188 120.618 301.017 120.296C304.676 119.438 308.336 118.794 311.995 118.151C319.421 116.971 327.062 116.327 334.81 116.327C350.308 116.22 365.375 119.009 379.043 124.05C385.931 126.517 392.711 128.985 399.383 131.452C406.056 133.812 412.621 136.064 418.97 138.21C444.584 146.791 467.938 153.656 487.848 157.947C507.758 162.238 524.44 164.169 535.847 163.203C536.601 163.203 537.247 163.096 537.892 163.096C538 163.096 538.108 163.096 538.215 163.096V162.131H538Z" fill="#FF706E"/>
<path d="M538 148.937C537.139 149.044 536.386 149.151 535.417 149.258C529.821 149.688 522.825 149.58 514.861 148.508C506.897 147.542 497.857 145.826 488.064 143.466C468.369 138.746 445.338 131.237 420.154 122.334C413.805 120.081 407.347 117.829 400.783 115.469C397.446 114.289 394.11 113.109 390.666 112.036C387.222 110.964 383.778 109.784 380.119 109.033C365.806 105.815 350.631 103.777 335.133 103.884C319.636 103.991 304.354 106.244 290.47 111.071C276.587 115.898 263.996 122.441 252.48 129.199C249.574 130.916 246.776 132.632 243.978 134.348C241.18 136.064 238.489 137.781 235.799 139.497C230.418 142.93 225.359 146.362 220.194 149.366C210.077 155.48 200.176 160.736 190.813 164.491C181.45 168.245 172.517 170.498 164.553 171.034C160.571 171.249 156.805 171.141 153.468 170.605C150.132 170.069 147.119 169.21 144.536 168.138C143.244 167.601 142.06 166.958 140.984 166.421C139.908 165.778 138.832 165.241 137.971 164.598C137.11 163.954 136.249 163.418 135.495 162.882C134.85 162.238 134.204 161.702 133.558 161.273C133.02 160.843 132.482 160.307 132.159 159.985C131.729 159.556 131.406 159.234 131.191 159.02C130.652 158.484 130.33 158.269 130.33 158.269C130.33 158.269 130.545 158.591 131.083 159.127C131.298 159.449 131.621 159.771 132.052 160.2C132.482 160.629 132.913 161.165 133.451 161.594C133.989 162.131 134.634 162.667 135.28 163.311C136.034 163.847 136.787 164.491 137.648 165.134C138.509 165.778 139.585 166.314 140.661 167.065C141.737 167.709 143.029 168.245 144.32 168.889C146.903 170.069 150.024 170.927 153.468 171.57C156.912 172.107 160.679 172.321 164.769 172.107C172.948 171.678 181.988 169.425 191.459 165.671C200.929 161.916 210.938 156.875 221.162 150.653C226.328 147.649 231.494 144.217 236.767 140.784C239.458 139.068 242.148 137.352 244.947 135.635C247.745 133.919 250.543 132.203 253.449 130.594C264.964 123.836 277.556 117.4 291.224 112.68C304.892 107.96 319.959 105.815 335.349 105.707C350.739 105.6 365.806 107.531 380.012 110.749C383.563 111.5 387.007 112.573 390.343 113.645C393.787 114.718 397.123 115.898 400.352 117.078C407.025 119.438 413.482 121.69 419.832 123.943C445.123 132.846 468.261 140.141 488.064 144.753C497.965 147.006 507.005 148.722 515.077 149.58C523.148 150.438 530.144 150.546 535.848 150.009C536.709 149.902 537.57 149.795 538.323 149.688V148.937H538Z" fill="#FF706E"/>
<path d="M304.354 127.268C304.246 127.161 304.138 127.268 303.923 127.268C303.815 127.268 303.708 127.376 303.493 127.376C303.385 127.376 303.17 127.483 302.955 127.483C302.201 127.698 301.34 127.59 300.156 127.161C298.219 126.518 296.174 125.445 294.991 127.805C294.56 128.77 294.452 129.521 294.345 130.916C294.345 132.846 294.452 135.206 294.775 137.137C294.883 137.995 294.991 138.853 294.991 139.819C294.991 140.033 295.098 141.964 294.991 142.501C294.668 142.179 293.269 141.857 292.515 141.964C291.116 142.071 289.932 142.715 289.502 142.93C288.641 143.466 288.103 144.539 288.426 145.719C288.748 146.791 289.609 147.435 290.793 147.435C291.009 147.435 291.116 147.435 291.331 147.435C292.192 147.328 293.161 147.113 294.022 146.791C296.928 145.397 296.605 141.535 296.282 138.853C296.174 137.244 295.959 135.635 295.744 134.026C295.636 132.632 295.852 132.096 297.251 132.096C298.327 132.096 299.403 132.31 300.479 132.203C301.34 132.096 302.309 131.774 302.955 131.237C303.6 130.701 303.923 129.95 304.031 129.307C304.461 128.448 304.354 127.268 304.354 127.268Z" fill="#477E7F"/>
<path d="M221.916 181.761C222.777 183.37 225.144 183.263 226.651 182.297C227.404 181.868 228.48 181.224 228.911 180.581C229.664 179.508 229.234 178.328 229.126 177.148C228.911 175.539 228.373 173.608 227.942 171.999C227.297 169.639 226.759 167.494 226.328 165.992C226.113 165.241 226.005 164.598 226.005 164.169C225.898 163.74 226.005 163.632 226.005 163.525C226.005 163.525 225.898 163.525 225.79 163.632C225.682 163.74 225.575 163.954 225.575 164.169C225.467 164.705 225.467 165.349 225.575 166.1C225.682 167.709 226.22 169.961 226.866 172.321C227.189 173.823 228.05 175.646 228.05 177.148C226.758 177.255 225.252 177.47 224.068 177.899C222.884 178.328 221.808 179.401 221.916 180.688C221.7 181.117 221.808 181.439 221.916 181.761Z" fill="#325F62"/>
<path d="M245.485 150.975C244.408 149.58 242.041 150.224 240.749 151.297C240.104 151.833 239.243 152.691 238.92 153.442C238.382 154.729 239.027 155.695 239.458 156.875C239.996 158.376 240.965 160.2 241.61 161.702C242.686 163.954 243.655 165.885 244.408 167.28C244.731 168.031 244.947 168.567 245.162 168.996C245.269 169.425 245.269 169.532 245.377 169.64C245.377 169.64 245.485 169.64 245.592 169.532C245.7 169.425 245.7 169.21 245.7 168.996C245.7 168.46 245.592 167.816 245.377 167.065C244.947 165.456 243.978 163.418 242.902 161.273C242.256 159.878 241.072 158.269 240.857 156.767C242.041 156.446 243.547 155.909 244.624 155.266C245.7 154.515 246.561 153.442 246.238 152.048C245.808 151.511 245.7 151.189 245.485 150.975Z" fill="#477E7F"/>
<path d="M164.769 168.245C163.585 165.242 161.432 162.667 158.742 161.165C156.051 159.664 153.038 159.127 150.24 159.342C148.841 159.449 147.549 159.771 146.258 160.2C145.074 160.736 143.89 161.38 142.921 162.238C141.845 163.203 141.092 164.383 140.661 165.563V165.671V165.778C140.554 166.1 140.338 166.421 140.338 166.958C140.231 167.387 140.123 168.031 140.123 168.567C140.123 169.747 140.446 171.356 141.415 172.643C141.63 172.965 141.953 173.287 142.276 173.608C142.598 173.823 143.029 174.145 143.459 174.359C144.32 174.788 145.181 175.003 146.258 175.003C147.226 175.003 148.302 174.574 149.056 174.038C149.809 173.501 150.347 172.643 150.455 171.785C150.67 170.819 150.455 169.961 150.132 169.318C149.701 168.674 149.163 168.138 148.625 167.816C147.441 167.172 144.536 167.494 143.89 167.601C143.244 167.709 143.782 165.456 144.32 164.598C145.935 162.345 148.302 161.273 150.885 160.951C155.836 160.414 162.078 163.954 163.154 169.103C164.23 173.93 162.293 179.401 157.773 182.834C156.159 184.121 154.114 184.979 152.392 185.73C150.67 186.588 148.948 187.232 147.334 187.661C144.966 188.304 142.598 188.948 140.338 189.591C139.047 189.913 138.186 190.021 138.078 191.522C138.078 192.059 138.078 192.488 138.186 192.917C138.294 193.668 138.509 194.204 138.724 194.633C138.724 194.74 138.832 194.955 139.047 195.062C139.047 195.062 139.155 195.062 139.155 195.169H139.262C139.37 195.277 139.477 195.277 139.693 195.277C140.123 195.384 140.661 195.277 141.199 195.277C143.459 195.169 146.796 194.526 150.67 193.024C152.607 192.273 154.652 191.308 156.697 190.021C158.742 188.733 160.894 187.124 162.616 184.979C165.952 181.01 167.244 174.252 164.769 168.245Z" fill="#325F62"/>
<path d="M174.239 168.567C172.948 168.138 171.333 168.674 171.011 170.605C170.688 173.93 174.132 174.145 175.208 172.429C176.284 170.605 175.531 168.996 174.239 168.567Z" fill="#325F62"/>
<path d="M174.454 177.47C173.163 177.041 171.549 177.577 171.226 179.508C170.795 182.834 174.347 183.048 175.423 181.332C176.499 179.508 175.746 177.899 174.454 177.47Z" fill="#325F62"/>
<path d="M274.65 114.182C274.327 114.289 273.574 114.718 272.498 115.147C271.744 115.469 270.883 115.684 269.807 116.005C268.731 116.22 267.547 116.542 266.363 116.863C263.996 117.614 261.843 118.473 260.336 119.438C259.798 119.76 257.753 120.725 257.753 121.369C257.753 121.905 258.076 122.763 258.292 123.514C258.722 125.123 259.691 127.161 260.659 129.414C261.52 131.13 262.274 132.739 262.812 134.134C261.951 134.026 261.09 134.241 260.229 134.67C258.937 135.314 258.076 136.279 257.753 136.708C257.108 137.459 257.108 138.746 257.753 139.604C258.399 140.463 259.475 140.784 260.552 140.355C260.659 140.248 260.875 140.248 260.982 140.141C261.735 139.712 264.211 138.317 264.318 136.172C264.426 134.992 263.78 133.919 263.35 132.846C262.812 131.452 262.274 130.165 261.628 128.878C261.413 128.341 260.444 125.981 260.229 125.552C260.659 125.338 261.197 125.123 261.951 124.694C263.35 123.943 265.395 122.978 267.762 122.227C268.946 121.905 270.13 121.583 271.206 121.261C272.282 120.94 273.251 120.511 274.004 120.082C274.65 119.652 275.188 119.331 275.511 119.009C276.049 120.082 277.341 123.192 277.879 124.372C279.063 126.839 280.246 129.092 281 130.808C280.139 130.808 279.385 130.916 278.524 131.345C277.233 131.988 276.372 132.954 276.049 133.383C275.403 134.134 275.403 135.421 276.049 136.386C276.695 137.244 277.771 137.566 278.847 137.137C278.955 137.03 279.17 137.03 279.385 136.923C280.139 136.494 281 135.957 281.538 135.314C283.475 133.168 282.829 132.096 281 128.019C280.354 126.625 279.816 125.23 279.063 123.836C277.771 121.154 276.695 118.902 275.834 117.078C275.403 116.22 274.865 114.933 274.65 114.182C274.865 114.075 274.758 114.075 274.65 114.182Z" fill="#325F62"/>
<path d="M206.31 155.373C205.988 155.48 205.234 155.909 204.158 156.231C203.405 156.445 202.544 156.66 201.467 156.874C200.391 157.089 199.207 157.304 198.024 157.625C195.548 158.269 193.396 159.02 191.889 159.878C191.351 160.2 189.306 161.058 189.199 161.702C189.199 162.238 189.414 163.096 189.629 163.954C190.06 165.563 190.813 167.709 191.674 169.961C192.427 171.785 193.073 173.394 193.611 174.788C192.75 174.681 191.889 174.788 191.028 175.217C189.737 175.754 188.768 176.719 188.445 177.041C187.692 177.792 187.692 179.079 188.338 179.937C188.983 180.903 190.06 181.224 191.136 180.795C191.243 180.688 191.459 180.688 191.674 180.581C192.427 180.259 194.903 178.972 195.225 176.826C195.333 175.646 194.795 174.574 194.472 173.501C194.042 172.107 193.503 170.819 192.965 169.425C192.75 168.889 192.535 168.459 192.32 167.923C192.75 167.816 193.288 167.494 194.042 167.172C195.548 166.529 197.593 165.563 199.961 165.027C201.145 164.705 202.328 164.49 203.405 164.169C204.481 163.954 205.449 163.525 206.203 163.203C206.956 162.881 207.387 162.452 207.817 162.131C208.248 163.203 208.786 164.49 209.324 165.778C210.4 168.352 211.369 170.605 212.122 172.321C211.261 172.214 210.508 172.428 209.539 172.75C208.248 173.287 207.279 174.252 206.956 174.574C206.203 175.325 206.203 176.612 206.849 177.577C207.494 178.543 208.57 178.864 209.647 178.435C209.754 178.328 209.97 178.328 210.185 178.221C211.046 177.899 211.799 177.363 212.445 176.719C214.49 174.681 213.952 173.608 212.23 169.425C211.691 168.03 211.153 166.636 210.508 165.241C209.324 162.452 208.463 160.092 207.709 158.376C207.279 157.518 206.849 156.124 206.633 155.373C206.418 155.265 206.31 155.265 206.31 155.373Z" fill="#477E7F"/>
<path d="M332.443 124.479C332.12 122.763 329.645 122.227 328.03 122.656C327.169 122.87 325.986 123.192 325.34 123.729C324.264 124.587 324.371 125.767 324.264 127.054C324.048 128.663 324.048 130.701 323.941 132.31C323.833 134.777 323.941 136.923 323.833 138.532C323.833 139.282 323.726 139.926 323.726 140.355C323.618 140.784 323.51 140.892 323.618 140.999C323.618 140.999 323.726 140.999 323.833 140.999C323.941 140.892 324.156 140.784 324.264 140.57C324.479 140.141 324.694 139.497 324.802 138.639C325.125 137.03 325.232 134.777 325.34 132.31C325.34 130.808 325.125 128.77 325.555 127.376C326.847 127.59 328.246 127.805 329.537 127.698C330.829 127.59 332.12 126.947 332.443 125.552C332.443 125.123 332.443 124.801 332.443 124.479Z" fill="#325F62"/>
<path d="M353.859 114.074C353.537 112.358 351.061 111.822 349.447 112.251C348.586 112.465 347.402 112.787 346.757 113.324C345.68 114.182 345.788 115.362 345.68 116.649C345.465 118.258 345.465 120.296 345.357 121.905C345.25 124.372 345.357 126.518 345.25 128.127C345.25 128.877 345.142 129.521 345.142 129.95C345.035 130.379 344.927 130.487 345.035 130.594C345.035 130.594 345.142 130.594 345.25 130.594C345.357 130.487 345.573 130.379 345.68 130.165C345.896 129.736 346.111 129.092 346.218 128.234C346.541 126.625 346.649 124.372 346.757 121.905C346.757 120.403 346.541 118.365 346.972 116.971C348.263 117.185 349.662 117.4 350.954 117.292C352.245 117.185 353.537 116.542 353.859 115.147C353.967 114.718 353.967 114.396 353.859 114.074Z" fill="#477E7F"/>
<path d="M378.182 129.95C378.074 129.843 377.967 129.95 377.751 129.95C377.644 129.95 377.536 130.057 377.321 130.057C377.213 130.057 376.998 130.165 376.783 130.165C376.03 130.379 375.169 130.272 373.985 129.843C372.048 129.199 370.003 128.127 368.819 130.486C368.388 131.452 368.281 132.203 368.173 133.597C368.173 135.528 368.281 137.888 368.604 139.819C368.711 140.677 368.819 141.535 368.819 142.5C368.819 142.715 368.927 144.646 368.819 145.182C368.496 144.86 367.097 144.539 366.344 144.646C364.945 144.753 363.761 145.397 363.33 145.611C362.469 146.148 361.931 147.22 362.254 148.4C362.577 149.473 363.438 150.117 364.622 150.117C364.729 150.117 364.945 150.117 365.16 150.117C366.021 150.009 366.989 149.795 367.85 149.473C370.756 148.078 370.433 144.217 370.11 141.535C370.003 139.926 369.787 138.317 369.572 136.708C369.465 135.314 369.68 134.777 371.079 134.777C372.155 134.777 373.231 134.992 374.308 134.884C375.169 134.777 376.137 134.455 376.783 133.919C377.429 133.383 377.751 132.632 377.859 131.988C378.29 131.237 378.29 130.057 378.182 129.95Z" fill="#325F62"/>
<path d="M415.634 143.788C415.527 142.715 414.666 141.857 413.482 141.75C413.374 141.75 413.159 141.75 412.944 141.75C412.083 141.75 409.285 141.75 408.101 143.573C407.455 144.539 407.455 145.826 407.347 146.899C407.132 148.293 406.917 155.587 406.809 156.982C406.809 157.518 406.702 160.522 406.702 161.058C406.271 160.951 405.625 160.951 404.872 160.951C403.258 160.951 400.998 160.844 398.63 160.307C397.446 160.093 396.262 159.771 395.186 159.556C394.11 159.342 393.034 159.235 392.173 159.235C391.527 159.235 390.989 159.342 390.558 159.449C390.666 157.196 390.774 152.584 390.989 151.082C391.635 151.511 392.496 151.726 393.464 151.833C394.863 151.94 396.155 151.511 396.585 151.297C397.554 150.975 398.2 149.795 397.984 148.722C397.877 147.65 397.016 146.791 395.832 146.684C395.724 146.684 395.509 146.684 395.294 146.684C394.433 146.684 393.464 146.684 392.603 147.006C389.913 147.864 389.913 149.151 389.59 153.657C389.482 155.158 389.375 156.66 389.267 158.162C388.837 161.38 388.514 163.847 388.514 164.062C388.621 164.169 388.514 164.169 389.052 164.276C389.482 164.383 389.913 164.276 390.989 164.491C391.742 164.598 392.603 164.705 393.679 164.812C394.756 164.92 395.832 165.242 397.123 165.563C399.599 166.1 401.859 166.314 403.581 166.207C404.119 166.207 407.025 166.314 407.347 165.778C407.563 165.349 407.563 164.705 407.67 163.847C407.885 162.238 407.993 159.771 408.208 157.411C408.316 155.48 408.531 147.864 408.746 146.47C409.5 146.899 410.361 147.22 411.222 147.22C412.621 147.328 413.912 146.899 414.343 146.684C415.204 146.04 415.742 144.968 415.634 143.788Z" fill="#477E7F"/>
<path d="M384.532 124.908C384.747 126.625 387.007 127.483 388.729 127.161C389.59 127.054 390.774 126.839 391.527 126.41C392.603 125.659 392.711 124.479 392.926 123.299C393.249 121.69 393.572 119.76 393.787 118.043C394.11 115.576 394.325 113.431 394.54 111.822C394.648 111.071 394.756 110.427 394.863 109.998C394.971 109.569 395.079 109.462 395.079 109.355C395.079 109.355 394.971 109.247 394.863 109.355C394.756 109.462 394.54 109.569 394.433 109.784C394.11 110.213 393.895 110.856 393.679 111.607C393.249 113.216 392.819 115.362 392.496 117.829C392.28 119.331 392.388 121.369 391.742 122.763C390.558 122.441 389.052 122.012 387.76 122.012C386.469 122.012 385.177 122.549 384.639 123.836C384.532 124.265 384.424 124.587 384.532 124.908Z" fill="#325F62"/>
<path d="M444.907 137.888C444.8 137.781 444.692 137.888 444.477 137.888C444.369 137.888 444.262 137.995 444.046 137.995C443.939 137.995 443.723 138.103 443.508 138.103C442.755 138.317 441.894 138.21 440.71 137.781C438.773 137.137 436.728 136.065 435.544 138.424C435.114 139.39 435.006 140.141 434.899 141.535C434.899 143.466 435.006 145.826 435.329 147.757C435.437 148.615 435.544 149.473 435.544 150.438C435.544 150.653 435.652 152.584 435.544 153.12C435.221 152.798 433.822 152.477 433.069 152.584C431.67 152.691 430.486 153.335 430.056 153.549C429.195 154.086 428.657 155.158 428.979 156.338C429.302 157.411 430.163 158.055 431.347 158.055C431.455 158.055 431.67 158.055 431.885 158.055C432.746 157.947 433.715 157.733 434.576 157.411C437.481 156.016 437.159 152.155 436.836 149.473C436.728 147.864 436.513 146.255 436.298 144.646C436.19 143.251 436.405 142.715 437.804 142.715C438.881 142.715 439.957 142.93 441.033 142.822C441.894 142.715 442.863 142.393 443.508 141.857C444.154 141.321 444.477 140.57 444.584 139.926C445.015 139.068 444.907 137.888 444.907 137.888Z" fill="#477E7F"/>
<path d="M412.836 1.07268C412.621 1.39449 412.298 1.93083 411.975 2.35991C411.652 2.89625 411.329 3.53986 410.791 4.18347C408.962 6.97245 405.948 10.7268 401.321 14.9103C400.137 15.983 398.845 16.9484 397.554 18.0211C396.801 18.5574 396.155 19.0938 395.401 19.5229C395.079 19.7374 394.648 20.0592 394.325 20.2737C393.895 20.4883 393.572 20.8101 393.141 21.0246C390.02 23.17 386.254 25.1008 382.272 26.9244C374.2 30.5715 364.406 33.575 353.429 35.3986C342.344 37.2222 330.075 37.8658 316.945 36.7931C310.38 36.2567 303.6 35.2913 296.82 33.6823C295.098 33.2532 293.376 32.8242 291.654 32.3951C289.932 31.8587 288.21 31.4297 286.489 30.8933C283.045 29.8206 279.601 28.5334 276.157 27.2462C262.166 22.3118 247.422 17.0557 231.709 12.8722C215.996 8.68875 199.53 5.57796 182.418 3.53986C165.307 1.7163 148.41 2.0381 132.267 3.32532C116.124 4.61254 100.626 7.40152 86.2048 11.3705C71.7836 15.2321 58.4385 19.7374 46.062 24.5645C33.6855 29.3916 22.4929 34.4332 12.4841 39.5821C7.96399 42.0492 3.87437 44.3019 0 46.6618V48.0563C4.08962 45.6964 8.39448 43.3365 13.0222 40.9766C23.031 35.9349 34.2236 30.8933 46.6001 26.1735C58.9766 21.4537 72.3217 17.0557 86.6353 13.194C100.949 9.22509 116.231 6.65064 132.374 5.36342C148.41 4.0762 165.199 3.7544 182.203 5.57796C199.207 7.61606 215.674 10.6196 231.171 14.803C246.776 18.9865 261.413 24.1354 275.511 29.0698C279.063 30.2497 282.399 31.5369 285.95 32.7169C287.672 33.3605 289.394 33.7896 291.116 34.2186C292.838 34.6477 294.56 35.0768 296.282 35.5059C303.17 37.0076 310.058 37.973 316.623 38.5094C329.86 39.5821 342.344 38.8312 353.429 36.9004C364.514 34.9695 374.415 31.8587 382.487 28.1043C386.577 26.1735 390.236 24.1354 393.357 21.99C393.787 21.7755 394.11 21.4537 394.541 21.2392C394.971 20.9173 395.294 20.7028 395.617 20.381C396.37 19.8447 397.123 19.3083 397.769 18.772C399.061 17.592 400.46 16.6266 401.536 15.5539C406.164 11.2632 409.177 7.29426 410.899 4.50528C411.329 3.86166 411.76 3.21805 411.975 2.57444C412.298 2.0381 412.513 1.60903 412.729 1.17995C413.159 0.429074 413.267 0 413.267 0C413.59 0 413.267 0.321805 412.836 1.07268Z" fill="#82BAB0"/>
<path d="M412.944 8.68874C412.729 9.01055 412.406 9.54689 412.083 9.97596C411.76 10.5123 411.437 11.1559 410.899 11.7995C409.069 14.5885 406.056 18.3429 401.428 22.5264C400.244 23.5991 398.953 24.5645 397.662 25.6372C396.908 26.1735 396.262 26.7098 395.509 27.2462C395.186 27.4607 394.756 27.7825 394.433 28.1043C394.002 28.3189 393.68 28.6407 393.249 28.8552C390.128 31.0006 386.469 32.9314 382.379 34.755C374.308 38.4021 364.622 41.5129 353.537 43.3365C342.559 45.16 330.183 45.8036 317.053 44.7309C310.488 44.1946 303.816 43.2292 296.928 41.6202C293.484 40.762 290.148 39.9039 286.704 38.7239C283.26 37.6512 279.816 36.364 276.264 35.1841C269.269 32.8241 262.058 30.357 254.525 28.1043C250.866 26.9244 246.991 25.8517 243.225 24.779C239.35 23.7063 235.584 22.6336 231.602 21.6682C223.745 19.6301 215.674 17.9138 207.494 16.5193C199.207 15.0176 190.813 14.0522 182.203 13.4086C173.594 12.7649 165.091 12.6577 156.697 12.9795C148.302 13.194 140.016 14.374 132.052 15.6612C116.124 18.4502 100.841 21.99 86.743 27.0317C72.8598 32.0733 59.8376 37.544 47.784 43.0146C35.7304 48.5926 24.8606 54.2778 15.067 59.8558C9.68594 62.9666 4.62773 66.0774 0 69.1882V70.5826C4.84297 67.3646 10.1164 64.1465 15.8204 60.9285C25.6139 55.4578 36.4837 49.7726 48.5373 44.3019C60.5909 38.8312 73.6131 33.4678 87.6039 28.6407C101.595 23.7063 116.769 20.2737 132.697 17.4848C140.661 16.1975 148.733 15.0176 157.02 14.803C165.307 14.4812 173.809 14.5885 182.311 15.2321C190.813 15.8757 199.207 16.8411 207.387 18.3429C215.566 19.7374 223.638 21.4537 231.386 23.3845C235.261 24.3499 239.135 25.4226 243.009 26.388C246.776 27.4607 250.543 28.5334 254.31 29.7134C261.736 31.966 268.946 34.3259 275.942 36.6858C279.493 37.8658 282.829 39.153 286.381 40.2257C289.825 41.4056 293.376 42.2638 296.82 43.1219C303.708 44.6237 310.596 45.5891 317.161 46.1254C330.398 47.1981 342.882 46.4472 353.967 44.5164C365.052 42.5856 374.846 39.4748 383.025 35.6131C387.007 33.6823 390.774 31.6442 393.895 29.4988C394.325 29.2843 394.648 28.9625 395.079 28.7479C395.509 28.4261 395.832 28.2116 396.155 27.8898C396.908 27.3535 397.662 26.8171 398.307 26.2808C399.599 25.1008 400.998 24.1354 402.074 23.0627C406.702 18.772 409.608 14.803 411.329 12.0141C411.76 11.3705 412.19 10.7268 412.406 10.0832C412.729 9.54689 412.944 9.11782 413.159 8.68874C413.59 7.93786 413.697 7.50879 413.697 7.50879C413.697 7.61606 413.374 8.04513 412.944 8.68874Z" fill="#82BAB0"/>
<path d="M413.051 16.3049C412.836 16.6267 412.513 17.0558 412.19 17.5921C411.868 18.1285 411.545 18.7721 411.007 19.4157C409.177 22.0974 406.271 25.9591 401.644 30.0353C397.123 34.2187 390.774 38.4022 382.917 42.1566C374.953 45.8037 365.375 48.9145 354.505 50.7381C343.636 52.5616 331.474 53.3125 318.56 52.3471C312.102 51.8108 305.43 50.9526 298.757 49.4508C295.421 48.7 291.977 47.8418 288.641 46.7691C285.305 45.6965 281.861 44.5165 278.309 43.4438C274.865 42.2639 271.314 41.1912 267.762 40.0112C264.103 39.0458 260.444 37.9731 256.785 37.0077C254.955 36.4714 253.126 35.935 251.189 35.5059C249.251 35.0769 247.422 34.6478 245.485 34.2187C243.548 33.7897 241.61 33.3606 239.673 32.9315C237.736 32.5024 235.799 32.0734 233.862 31.7516C229.88 31.1079 225.898 30.3571 221.916 29.7135C219.871 29.2844 217.934 29.1771 215.889 28.8553C213.844 28.6408 211.799 28.4262 209.754 28.1044C207.71 27.8899 205.665 27.6754 203.62 27.3535C201.575 27.2463 199.423 27.139 197.378 26.9245C195.333 26.8172 193.181 26.7099 191.136 26.4954C188.983 26.3881 186.939 26.1736 184.786 26.2809C180.589 26.2809 176.284 26.1736 172.194 26.1736C170.15 26.0663 167.997 26.2809 165.952 26.3881C163.908 26.4954 161.755 26.6027 159.71 26.7099C151.423 26.9245 143.352 27.7826 135.388 29.1771C127.532 30.5716 119.783 32.3952 112.464 34.7551C105.146 37.2222 98.1508 39.904 91.3707 42.5857C64.0348 53.4198 40.1428 65.0048 21.3091 76.5898C13.2374 81.6314 6.13443 86.5657 0 91.5001V92.8946C6.24205 87.9602 13.6679 82.9186 21.9548 77.7697C40.8962 66.292 64.6805 54.9215 91.9088 44.1947C98.6889 41.513 105.792 38.8313 113.003 36.4714C120.213 34.1115 127.854 32.2879 135.603 31.0007C143.459 29.7135 151.423 28.748 159.71 28.5335C161.755 28.4262 163.8 28.319 165.845 28.319C167.89 28.2117 169.934 28.1044 172.087 28.1044C176.284 28.1044 180.481 28.2117 184.679 28.2117C186.831 28.2117 188.876 28.319 190.921 28.4262C192.965 28.5335 195.118 28.6408 197.163 28.8553C199.207 28.9626 201.36 29.0698 203.405 29.2844C205.449 29.4989 207.494 29.7135 209.539 30.0353C211.584 30.2498 213.629 30.4643 215.674 30.7861C217.718 31.0007 219.763 31.2152 221.7 31.6443C225.682 32.2879 229.664 33.0388 233.539 33.6824C235.476 34.0042 237.413 34.4333 239.35 34.8623C241.287 35.2914 243.225 35.7205 245.054 36.1496C246.991 36.5786 248.821 37.0077 250.758 37.4368C252.588 37.8659 254.525 38.4022 256.354 38.9385C260.014 39.904 263.673 40.9766 267.332 41.9421C270.883 43.122 274.435 44.1947 277.879 45.3746C281.323 46.5546 284.767 47.6273 288.21 48.7C291.654 49.6654 295.098 50.6308 298.542 51.3817C305.322 52.8834 312.102 53.7416 318.667 54.1707C331.69 55.1361 343.958 54.2779 354.936 52.3471C365.913 50.4163 375.599 47.1982 383.563 43.4438C391.527 39.5821 397.877 35.1841 402.397 30.8934C406.917 26.6027 409.823 22.741 411.545 19.952C411.975 19.3084 412.406 18.6648 412.621 18.1285C412.944 17.5921 413.159 17.163 413.374 16.734C413.805 15.9831 413.912 15.6613 413.912 15.554C413.697 15.2322 413.482 15.6613 413.051 16.3049Z" fill="#82BAB0"/>
<path d="M413.697 24.2426C413.482 24.5644 413.267 24.9935 412.944 25.5298C412.621 26.0662 412.298 26.7098 411.76 27.3534C409.93 30.0351 407.025 33.7895 402.612 37.8657C401.536 38.9384 400.244 39.9038 398.953 40.9765C398.307 41.5128 397.554 41.9419 396.908 42.4782C396.155 43.0146 395.509 43.5509 394.648 44.0873C391.527 46.1254 388.083 48.1635 384.209 50.0943C380.334 51.9179 376.03 53.6342 371.294 55.2432C366.667 56.7449 361.608 58.0322 356.227 59.1049C345.573 61.143 333.519 62.1084 320.712 61.4648C314.362 61.143 307.69 60.3921 301.017 59.1049C297.681 58.4612 294.345 57.7104 290.901 56.745C289.179 56.3159 287.565 55.7795 285.843 55.2432C284.121 54.7069 282.399 54.0632 280.785 53.5269C273.897 51.167 266.794 49.0216 259.475 46.9835C252.157 45.0527 244.624 43.2291 236.767 41.8346C229.019 40.4401 221.055 39.2602 212.875 38.5093C204.696 37.8657 196.409 37.3294 188.122 37.5439C186.078 37.5439 183.925 37.6512 181.88 37.7584C179.836 37.8657 177.683 37.8657 175.638 38.0802C173.594 38.2948 171.549 38.402 169.504 38.5093C167.459 38.7239 165.414 38.9384 163.369 39.1529C161.325 39.3675 159.28 39.6893 157.343 40.0111C155.298 40.3329 153.361 40.5474 151.316 40.9765C147.334 41.7274 143.459 42.6928 139.585 43.6582C124.303 47.7344 109.882 52.6687 96.4289 58.0322C69.5235 68.6517 46.1696 80.8804 28.1968 93.4308C19.2643 99.7596 11.6231 106.196 5.4887 112.417C3.44389 114.455 1.61432 116.493 0 118.532V119.926C1.82957 117.673 3.982 115.421 6.24205 113.168C12.3765 107.054 20.0176 100.725 28.9502 94.5034C46.923 82.0603 70.1692 70.0462 97.0746 59.5339C110.527 54.2778 124.949 49.3434 140.123 45.3745C143.89 44.4091 147.764 43.4437 151.639 42.6928C153.576 42.2637 155.621 42.0492 157.558 41.7274C159.603 41.4056 161.54 41.0838 163.585 40.8692C165.63 40.6547 167.674 40.4401 169.612 40.2256C171.656 40.0111 173.701 39.9038 175.746 39.7965C177.791 39.582 179.836 39.582 181.88 39.4747C183.925 39.4747 185.97 39.2602 188.122 39.2602C196.409 39.1529 204.696 39.582 212.768 40.2256C220.839 40.8692 228.696 42.1564 236.444 43.4437C244.193 44.8382 251.727 46.6617 258.937 48.4853C266.256 50.5234 273.359 52.5615 280.139 54.9214C283.583 55.9941 287.027 57.2813 290.363 58.1394C293.807 59.1049 297.251 59.8557 300.587 60.4994C307.367 61.7866 314.04 62.4302 320.497 62.752C333.411 63.2883 345.573 62.3229 356.335 60.0703C361.716 58.9976 366.774 57.6031 371.51 56.1013C376.245 54.4923 380.55 52.6688 384.424 50.8452C388.298 48.9144 391.85 46.769 394.971 44.7309C395.724 44.1945 396.478 43.6582 397.231 43.1219C397.984 42.5855 398.63 42.0492 399.276 41.5128C400.567 40.4401 401.859 39.3675 402.935 38.2948C407.347 34.1113 410.253 30.1424 411.975 27.4607C412.406 26.817 412.729 26.1734 413.051 25.6371C413.374 25.1008 413.59 24.6717 413.805 24.2426C414.235 23.4917 414.343 23.1699 414.343 23.1699C414.343 23.1699 414.128 23.4917 413.697 24.2426Z" fill="#82BAB0"/>
<path d="M413.805 34.4331C413.374 35.0767 412.836 36.1494 411.868 37.5439C410.146 40.2256 407.24 43.98 402.72 48.0562C400.46 50.0943 397.877 52.1324 394.863 54.2778C391.742 56.3159 388.298 58.354 384.532 60.1776C380.657 62.0011 376.352 63.8247 371.725 65.3264C367.097 66.8282 362.039 68.1154 356.765 69.1881C346.111 71.3335 334.272 72.2989 321.466 71.6553C308.766 71.0117 295.206 68.8663 281.753 64.0392C280.031 63.5029 278.309 62.8593 276.587 62.3229C274.865 61.7866 273.036 61.2502 271.314 60.7139C267.762 59.6412 264.211 58.6758 260.552 57.7104C253.233 55.8868 245.7 54.2778 237.951 52.9906C222.454 50.5234 206.095 49.4507 189.522 50.0943C181.235 50.4161 172.948 51.167 164.984 52.2397C162.939 52.4542 161.002 52.8833 158.957 53.0978C157.02 53.4196 154.975 53.6342 153.038 54.0633C149.056 54.8141 145.289 55.8868 141.522 56.9595C133.989 59.2121 126.778 61.8939 119.675 64.6828C112.68 67.4718 105.9 70.3681 99.3347 73.4788C73.2903 85.8147 51.1202 99.5451 34.2236 113.383C25.8292 120.248 18.7261 127.22 13.0222 133.764C10.224 136.982 7.74875 140.307 5.59632 143.311C4.62773 144.812 3.55151 146.314 2.69054 147.709C1.82957 149.21 1.07622 150.605 0.322865 151.892C0.215243 152.107 0.107622 152.321 0 152.536V154.037C0.322865 153.501 0.538108 152.857 0.968594 152.321C1.72194 151.034 2.58292 149.639 3.33627 148.245C4.30486 146.85 5.27346 145.349 6.34967 143.847C8.5021 140.843 10.9774 137.733 13.7756 134.515C19.4795 128.078 26.5825 121.321 34.977 114.455C51.8736 100.725 74.0436 87.1019 100.088 74.8733C106.545 71.8698 113.325 68.9736 120.321 66.1846C127.316 63.3956 134.527 60.8212 141.953 58.5685C145.72 57.4958 149.486 56.4232 153.361 55.6723C155.298 55.2432 157.235 55.0287 159.28 54.7069C161.217 54.3851 163.262 54.0633 165.199 53.8487C173.163 52.776 181.342 52.1324 189.629 51.7033C206.203 51.0597 222.346 52.1324 237.736 54.5996C245.485 55.7796 252.911 57.4958 260.229 59.2121C263.888 60.1776 267.439 61.0357 270.991 62.2157C272.713 62.752 274.543 63.2883 276.264 63.8247C277.986 64.361 279.708 65.0046 281.43 65.541C295.098 70.4753 308.766 72.6207 321.681 73.157C334.488 73.6934 346.541 72.6207 357.196 70.3681C362.577 69.2954 367.635 67.9009 372.263 66.2919C376.891 64.6828 381.195 62.8593 385.07 60.9284C388.944 58.9976 392.388 56.8522 395.509 54.8141C398.523 52.6688 401.213 50.5234 403.365 48.378C407.778 44.1946 410.684 40.3329 412.298 37.5439C413.159 36.2567 413.697 35.0767 414.128 34.3259C414.558 33.575 414.666 33.2532 414.666 33.2532C414.558 33.3604 414.235 33.6822 413.805 34.4331Z" fill="#82BAB0"/>
<path d="M99.3347 52.9907C98.1508 51.3816 96.5365 49.9871 94.707 49.129C93.3079 48.4854 91.6936 48.3781 90.2945 48.8072C88.8954 49.2363 87.7115 49.9871 86.8506 50.8453C85.9896 51.7034 85.4515 52.5616 85.021 53.6343C84.5905 53.2052 84.0524 52.7761 83.6219 52.4543C81.9 50.9526 80.0704 49.3435 78.2408 47.6272C78.0256 47.4127 77.918 47.3054 77.7027 47.0909C77.918 45.6964 78.0256 44.4092 78.2408 43.0147C78.5637 40.0112 78.8866 37.0076 78.4561 33.7896C78.2409 32.1806 77.8104 30.5715 77.1646 29.0698C76.5189 27.568 75.5503 26.1735 74.2589 25.1008C73.6131 24.5645 72.8598 24.0282 71.9988 23.7064C71.1378 23.3846 70.0616 23.2773 69.093 23.5991C68.1244 23.9209 67.3711 24.5645 66.833 25.2081C66.2949 25.8517 65.7567 26.4953 65.4339 27.3535C64.7882 29.0698 65.0034 30.7861 65.3263 32.1806C65.7568 33.6823 66.2949 35.0768 66.9406 36.2568C68.232 38.8312 69.954 41.0839 71.5683 43.122C72.4293 44.1946 73.2903 45.1601 74.0436 46.1255C74.2589 46.4473 74.5817 46.7691 74.797 46.9836C74.6893 47.4127 74.5817 47.949 74.4741 48.3781C74.0436 50.5235 73.6131 52.8834 73.3979 55.4578C73.1826 57.925 73.2903 60.6067 74.1512 63.1812C75.0122 65.7556 76.6265 68.0082 78.6713 69.6173C82.4381 73.0499 88.8954 72.9426 93.3079 70.7972C94.3841 70.2609 95.5679 69.51 96.5365 68.6518C96.967 69.1882 97.2899 69.7245 97.7204 70.2609C98.3661 71.3336 99.0118 72.299 99.3347 73.2644C99.4423 73.3717 99.4423 73.4789 99.4423 73.5862C99.4423 73.6935 99.5499 73.8007 99.4423 73.8007V73.908L99.3347 74.0153C99.2271 74.1225 99.0118 74.2298 98.7966 74.3371C98.2585 74.4443 97.6127 74.6589 97.0746 74.9807C96.5365 75.1952 96.106 75.4098 95.7832 75.7316C95.4603 75.9461 95.1374 76.2679 94.9222 76.4824C94.7069 76.697 94.4917 77.0188 94.3841 77.2333C94.2765 77.4479 94.1688 77.6624 94.0612 77.8769C94.0612 77.9842 93.9536 78.0915 93.9536 78.1987C93.3079 79.2714 93.5231 80.6659 94.3841 81.6313C95.2451 82.5967 96.7518 82.704 97.828 82.1677C99.1194 81.6313 100.088 80.6659 100.734 79.486C101.918 77.4479 102.133 75.088 101.487 72.8353C101.164 71.6554 100.626 70.5827 100.088 69.51C99.5499 68.5446 98.9042 67.6864 98.2585 66.721C98.9042 65.8629 99.3347 65.0047 99.6575 64.2538C101.057 61.3576 101.595 58.1395 100.411 55.0288C100.303 54.8142 100.303 54.7069 100.196 54.4924C100.088 54.1706 99.7652 53.6343 99.3347 52.9907ZM68.9854 35.2914C68.3397 34.1114 67.9092 32.9314 67.5863 31.6442C67.2635 30.4643 67.2635 29.1771 67.5863 28.1044C68.4473 25.7445 70.815 25.1008 72.7522 26.7099C72.8598 26.9244 73.6131 27.568 74.2589 29.0698C75.0122 30.7861 75.6579 33.4678 75.8732 36.7931C75.8732 37.2222 75.9808 37.6513 75.9808 38.0803C75.9808 38.5094 75.9808 38.9385 75.9808 39.3676C75.9808 40.2257 75.9808 41.1911 75.7656 42.1565C75.6579 42.8001 75.5503 43.551 75.4427 44.3019C74.6893 43.4438 74.0436 42.5856 73.2903 41.7275C71.7836 39.7966 70.1692 37.6513 68.9854 35.2914ZM86.4201 68.2228C85.3439 68.1155 84.16 67.7937 83.1914 67.2574C82.2229 66.721 81.2543 65.8629 80.6085 65.0047C79.1018 63.1812 78.4561 60.714 78.2408 58.0323C78.0256 55.6724 78.2409 53.3125 78.4561 50.8453C79.2094 51.5962 80.5009 52.6688 82.2229 54.0633C82.9762 54.5997 83.7296 55.3506 84.4829 56.1014C84.4829 56.4232 84.4829 56.6378 84.4829 56.9596C84.5905 58.8904 85.2363 60.2849 85.9896 61.1431C86.2048 61.4649 86.6353 61.6794 86.9582 61.8939C88.2497 62.5375 87.0658 60.9285 86.8506 60.4994C86.4201 59.6413 86.2048 58.6759 86.2048 57.7105C86.5277 57.925 86.8506 58.2468 87.1734 58.5686C88.142 59.4268 89.003 60.3922 89.9716 61.2503C90.4021 61.6794 90.9402 62.2157 91.4783 62.6448C91.9088 63.1812 92.4469 63.7175 92.8774 64.2538C93.3079 64.7902 93.846 65.3265 94.2765 65.8629C94.3841 65.9701 94.4917 66.0774 94.5993 66.1847C94.1688 66.5065 93.6307 66.8283 92.7698 67.2574C90.725 68.2228 88.6801 68.5446 86.4201 68.2228ZM98.6889 59.6413C98.5813 61.4649 97.6127 63.2884 96.4289 64.4684C95.4603 63.2884 94.5993 62.323 93.4155 61.1431C91.3707 59.105 89.1106 56.9596 86.743 54.9215C86.743 54.8142 86.743 54.8142 86.8506 54.7069C86.8506 54.4924 87.0658 54.2779 87.1734 54.0633C87.2811 53.8488 87.3887 53.6343 87.4963 53.4197C88.0344 52.5616 88.8954 51.8107 90.0792 51.3816C91.2631 50.9526 92.6621 51.0598 93.9536 51.5962C95.2451 52.2398 96.4289 53.3125 97.3975 54.7069C98.1508 56.1014 98.7966 57.8177 98.6889 59.6413Z" fill="#E75B5A"/>
<path d="M365.052 25.3153C364.945 25.208 364.837 25.208 364.622 25.3153C364.514 25.3153 364.406 25.4226 364.191 25.4226C364.084 25.4226 363.868 25.5298 363.653 25.5298C362.9 25.7444 361.931 25.6371 360.747 25.208C358.81 24.4572 356.765 23.3845 355.474 25.7444C355.043 26.7098 354.828 27.5679 354.828 28.8552C354.721 30.8933 354.936 33.2532 355.151 35.2913C355.259 36.1494 355.259 37.1148 355.366 37.973C355.366 38.1875 355.474 40.1183 355.366 40.762C355.043 40.4402 353.644 40.1183 352.891 40.1183C351.492 40.2256 350.2 40.762 349.77 41.0838C348.801 41.6201 348.371 42.6928 348.586 43.8727C348.801 44.9454 349.77 45.6963 350.954 45.6963C351.169 45.6963 351.277 45.6963 351.492 45.6963C352.353 45.589 353.429 45.4818 354.182 45.0527C357.088 43.6582 356.873 39.7965 356.658 37.0076C356.55 35.3985 356.335 33.6822 356.227 32.0732C356.12 30.6787 356.335 30.1424 357.842 30.1424C358.918 30.1424 360.102 30.3569 361.178 30.2497C362.146 30.1424 363.115 29.9278 363.761 29.2842C364.514 28.7479 364.729 27.8897 364.945 27.3534C365.16 26.4953 365.052 25.3153 365.052 25.3153Z" fill="#FCA7A7"/>
<path d="M144.536 18.021C144.859 19.7373 147.334 20.3809 149.056 19.8446C149.917 19.63 151.101 19.3082 151.746 18.7719C152.823 17.9137 152.715 16.7338 152.823 15.4465C153.038 13.7303 153.038 11.6922 153.038 10.0831C153.038 7.61595 153.038 5.36331 153.038 3.75428C153.038 2.89614 153.145 2.25253 153.145 1.93072C153.253 1.50165 153.361 1.39438 153.253 1.28711C153.253 1.28711 153.145 1.28711 153.038 1.28711C152.93 1.39438 152.715 1.50165 152.607 1.71618C152.392 2.14526 152.177 2.78887 152.069 3.64702C151.746 5.25604 151.639 7.61595 151.639 10.0831C151.639 11.5849 151.962 13.623 151.531 15.1247C150.24 14.9102 148.733 14.6957 147.441 14.8029C146.15 14.9102 144.859 15.6611 144.536 16.9483C144.428 17.2701 144.428 17.6992 144.536 18.021Z" fill="#E75B5A"/>
<path d="M146.796 40.8692C146.365 39.3674 143.89 38.9383 142.276 39.3674C141.415 39.582 140.231 39.9038 139.585 40.4401C138.509 41.191 138.617 42.2637 138.509 43.3363C138.401 44.7308 138.401 46.5544 138.401 47.9489C138.401 50.0943 138.509 52.0251 138.509 53.4196C138.509 54.0632 138.509 54.7068 138.401 55.0286C138.401 55.3504 138.186 55.565 138.294 55.565C138.294 55.565 138.401 55.565 138.509 55.565C138.617 55.4577 138.832 55.3504 138.939 55.1359C139.155 54.7068 139.37 54.1705 139.478 53.4196C139.693 52.0251 139.8 50.0943 139.8 47.9489C139.8 46.6617 139.477 44.9454 139.8 43.6582C141.092 43.8727 142.599 43.98 143.89 43.7654C145.181 43.6582 146.473 43.0145 146.796 41.8346C146.903 41.4055 146.903 41.0837 146.796 40.8692Z" fill="#FCA7A7"/>
<path d="M125.056 10.2979C124.626 10.2979 123.872 10.5124 122.689 10.5124C121.828 10.5124 120.967 10.5124 119.89 10.4051C118.814 10.2979 117.63 10.1906 116.231 10.0833C113.648 9.97606 111.281 10.1906 109.666 10.5124C109.128 10.6197 106.761 10.9415 106.545 11.5851C106.33 12.1214 106.33 13.0868 106.33 13.8377C106.222 15.554 106.438 17.8067 106.653 20.2738C106.868 22.2047 107.083 24.0282 107.191 25.53C106.438 25.2082 105.469 25.1009 104.501 25.2082C103.101 25.4227 101.918 26.0663 101.487 26.2809C100.626 26.8172 100.196 27.9972 100.519 29.1771C100.841 30.2498 101.81 30.8934 102.994 30.7861C103.209 30.7861 103.317 30.7861 103.532 30.6789C104.393 30.5716 107.191 30.0353 108.052 27.9972C108.483 26.9245 108.267 25.6373 108.267 24.4573C108.267 22.9555 108.16 21.5611 107.944 20.0593C107.837 19.523 107.729 16.9485 107.622 16.4122C108.052 16.4122 108.698 16.3049 109.451 16.1976C111.065 15.9831 113.325 15.6613 115.801 15.7686C117.092 15.7686 118.276 15.8758 119.352 15.9831C120.428 15.9831 121.505 15.9831 122.366 15.7686C123.119 15.6613 123.765 15.4467 124.195 15.2322C124.303 16.4122 124.518 19.8448 124.733 21.2392C125.056 24.0282 125.379 26.6027 125.594 28.4262C124.841 28.1044 123.98 27.9972 123.011 28.1044C121.612 28.319 120.428 28.9626 119.998 29.1771C119.137 29.7135 118.707 30.8934 119.029 32.0734C119.352 33.146 120.321 33.7897 121.505 33.6824C121.72 33.6824 121.828 33.6824 122.043 33.5751C122.904 33.4678 123.872 33.2533 124.733 32.717C127.316 31.3225 127.101 30.0353 126.563 25.53C126.455 24.0282 126.348 22.4192 126.132 20.9174C125.81 17.9139 125.594 15.3395 125.271 13.4086C125.164 12.4432 125.056 10.9415 125.164 10.1906C125.271 10.2979 125.164 10.2979 125.056 10.2979Z" fill="#E75B5A"/>
<path d="M251.511 12.8722C251.404 12.7649 251.296 12.8722 251.081 12.8722C250.973 12.8722 250.866 12.9794 250.651 13.0867C250.543 13.0867 250.328 13.194 250.112 13.3012C249.359 13.5158 248.39 13.5158 247.207 13.0867C245.162 12.4431 243.117 11.4777 242.041 13.9448C241.61 14.9103 241.503 15.7684 241.503 17.0556C241.503 19.0937 241.826 21.4536 242.041 23.3845C242.148 24.2426 242.256 25.208 242.364 26.0662C242.364 26.2807 242.579 28.2115 242.471 28.8552C242.148 28.5334 240.749 28.2115 239.888 28.3188C238.489 28.5334 237.305 29.177 236.875 29.3915C236.014 29.9278 235.584 31.1078 235.906 32.2877C236.229 33.3604 237.198 34.004 238.382 34.004C238.597 34.004 238.705 34.004 238.92 34.004C239.781 33.8968 240.749 33.6822 241.61 33.2532C244.516 31.7514 244.086 27.7825 243.763 25.1008C243.548 23.4917 243.332 21.7754 243.117 20.1664C242.902 18.7719 243.117 18.2356 244.624 18.2356C245.7 18.2356 246.884 18.3428 247.96 18.2356C248.929 18.1283 249.79 17.8065 250.543 17.1629C251.189 16.5193 251.512 15.7684 251.619 15.1248C251.619 14.0521 251.619 12.8722 251.511 12.8722Z" fill="#FCA7A7"/>
<path d="M197.055 15.6611C196.84 14.4812 195.979 13.7303 194.795 13.623C194.687 13.623 194.472 13.623 194.257 13.623C193.396 13.623 190.49 13.7303 189.306 15.6611C188.661 16.6266 188.768 18.0211 188.553 19.0937C188.338 20.5955 188.338 27.997 188.23 29.4988C188.23 30.0351 188.23 33.1459 188.23 33.6822C187.8 33.6822 187.154 33.6822 186.293 33.6822C184.571 33.6822 182.311 33.6822 179.836 33.2532C178.652 33.0386 177.468 32.7168 176.284 32.5023C175.208 32.2878 174.132 32.1805 173.271 32.2878C172.625 32.2878 172.087 32.395 171.656 32.5023C171.764 30.1424 171.764 25.5298 171.872 23.9208C172.625 24.3499 173.486 24.5644 174.454 24.5644C175.854 24.5644 177.145 24.1354 177.683 23.9208C178.652 23.4917 179.19 22.4191 179.082 21.2391C178.867 20.1664 178.006 19.3083 176.822 19.201C176.607 19.201 176.499 19.201 176.284 19.201C175.423 19.201 174.347 19.3083 173.486 19.6301C170.795 20.5955 170.795 21.8827 170.58 26.4953C170.472 27.997 170.472 29.606 170.365 31.1078C170.042 34.4331 169.719 36.9003 169.827 37.1148C169.934 37.2221 169.827 37.2221 170.365 37.3294C170.795 37.3294 171.226 37.3294 172.41 37.4366C173.163 37.5439 174.024 37.5439 175.208 37.6512C176.284 37.7584 177.468 38.0803 178.759 38.2948C181.342 38.7239 183.602 38.9384 185.324 38.8311C185.862 38.8311 188.876 38.8311 189.199 38.2948C189.414 37.8657 189.306 37.2221 189.414 36.2567C189.521 34.5404 189.629 32.0732 189.737 29.606C189.844 27.6752 189.844 19.8446 189.952 18.3429C190.705 18.7719 191.566 18.9865 192.535 19.0937C193.934 19.0937 195.225 18.6647 195.764 18.4501C196.625 18.0211 197.163 16.8411 197.055 15.6611Z" fill="#FCA7A7"/>
<path d="M271.206 42.5855C271.099 42.4783 270.991 42.5855 270.776 42.5855C270.668 42.5855 270.561 42.6928 270.345 42.8001C270.238 42.8001 270.022 42.9073 269.807 43.0146C269.054 43.2291 268.085 43.2291 266.901 42.8001C264.857 42.1565 262.812 41.191 261.736 43.6582C261.305 44.6236 261.197 45.4818 261.197 46.769C261.197 48.8071 261.52 51.167 261.736 53.0978C261.843 53.956 261.951 54.9214 262.058 55.7796C262.058 55.9941 262.274 57.9249 262.166 58.5685C261.843 58.2467 260.444 57.9249 259.583 58.0322C258.184 58.2467 257 58.8903 256.57 59.1049C255.709 59.6412 255.278 60.8212 255.601 62.0011C255.924 63.0738 256.893 63.7174 258.076 63.7174C258.292 63.7174 258.399 63.7174 258.615 63.7174C259.476 63.6102 260.444 63.3956 261.305 62.9665C264.211 61.4648 263.78 57.4958 263.457 54.8141C263.242 53.2051 263.027 51.4888 262.812 49.8798C262.597 48.4853 262.812 47.949 264.318 47.949C265.395 47.949 266.579 48.0562 267.655 47.949C268.623 47.8417 269.484 47.5199 270.238 46.8763C270.883 46.2327 271.206 45.4818 271.314 44.8382C271.314 43.8728 271.206 42.6928 271.206 42.5855Z" fill="#E75B5A"/>
<path d="M219.333 26.6025C218.902 24.8862 216.427 24.3499 214.813 24.8863C213.952 25.1008 212.768 25.4226 212.122 26.0662C211.046 27.0316 211.261 28.1043 211.153 29.3915C211.046 31.1078 211.046 33.1459 211.046 34.755C211.046 37.2221 211.153 39.4748 211.153 41.0838C211.153 41.8347 211.153 42.5855 211.046 42.9074C211.046 43.3364 210.831 43.4437 210.938 43.551C210.938 43.551 211.046 43.551 211.153 43.551C211.261 43.4437 211.476 43.3364 211.584 43.1219C211.799 42.6928 212.014 41.9419 212.122 41.1911C212.337 39.4748 212.445 37.2221 212.445 34.755C212.445 33.2532 212.122 31.2151 212.445 29.7133C213.736 29.9279 215.243 30.1424 216.534 29.9279C217.826 29.7133 219.117 29.0697 219.44 27.6752C219.333 27.2462 219.333 26.9244 219.333 26.6025Z" fill="#E75B5A"/>
<path d="M342.021 48.5925C341.591 46.8762 339.115 46.3399 337.501 46.8762C336.64 47.0908 335.456 47.5199 334.811 48.0562C333.734 49.0216 333.95 50.0943 333.842 51.3815C333.734 53.0978 333.734 55.1359 333.734 56.7449C333.734 59.2121 333.842 61.4647 333.842 63.0738C333.842 63.8247 333.842 64.5755 333.734 64.8973C333.734 65.3264 333.519 65.4337 333.627 65.5409C333.627 65.5409 333.734 65.5409 333.842 65.5409C333.95 65.4337 334.165 65.3264 334.272 65.1119C334.488 64.6828 334.703 63.9319 334.811 63.181C335.026 61.4648 335.133 59.2121 335.133 56.7449C335.133 55.2432 334.811 53.2051 335.133 51.7033C336.425 51.9179 337.932 52.1324 339.223 51.9179C340.515 51.7033 341.806 51.0597 342.129 49.6652C342.129 49.3434 342.129 49.0216 342.021 48.5925Z" fill="#E75B5A"/>
<path d="M305.753 20.7029C305.322 20.7029 304.569 20.9174 303.385 20.9174C302.524 20.9174 301.663 20.9174 300.587 20.8102C299.511 20.7029 298.327 20.5956 296.928 20.4884C294.345 20.3811 291.977 20.5956 290.363 20.9174C289.825 21.0247 287.457 21.3465 287.242 21.9901C287.027 22.5265 287.027 23.4919 287.027 24.2427C286.919 25.959 287.134 28.2117 287.349 30.6789C287.565 32.6097 287.78 34.4333 287.888 35.935C287.134 35.6132 286.166 35.5059 285.197 35.6132C283.798 35.8277 282.614 36.4714 282.184 36.6859C281.323 37.2222 280.892 38.4022 281.215 39.5821C281.538 40.6548 282.507 41.2984 283.69 41.1912C283.906 41.1912 284.013 41.1912 284.228 41.0839C285.089 40.9766 287.888 40.4403 288.749 38.4022C289.179 37.3295 288.964 36.0423 288.964 34.8623C288.964 33.3606 288.856 31.9661 288.641 30.4643C288.533 29.928 288.426 27.3535 288.318 26.8172C288.749 26.8172 289.394 26.7099 290.255 26.6027C291.87 26.3881 294.13 26.0663 296.713 26.1736C298.004 26.1736 299.188 26.2809 300.264 26.3881C301.34 26.3881 302.416 26.3881 303.277 26.1736C304.031 26.0663 304.677 25.8518 305.107 25.6372C305.215 26.8172 305.43 30.2498 305.645 31.6443C305.968 34.4333 306.291 37.0077 306.506 38.8313C305.753 38.5095 304.892 38.4022 303.923 38.5095C302.524 38.724 301.34 39.3676 300.91 39.5821C300.049 40.1185 299.618 41.2984 299.941 42.4784C300.264 43.5511 301.233 44.1947 302.416 44.0874C302.632 44.0874 302.739 44.0874 302.955 43.9802C303.816 43.8729 304.784 43.6583 305.645 43.122C308.228 41.7275 308.013 40.4403 307.475 35.935C307.367 34.4333 307.259 32.8242 307.044 31.3225C306.721 28.319 306.506 25.7445 306.183 23.8137C306.076 22.8483 305.968 21.3465 306.076 20.5956C305.968 20.7029 305.86 20.7029 305.753 20.7029Z" fill="#E75B5A"/>
<path d="M305.645 63.3957C306.076 65.112 308.551 65.6483 310.165 65.112C311.026 64.8974 312.21 64.4684 312.856 63.932C313.824 62.9666 313.717 61.8939 313.824 60.6067C313.932 58.8904 313.932 56.9596 313.932 55.2433C313.932 52.7761 313.824 50.5235 313.824 48.9144C313.824 48.1636 313.824 47.52 313.932 47.0909C313.932 46.6618 314.04 46.5545 314.04 46.4473C314.04 46.4473 313.932 46.4473 313.824 46.4473C313.717 46.5545 313.502 46.6618 313.394 46.8763C313.179 47.3054 312.963 47.949 312.856 48.8072C312.641 50.4162 312.533 52.6688 312.641 55.2433C312.641 56.745 313.071 58.7831 312.641 60.2849C311.349 60.0704 309.842 59.9631 308.551 60.0704C307.259 60.2849 305.968 60.9285 305.753 62.323C305.538 62.7521 305.538 63.0739 305.645 63.3957Z" fill="#FCA7A7"/>
</g>
</svg>
