<svg width="31" height="37" viewBox="0 0 31 37" fill="none" xmlns="http://www.w3.org/2000/svg">
<path opacity="0.08" d="M27.5143 2.29172C27.5143 1.1301 26.5263 0.183594 25.3665 0.183594C24.5504 0.183594 23.7772 0.699868 23.4765 1.43126L10.5899 28.4067C9.43014 28.0626 8.18444 27.8905 6.93873 27.9765C3.20163 28.2777 0.323651 30.3428 0.624337 32.623C0.882069 34.9032 3.97483 36.409 7.75489 36.0218C11.535 35.6346 14.37 33.6556 14.0693 31.3753L24.3356 9.9068C24.8081 11.5847 27.772 22.0824 26.0968 25.4382C25.7102 26.5137 26.2686 27.7184 27.2995 28.1916C28.3734 28.6219 29.6191 28.1056 30.0487 26.987C32.1105 22.5986 27.6002 6.03473 27.5143 2.29172Z" fill="#1A7F72"/>
</svg>
