<svg width="29" height="39" viewBox="0 0 29 39" fill="none" xmlns="http://www.w3.org/2000/svg">
<path opacity="0.1" d="M5.49639 2.77941C5.62525 1.61779 6.69913 0.800344 7.85893 0.929413C8.67507 1.01546 9.36236 1.61779 9.62009 2.39221L19.4568 30.6154C20.6596 30.4002 21.9053 30.3572 23.108 30.6154C26.7592 31.3037 29.4225 33.67 28.907 35.9072C28.3915 38.1444 25.1699 39.306 21.4757 38.4886C17.7816 37.6712 15.1613 35.4339 15.6768 33.1967L7.85893 10.6957C7.2146 12.3305 3.09089 22.441 4.37955 25.9258C4.63728 27.0444 3.99295 28.163 2.87612 28.5072C1.75928 28.8084 0.599488 28.163 0.255846 27.0014C-1.3335 22.441 4.98092 6.4794 5.49639 2.77941Z" fill="#1A7F72"/>
</svg>
