<svg width="43" height="46" viewBox="0 0 43 46" fill="none" xmlns="http://www.w3.org/2000/svg">
<path opacity="0.1" d="M40.4629 28.5023L25.3426 1.5268C24.8701 0.70936 23.8821 0.279132 22.9801 0.494247L2.3186 5.78608L1.8461 6.04422L1.58838 6.17328L1.33063 6.30236L0.90108 6.5605L0.686303 6.68957L0.514498 7.1198L0.471527 7.507C0.471527 7.63607 0.471527 7.76514 0.471527 7.93723C0.514482 8.02328 0.557432 8.10933 0.600388 8.19537C0.643343 8.28142 0.686319 8.36747 0.729274 8.41049L15.377 34.4825C14.389 35.2139 13.5729 36.1604 12.9286 37.2359C11.0385 40.4627 11.0385 43.9906 13.0574 45.1092C15.0763 46.1847 18.0832 44.5499 19.9303 41.2371C21.7773 37.9243 21.8203 34.4825 19.8014 33.3639L9.36327 14.7779L25.7722 10.6047L36.2103 29.1906C35.2223 29.922 34.4062 30.8685 33.7619 31.9441C31.8718 35.1708 31.8718 38.6987 33.8907 39.8173C35.9096 40.8929 38.9165 39.258 40.7636 35.9453C42.6536 32.5895 42.3959 29.6639 40.4629 28.5023Z" fill="#1A7F72"/>
</svg>
