<svg width="667" height="505" viewBox="0 0 667 505" fill="none" xmlns="http://www.w3.org/2000/svg">
<g opacity="0.1" clip-path="url(#clip0_31_96)">
<path d="M172.436 130.091C206.658 122.829 242.938 123.753 276.336 113.143C321.404 99.1162 356.297 66.5151 394.042 39.8601C432.193 13.5755 480.849 -7.92164 526.065 5.62248C586.217 23.5578 607.538 91.2542 619.533 148.568C632.354 209.603 645.175 270.639 657.997 332.046C665.022 364.424 671.257 399.786 654.486 429.309C633.324 466.681 583.818 479.986 539.115 486.931C361.516 515.45 -106.325 537.323 24.7237 245.263C50.2147 188.122 107.213 143.852 172.436 130.091Z" fill="url(#paint0_linear_31_96)"/>
</g>
<defs>
<linearGradient id="paint0_linear_31_96" x1="1.43541" y1="254.243" x2="664.481" y2="250.702" gradientUnits="userSpaceOnUse">
<stop stop-color="#1A7F54"/>
<stop offset="1" stop-color="#7ADBAE"/>
</linearGradient>
<clipPath id="clip0_31_96">
<rect width="500" height="663.434" fill="white" transform="matrix(0.00534047 0.999986 0.999986 -0.00534047 0.0593262 4.3335)"/>
</clipPath>
</defs>
</svg>
