<svg width="766" height="438" viewBox="0 0 766 438" fill="none" xmlns="http://www.w3.org/2000/svg">
<path fill-rule="evenodd" clip-rule="evenodd" d="M521 68.4971C521 68.4971 543.74 33.8808 579.639 36.1568C607.281 37.9344 650.333 53.2704 652.2 96.9057C654.586 146.615 630.195 132.219 635.106 155.364C640.026 178.867 660.487 180.118 658.046 196.295C655.606 212.473 634.156 228.077 635.137 238.077C636.117 248.077 651.433 271.664 640.972 282.682C628.428 296.262 614.074 295.566 615.413 305.556C618.081 325.18 635.366 328.305 631.492 330.914C627.619 333.522 569.63 336.126 559.328 312.406C551.693 294.704 565.914 276.784 567.431 266.36C570.456 245.154 546.272 225.024 530.863 211.465C515.444 197.549 523.68 170.118 523.312 156.163C523.302 142.199 486.404 129.207 521 68.4971Z" fill="#1D3542"/>
<path d="M578.084 45.15C596.292 42.5214 636.385 54.3547 638.959 97.6134C641.477 138.725 613.872 138.379 618.783 161.524C623.703 185.027 644.55 187.342 642.119 203.877C639.679 220.054 620.924 229.143 621.905 239.143C622.885 249.143 638.408 266.995 627.957 278.371C615.413 291.95 600.334 290.916 615.537 323.815" stroke="#01080A" stroke-miterlimit="10" stroke-linecap="round" stroke-linejoin="round"/>
<path d="M651.06 94.43C655.774 137.274 640.167 129.808 645.125 154.742C649.725 179.686 669.13 181.681 666.369 199.299C663.957 216.55 641.018 230.045 642.017 240.761C643.017 251.477 655.74 271.909 640.982 283.041" stroke="#01080A" stroke-miterlimit="10" stroke-linecap="round" stroke-linejoin="round"/>
<path d="M570.78 53.5781C588.988 50.9496 587.255 66.7504 629.61 96.4275C632.127 137.539 599.16 137.692 604.439 161.186C609.359 184.689 630.206 187.004 627.775 203.539C625.335 219.716 606.58 228.805 607.56 238.805C608.541 248.805 624.064 266.657 613.612 278.033C601.069 291.612 585.989 290.578 601.192 323.477" stroke="#01080A" stroke-miterlimit="10" stroke-linecap="round" stroke-linejoin="round"/>
<path d="M600.544 95.0454C605.21 136.1 572.281 137.685 578.625 160.792C584.61 183.909 605.796 185.499 604.072 201.657C602.706 217.806 584.338 227.959 585.677 237.949C587.373 247.931 603.593 265.048 593.51 276.772C581.701 291.049 573.398 288.761 590.373 320.898" stroke="#01080A" stroke-miterlimit="10" stroke-linecap="round" stroke-linejoin="round"/>
<path d="M567.54 93.7683C576.127 134.004 544.008 139.148 552.481 161.483C560.955 183.818 582.084 183.26 582.16 199.73C582.236 216.199 564.98 227.754 567.752 237.707C570.523 247.66 588.486 262.941 579.863 275.701C569.516 291.013 560.883 289.808 581.382 319.704" stroke="#01080A" stroke-miterlimit="10" stroke-linecap="round" stroke-linejoin="round"/>
<path d="M103.795 379.204C103.795 379.204 78.0284 394.206 76.6053 394.602C70.2439 397.992 50.1039 408.907 28.2017 420.943C19.6725 423.674 10.0501 425.718 11.2283 429.626C12.3971 433.176 46.5329 436.573 55.6367 428.455C59.4913 425.131 65.1176 421.044 69.8394 423.426C74.5612 425.808 86.7377 425.487 91.2518 419.997C95.4173 414.874 91.7228 410.674 94.4463 405.231C94.795 404.864 119.459 388.817 119.807 388.45C124.293 381.886 105.538 377.368 103.795 379.204Z" fill="#F4A082"/>
<path d="M359.387 340.953C359.387 340.953 352.498 337.912 349.039 342.658C340.887 346.096 340.162 359.364 340.162 359.364C340.162 359.364 333.348 359.185 329.182 364.308C327.787 365.777 322.368 364.13 323.546 368.038C324.319 370.166 356.033 376.849 358.983 379.994C361.556 382.432 359.123 344.541 359.387 340.953Z" fill="#F4A082"/>
<path d="M339.807 155.633C334.812 156.481 327.027 160.267 322.108 163.977C266.042 185.149 222.758 269.721 198.801 298.998C194.985 303.754 186.22 311.147 182.064 316.627C172.008 329.425 131.993 361.274 98.8283 381.126C98.1215 381.503 104.549 394.224 109.592 395.165C138.713 385.088 194.61 371.081 222.91 329.873C232.24 316.736 285.083 282.042 315.938 256.164C321.951 253.141 338.698 263.083 338.227 272.405C344.034 302.33 351.275 400.25 361.237 411.088C371.199 421.925 378.032 422.819 383.291 418.384C398.907 412.601 411.288 311.299 403.709 254.924C406.328 245.545 412.954 238.567 412.473 233.924C412.473 233.924 338.158 161.047 339.807 155.633Z" fill="#1F5148"/>
<path d="M330.954 158.725C330.954 158.725 359.932 223.04 409.986 241.069" stroke="#1D4941" stroke-width="1.5" stroke-miterlimit="10"/>
<path d="M326.325 161.192C326.325 161.192 351.362 231.767 408.019 244.345" stroke="#1D4941" stroke-width="1.5" stroke-miterlimit="10"/>
<path d="M546.523 98.6186C539.059 100.964 515.008 113.056 514.188 109.139C513.792 107.717 514.715 101.964 514.31 100.184C510.747 87.3876 536.72 53.0441 526.721 54.382C515.298 56.1155 431.553 101.292 425.182 104.325C421.648 106.208 395.297 126.239 373.094 140.431C363.226 146.779 348.666 151.817 338.035 156.395C358.497 198.465 410.06 237.568 412.472 233.923C419.691 222.275 438.031 197.442 461.639 195.746C465.239 196.367 492.448 195.291 498.819 192.259C505.19 189.226 542.238 207.943 541.71 187.905C541.181 167.867 523.001 144.356 527.223 141.38C531.445 138.404 542.764 132.734 554.374 124.551C565.646 117.092 553.987 96.2734 546.523 98.6186Z" fill="#F4A082"/>
<path opacity="0.6" d="M549.388 125.756C544.082 128.403 532.49 123.696 528.343 115.927C524.196 108.159 527.583 106.049 532.813 104.152C538.119 101.506 542.922 97.9975 547.069 105.766C551.226 113.892 554.694 123.11 549.388 125.756Z" fill="#DB8C70"/>
<path d="M432.468 122.394C420.762 113.393 460.09 82.636 488.4 55.3923C503.781 40.6639 544.824 20.6039 580.128 13.9438C592.945 10.7412 648.456 -4.32921 706.276 13.84C706.276 13.84 707.162 20.2619 700.668 18.6427C694.184 17.3814 606.244 25.7876 585.331 34.5747C574.333 38.8034 540.546 48.6461 523.017 63.4312C505.488 78.2162 491.164 119.414 463.681 110.113C435.473 100.472 428.933 124.278 432.468 122.394Z" fill="#F4A082"/>
<path d="M687.917 10.7438C699.254 5.78988 710.95 0.826561 716.699 1.3911C724.955 1.88954 733.248 3.81926 739.092 7.96202C744.926 11.747 756.575 18.6012 755.528 19.703C754.482 20.8048 724.767 21.9464 724.767 21.9464C724.767 21.9464 714.711 21.1374 716.926 23.5855C719.141 26.0336 730.554 23.9423 730.705 29.6674C730.705 29.6674 721.384 29.5551 717.793 29.2917C714.202 29.0283 692.281 26.7418 684.486 16.5633C684.844 16.5539 683.666 12.6462 687.917 10.7438Z" fill="#F4A082"/>
<path d="M536.68 296.175C539.697 301.824 558.509 349.309 561.885 395.769C567.973 395.609 572.384 399.79 578.482 399.987C565.833 382.417 578.253 336.972 557.584 287.03C548.404 265.071 547.045 199.938 545.772 192.452C542.907 178.921 542.906 165.315 530.531 158.122C518.157 150.928 485.379 171.845 486.887 188.276C486.887 188.276 512.852 180.788 511.787 194.781C511.872 198.001 533.664 290.525 536.68 296.175Z" fill="#F4A082"/>
<path d="M600.903 407.632C600.903 407.632 583.986 404.856 581.074 403.142C578.152 401.071 572.403 386.899 572.346 384.753L563.364 383.915C556.824 394.114 560.622 402.249 556.099 407.381C554.007 409.585 549.455 413.644 551.632 414.661C554.893 416.007 557.739 415.216 560.529 412.277C563.318 409.339 567.521 405.648 569.397 408.821C570.914 412.004 573.139 414.81 577.455 415.412C581.772 416.014 615.436 415.126 615.021 412.989C614.248 410.861 600.903 407.632 600.903 407.632Z" fill="#F4A082"/>
<path d="M562.6 69.549C562.6 69.549 565.258 61.6014 558.529 64.6434C544.364 71.1041 546.767 80.7087 546.796 81.7821C546.834 83.2134 562.6 69.549 562.6 69.549Z" fill="#F4A082"/>
<path d="M591.31 125.368C591.31 125.368 599.255 127.665 592.903 131.413C579.492 139.286 573.215 132.29 572.112 131.245C571.377 130.548 591.31 125.368 591.31 125.368Z" fill="#F4A082"/>
<path fill-rule="evenodd" clip-rule="evenodd" d="M576.398 62.7408C571.431 64.6621 565.041 66.979 559.396 70.3505C531.123 85.4189 532.386 106.154 539.578 120.645C548.701 140.456 580.481 136.038 594.909 125.989C604.06 119.661 607.906 115.979 612.401 109.773C622.277 90.1766 611.779 99.7633 576.398 62.7408Z" fill="#F4A082"/>
<path d="M378.032 137.437C396.382 140.176 435.476 182.114 431.924 210.495C431.924 210.495 457.719 196.566 459.877 196.867C461.309 196.829 462.751 197.15 463.826 197.121C490.507 203.221 504.577 193.182 509.026 185.187C513.474 177.192 524.689 167.587 529.589 163.161C534.499 159.092 535.112 155.138 535.112 155.138L531.483 153.443C531.483 153.443 510.901 174.754 506.914 173.068C502.937 171.741 474.521 154.229 471.185 150.02C468.207 145.802 477.941 107.231 484.689 104.905C491.437 102.579 510.39 101.005 515.451 102.662C516.902 103.339 516.76 97.9722 515.328 98.0099C513.528 97.6993 482.333 97.0896 461.806 93.3341C455.68 92.0633 458.837 89.4736 448.093 89.7569C436.661 91.1326 378.013 136.722 378.032 137.437Z" fill="#FFD2B9"/>
<path d="M585.465 94.011C579.151 99.1905 571.338 101.903 569.547 101.95C567.031 101.659 566.927 97.7225 565.523 98.8337C562.008 101.433 564.289 106.386 566.833 107.751" stroke="#EFAFA3" stroke-width="1.38" stroke-miterlimit="10" stroke-linecap="round" stroke-linejoin="round"/>
<path opacity="0.69" d="M576.634 71.686C578.462 73.0701 581.431 76.9306 581.893 80.8572" stroke="#682C1A" stroke-width="1.31" stroke-miterlimit="10" stroke-linecap="round" stroke-linejoin="round"/>
<path d="M571.668 87.2132C568.435 86.9403 565.07 81.658 566.408 78.042" stroke="#49241B" stroke-miterlimit="10" stroke-linecap="round" stroke-linejoin="round"/>
<path d="M587.539 118.305C584.307 118.033 580.942 112.75 582.28 109.134" stroke="#49241B" stroke-miterlimit="10" stroke-linecap="round" stroke-linejoin="round"/>
<path opacity="0.69" d="M597.416 112.315C597.35 109.811 595.437 105.206 592.854 102.41" stroke="#682C1A" stroke-width="1.31" stroke-miterlimit="10" stroke-linecap="round" stroke-linejoin="round"/>
<path d="M555.542 100.888C554.506 102.348 554.751 111.651 562.696 113.948" stroke="#BC4926" stroke-width="1.45" stroke-miterlimit="10" stroke-linecap="round" stroke-linejoin="round"/>
<path opacity="0.24" fill-rule="evenodd" clip-rule="evenodd" d="M559.991 92.892C556.768 92.977 553.799 89.1165 553.327 84.8321C552.847 80.1899 555.269 76.9034 558.492 76.8184C561.715 76.7334 564.684 80.5939 565.155 84.8783C565.268 89.1722 563.214 92.807 559.991 92.892Z" fill="#ED5851"/>
<path opacity="0.24" fill-rule="evenodd" clip-rule="evenodd" d="M571.725 116.574C570.368 119.474 571.913 123.73 575.57 126.499C579.218 128.909 583.515 128.795 584.872 125.895C586.229 122.995 584.683 118.739 581.027 115.971C577.379 113.56 573.082 113.674 571.725 116.574Z" fill="#ED5851"/>
<path opacity="0.6" d="M375.244 194.801C373.84 195.912 372.049 195.959 371.314 195.262C370.579 194.565 371.606 192.748 373.01 191.637C374.414 190.526 376.205 190.478 376.94 191.175C377.675 191.872 377.006 193.68 375.244 194.801Z" fill="#DB8C70"/>
<path d="M587.924 51.3359C598.328 51.7777 621.975 65.1189 630.439 87.0961" stroke="#01080A" stroke-miterlimit="10" stroke-linecap="round" stroke-linejoin="round"/>
<path opacity="0.56" d="M606.824 420.499C606.871 422.401 483.705 427.09 331.606 430.908C179.509 434.726 56.2656 436.297 56.2159 434.319C56.1682 432.417 179.334 427.728 331.431 423.91C483.53 420.092 606.776 418.597 606.824 420.499Z" fill="black" fill-opacity="0.2"/>
</svg>
