<svg width="408" height="380" viewBox="0 0 408 380" fill="none" xmlns="http://www.w3.org/2000/svg">
<path d="M171 1.72205C147.926 -0.722018 145.946 -1.26691 125.299 8.85893C106.562 17.9374 88.8637 29.8091 73.0749 43.2521C43.2323 68.5668 18.0741 101.563 6.62287 139.622C-5.00173 177.681 -0.317242 217.836 18.0741 252.929C37.3332 289.766 68.9107 319.094 104.132 340.22C142.824 363.264 187.067 376.883 231.83 379.5C272.952 381.945 316.848 375.311 351.374 351.394C382.779 329.57 401.345 294.48 406.202 256.594C411.233 217.662 402.213 178.38 382.953 144.335C362.478 108.196 332.115 78.6927 298.63 54.9493C262.194 28.9362 220.785 3.81696 175.5 0.499981C164.57 -0.372932 152.756 -0.0237805 142 1.72205C140.264 2.07117 141.264 4.25809 143 4.08364C189.153 -3.42346 234.086 17.5883 272.952 41.3316C307.305 62.2818 339.404 88.2947 363.866 120.419C387.637 151.668 403.252 188.682 404.814 228.312C406.202 265.323 395.62 303.557 370.461 331.141C342.525 361.868 300.886 374.786 260.632 377.057C217.431 379.326 173.359 370.423 133.802 352.614C63.0116 320.841 -5.34888 252.404 3.49997 168.08C7.49056 129.148 27.6169 93.5324 53.816 65.2496C67.1758 50.9339 82.0971 38.1891 98.4071 27.365C116.798 15.144 128.313 7.56281 150 2.5C160.93 0.0557103 136.722 1.77796 148 2.99999C149.562 3.17466 172.736 1.89672 171 1.72205Z" fill="#1A7F72"/>
</svg>
