<svg width="463" height="513" viewBox="0 0 463 513" fill="none" xmlns="http://www.w3.org/2000/svg">
<path d="M121.384 342.262L130.406 334.756C126.416 325.502 116.7 323.932 111.321 323.758L102.125 328.646C104.728 342.262 121.384 342.262 121.384 342.262Z" fill="#1D3542"/>
<path d="M196.684 332.661C196.684 332.661 181.936 323.584 172.047 335.106C172.047 335.106 163.025 327.599 147.409 339.295L141.684 341.74C141.684 341.74 157.3 354.135 174.649 345.057C174.649 345.057 201.717 349.247 202.585 341.74C203.279 334.408 196.684 332.661 196.684 332.661Z" fill="#1D3542"/>
<path d="M244.05 164.188C244.05 164.188 291.765 143.412 300.788 102.908C309.808 62.405 275.282 17.7113 275.282 17.7113C275.282 17.7113 132.141 140.968 163.373 166.631C179.508 179.9 244.05 174.138 244.05 174.138" fill="#1D3542"/>
<path opacity="0.22" d="M187.315 118.795C187.315 118.795 202.931 158.6 231.732 156.856C260.534 155.283 280.835 118.272 282.568 99.4165C284.304 80.736 184.02 98.0198 187.315 118.795Z" fill="#1D3542"/>
<path d="M188.877 363.736C188.877 363.736 157.646 411.747 155.912 419.254C155.912 419.254 49.727 425.016 25.0894 435.84C0.452011 446.664 -8.57021 478.964 12.7707 495.373C34.1116 511.785 176.385 517.719 215.943 503.578C215.943 503.578 419.983 530.814 454.512 491.184C489.039 451.377 392.05 412.619 309.808 416.635C309.808 416.635 281.007 359.546 265.393 352.04C249.778 344.707 188.877 363.736 188.877 363.736Z" fill="#1F5148"/>
<path opacity="0.23" d="M74.538 438.285C72.9765 440.029 64.6483 444.045 72.9765 447.362C81.1312 450.679 126.416 475.47 138.041 472.153C149.491 468.836 82.8661 429.206 74.538 438.285Z" fill="#D25A5C"/>
<path opacity="0.23" d="M317.963 467.964C319.699 468.138 355.093 459.06 370.709 452.426C386.325 445.792 389.62 440.904 393.785 440.904C397.949 440.904 397.081 432.697 385.631 433.395C374.178 434.27 326.466 454.869 326.466 454.869L318.137 469.186" fill="#D25A5C"/>
<path opacity="0.23" d="M306.513 447.362C306.513 447.362 268.689 455.569 262.964 454.871C257.238 453.997 274.414 418.382 314.842 415.065C314.842 415.065 275.282 414.192 249.084 444.045C222.71 473.9 200.501 436.538 184.02 428.333C184.02 428.333 210.392 461.853 211.605 466.219C211.605 466.219 252.553 460.981 264.351 462.902C264.351 462.902 294.195 463.25 308.594 447.014L306.513 447.362Z" fill="#1F5148"/>
<path d="M165.629 463.424C177.599 468.836 190.787 468.836 203.625 467.613C218.026 466.393 232.426 464.472 246.828 463.948C261.922 463.25 277.017 463.25 292.111 464.646C296.622 464.997 301.134 465.345 305.645 466.567C309.636 467.439 313.454 468.662 317.269 469.71C325.252 472.153 333.579 474.424 341.387 477.391C342.081 477.741 342.427 476.519 341.733 476.169C334.966 473.55 328.028 471.455 321.087 469.36C314.32 467.265 307.207 464.82 300.094 463.948C270.424 460.631 240.755 462.201 211.259 465.519C196.338 467.091 180.376 468.662 166.148 462.201C165.455 462.027 164.935 463.076 165.629 463.424Z" fill="black"/>
<path d="M154.176 479.138C175.691 491.882 199.287 500.785 223.577 505.673C224.271 505.849 224.619 504.627 223.926 504.453C199.635 499.563 176.211 490.66 154.696 478.089C154.176 477.565 153.482 478.787 154.176 479.138Z" fill="#040404"/>
<path d="M111.841 453.124C99.1754 449.981 85.8156 447.014 73.15 451.554C72.4559 451.902 72.8029 452.95 73.497 452.774C85.9892 448.237 99.1754 451.203 111.494 454.347C112.362 454.521 112.535 453.472 111.841 453.124Z" fill="black"/>
<g opacity="0.49">
<path opacity="0.49" d="M210.218 465.171C205.706 458.536 201.023 451.902 196.512 445.093L210.218 465.171Z" fill="#D25A5C"/>
</g>
<path d="M310.315 416.219C304.59 416.395 299.037 417.791 293.657 419.536C288.28 421.109 282.901 423.203 277.87 425.996C277.176 426.346 277.87 427.393 278.564 427.045C283.421 424.426 288.626 422.331 294.005 420.758C299.211 419.188 304.762 417.791 310.315 417.617C311.009 417.441 311.009 416.219 310.315 416.219Z" fill="#050505"/>
<path d="M156.326 419.08C165.001 419.43 173.329 423.269 179.403 429.556C179.922 430.08 180.79 429.206 180.27 428.681C174.023 422.049 165.349 418.208 156.326 417.858C155.458 417.858 155.458 419.08 156.326 419.08Z" fill="#151515"/>
<path d="M302.176 452.252C291.765 457.664 281.007 461.853 269.037 462.027C268.169 462.027 268.169 463.25 269.037 463.25C281.181 463.076 292.111 458.886 302.695 453.298C303.563 453.124 302.869 451.902 302.176 452.252Z" fill="black"/>
<path d="M153.308 201.724C153.308 203.294 149.839 215.167 146.369 245.894C142.898 276.795 125.028 319.044 125.375 323.932C125.548 328.819 114.27 333.533 105.422 354.659C96.573 375.782 77.4875 390.798 72.6295 395.161C72.6295 395.161 62.5662 392.368 51.9827 393.591C41.3989 394.987 31.3356 392.02 29.6005 388.877C29.6005 388.877 24.916 393.243 29.08 397.258C33.4177 401.274 43.1338 397.432 45.7364 402.32C48.5126 407.208 42.2663 414.891 36.3673 412.62C30.4682 410.351 28.733 406.335 27.692 403.89C26.8245 401.448 30.4682 391.322 22.8339 389.227C22.8339 389.227 20.5785 403.018 21.6193 406.335C21.6193 406.335 11.2091 395.161 5.65695 400.399C5.65695 400.399 15.8938 408.954 16.9348 411.399C16.9348 411.399 8.60672 407.732 6.35106 412.796C6.35106 412.796 13.9853 417.333 17.2818 418.034C20.5785 418.732 23.1809 419.43 24.916 421.873C24.916 421.873 15.7202 420.65 15.1997 425.714C15.1997 425.714 24.2219 425.364 28.3861 426.763C32.5502 428.159 48.339 429.206 53.8912 425.54C59.4433 421.873 136.653 379.45 153.656 339.646C153.656 339.646 174.303 269.112 174.303 252.526" fill="#F4A082"/>
<path opacity="0.21" d="M137.867 284.302C137.867 284.302 155.218 319.916 177.427 333.883C199.635 348.024 166.668 258.638 137.867 284.302Z" fill="#D18161"/>
<path d="M317.269 204.865C317.097 206.438 319.353 211.325 322.648 242.226C325.946 273.127 343.469 315.551 343.121 320.441C342.775 325.328 354.054 330.216 362.902 351.342C371.577 372.465 390.662 387.655 395.347 392.02C395.347 392.02 405.41 389.225 415.994 390.624C426.576 392.02 436.641 389.225 438.548 386.084C438.548 386.084 443.234 390.448 438.896 394.463C434.559 398.304 424.843 394.463 422.239 399.353C419.463 404.241 425.711 411.921 431.61 409.827C437.509 407.732 439.416 403.542 440.284 401.097C441.324 398.655 437.681 388.527 445.141 386.432C445.141 386.432 447.225 400.225 446.357 403.542C446.357 403.542 456.768 392.542 462.319 397.78C462.319 397.78 451.908 406.335 451.041 408.78C451.041 408.78 459.543 405.113 461.625 410.177C461.625 410.177 453.99 414.716 450.695 415.415C447.397 416.113 444.796 416.811 443.06 419.08C443.06 419.08 452.256 417.857 452.776 422.921C452.776 422.921 443.754 422.397 439.59 423.794C435.425 425.19 419.637 426.065 414.084 422.397C408.533 418.732 331.671 375.608 315.013 335.804C315.013 335.804 294.889 265.097 295.06 248.511" fill="#F4A082"/>
<path opacity="0.21" d="M314.842 350.469C314.842 350.469 330.457 323.932 344.511 320.615C358.391 317.471 307.381 287.619 314.842 350.469Z" fill="#D18161"/>
<path d="M187.315 367.053L171.699 254.447L152.095 208.008C152.095 208.008 148.277 196.31 192.174 175.012C236.592 153.539 314.668 179.202 317.617 207.484C320.741 238.735 298.358 248.687 298.358 248.687L281.007 367.053C281.007 367.053 240.755 387.829 187.315 367.053Z" fill="#F4A082"/>
<path opacity="0.21" d="M177.427 333.883C177.253 335.804 253.247 386.782 289.855 358.674C326.292 330.566 184.885 274.35 177.427 333.883Z" fill="#D18161"/>
<path d="M196.858 174.836C195.47 179.028 220.108 149.173 217.678 106.225H245.44C245.44 106.225 245.44 159.649 273.548 176.409C273.72 176.583 229.477 217.786 196.858 174.836Z" fill="#F4A082"/>
<path opacity="0.34" d="M231.212 156.856C245.105 156.856 256.371 147.788 256.371 136.603C256.371 125.418 245.105 116.351 231.212 116.351C217.317 116.351 206.054 125.418 206.054 136.603C206.054 147.788 217.317 156.856 231.212 156.856Z" fill="#D18161"/>
<path d="M164.239 463.076C164.239 463.076 160.943 453.997 157.646 444.045C154.35 434.093 140.296 433.221 129.712 439.157C118.955 444.919 96.7466 431.651 88.5919 430.952C80.4373 430.078 68.8125 430.952 71.2415 437.587C74.1911 445.267 84.4279 438.459 88.5919 443.347C92.756 448.237 140.47 479.836 154.35 479.836C154.35 479.662 164.239 477.217 164.239 463.076Z" fill="#F4A082"/>
<path d="M303.563 451.029C303.563 451.029 307.727 442.3 311.892 432.697C316.055 423.095 330.109 423.619 340.172 430.428C350.236 437.236 373.659 426.238 381.987 426.238C390.316 426.238 401.592 428.159 398.471 434.443C394.825 441.95 385.283 433.919 380.771 438.459C376.262 442.998 325.772 469.71 311.718 468.314C311.718 468.488 302.176 464.996 303.563 451.029Z" fill="#F4A082"/>
<path d="M156.78 198.23C157.82 198.23 294.541 248.861 320.219 222.673C320.219 222.673 325.424 264.748 331.323 280.81C337.916 298.967 344.511 319.742 344.511 320.614C344.511 320.614 335.488 319.044 307.555 347.152C269.73 385.212 187.837 350.643 137.867 283.951C137.693 283.951 143.42 197.532 156.78 198.23Z" fill="#FFD2B9"/>
<path d="M144.724 238.709C157.861 231.228 175.186 242.958 188.469 235.647C189.912 234.799 191.357 233.777 192.945 233.438C194.388 233.099 195.976 233.438 197.422 233.607C211.713 235.988 226.007 238.367 240.156 240.918C243.909 241.599 247.806 242.279 251.705 242.279C256.758 242.279 261.955 241.257 266.865 242.958C269.173 243.808 271.195 245.169 273.504 246.019C279.425 248.398 285.921 247.548 292.274 246.528C300.792 245.339 309.308 243.977 317.826 242.788C320.282 242.449 323.602 242.788 323.891 245.508C324.036 248.398 320.426 249.079 317.826 249.079C310.031 249.079 302.235 251.629 294.439 252.649C288.809 253.328 283.179 253.158 277.403 252.819C250.26 251.799 222.974 250.268 195.833 248.398C190.635 248.059 185.293 247.718 180.24 246.698C178.363 246.359 176.486 245.848 174.755 246.359C173.31 246.698 171.867 247.718 170.422 248.229C164.648 250.268 158.873 244.488 152.954 244.997C150.354 245.169 147.757 246.528 145.158 246.359C142.559 246.189 139.959 242.788 141.548 240.579" fill="#FCEBE6"/>
<path d="M143.237 263.793C143.801 260.266 147.894 259.033 151 260.09C153.965 261.147 156.505 263.793 159.469 265.026C168.505 269.257 178.385 260.971 188.126 261.5C194.76 261.854 200.972 266.26 207.466 265.379C209.442 265.026 211.277 264.321 213.112 264.145C217.205 263.616 221.3 265.026 225.252 266.083C238.38 269.61 252.073 269.962 265.624 270.315C273.953 270.491 282.141 270.667 290.47 270.843C297.951 271.02 305.574 271.196 312.773 268.905C315.597 268.024 318.278 266.788 321.243 266.788C324.208 266.788 327.312 268.376 328.301 271.372C319.972 272.782 311.643 274.017 303.314 275.427C299.222 276.132 295.268 276.837 291.175 276.837C284.963 277.013 278.753 276.132 272.541 275.779C253.203 274.722 233.721 279.482 214.665 276.132C209.583 275.251 204.642 273.665 199.56 274.194C195.183 274.546 190.95 276.308 186.573 276.132C183.326 275.956 180.22 274.898 176.975 273.841C165.963 270.491 154.388 269.434 142.953 270.843C141.543 268.376 140.131 265.731 138.86 263.264C140.554 263.264 142.248 263.088 143.942 263.088" fill="#FCEBE6"/>
<path d="M124.056 291.376C130.569 287.004 139.098 288.053 146.385 290.326C153.828 292.775 160.961 296.273 168.712 296.273C176.001 296.273 182.98 293.299 190.113 292.949C201.587 292.425 212.905 298.372 224.225 296.797C229.032 296.099 233.684 294 238.49 293.65C242.057 293.299 245.623 294 249.189 294.698C256.322 296.099 263.455 297.324 270.433 298.722C272.603 299.072 274.775 299.597 277.099 299.42C280.046 299.246 282.681 298.022 285.474 296.973C292.296 294.35 299.272 292.251 306.405 290.676C310.282 289.801 314.469 289.277 317.879 291.026C319.276 291.727 320.362 292.775 321.913 293.299C324.703 294.174 327.649 292.425 330.44 291.727C333.23 291.026 337.262 292.425 337.107 295.398C329.045 298.372 320.051 296.973 311.522 297.324C302.374 297.848 293.536 300.471 284.542 302.046C270.433 304.493 256.011 304.319 241.9 301.696C237.094 300.821 232.287 299.42 227.481 299.246C221.743 299.072 216.006 300.295 210.268 300.995C195.849 302.921 181.429 301.87 167.007 300.645C159.099 300.121 151.191 299.42 143.283 298.896C137.237 298.372 131.034 298.022 124.987 296.449C123.746 296.099 122.351 295.575 121.575 294.524C120.8 293.299 121.42 291.376 122.816 291.376" fill="#FCEBE6"/>
<path d="M180.484 320.91C185.178 318.17 190.52 319.082 195.474 321.093C200.296 323.101 205.118 325.844 210.072 326.575C224.408 328.949 239.398 314.879 252.822 322.189C255.168 323.467 257.384 325.295 259.992 325.295C261.946 325.112 263.64 323.833 265.466 323.284C270.678 321.275 276.284 324.015 281.236 326.575C283.06 327.489 285.146 328.584 287.102 327.852C288.536 327.306 289.708 325.844 291.012 324.93C294.14 323.101 297.658 324.93 301.048 325.478C306 326.392 310.954 324.747 316.035 323.833C320.99 322.921 326.464 322.921 330.503 326.575C327.505 329.498 323.466 330.412 319.686 330.595C307.044 331.692 294.14 328.949 281.888 333.152C279.932 333.883 277.978 334.615 276.022 334.615C273.806 334.432 271.722 333.335 269.636 332.421C261.686 328.767 253.214 328.767 244.872 328.767C241.484 328.767 237.964 328.767 234.576 329.132C226.624 330.229 218.804 334.066 210.854 333.701C201.208 333.152 192.086 326.758 182.44 326.575C181.006 326.575 179.572 326.575 178.27 326.027C176.966 325.295 175.924 323.467 176.444 321.641C176.966 319.813 179.312 319.63 179.572 321.458" fill="#FCEBE6"/>
<path d="M146.374 219.312C149.072 213.057 155.606 210.781 161.285 211.349C166.966 211.918 172.362 214.953 178.043 216.468C183.865 218.175 189.831 218.365 195.796 217.228C198.919 216.658 202.043 215.711 205.169 216.279C208.149 216.847 210.847 218.744 213.83 219.883C224.199 223.673 234.706 215.521 245.359 213.814C252.458 212.678 259.844 214.193 266.944 215.9C284.269 220.072 302.021 224.431 319.489 221.398C319.348 226.706 313.808 228.413 309.548 228.603C292.648 229.361 275.748 228.603 258.849 226.328C250.471 225.191 241.949 223.863 233.572 224.431C227.606 224.81 221.784 226.328 215.819 225.949C205.878 225.38 196.221 220.072 186.28 219.883C181.167 219.691 176.054 221.019 170.942 221.777C163.983 222.726 156.883 222.537 149.925 221.209C148.504 221.019 146.942 220.64 145.949 219.123C145.096 217.797 145.38 215.142 146.799 214.764" fill="#FCEBE6"/>
<path d="M209.35 346.245C224.075 346.773 238.933 347.126 253.659 344.659C256.974 344.13 260.159 343.425 263.475 343.425C266.393 343.425 269.312 344.13 272.098 344.835C282.712 347.126 293.325 349.066 304.07 350.123C294.783 355.588 284.038 354.883 273.823 353.295C263.609 351.533 253.392 348.714 243.31 350.3C237.473 351.181 231.638 353.472 225.8 353.295C221.289 353.119 216.78 351.357 213.064 348.361" fill="#FCEBE6"/>
<path opacity="0.22" d="M187.315 118.795C187.315 118.795 202.931 158.6 231.732 156.856C260.534 155.283 280.835 118.272 282.568 99.4165C284.304 80.736 184.02 98.0198 187.315 118.795Z" fill="#1D3542"/>
<path d="M285.692 88.2431C285.692 122.462 247.694 150.221 231.558 150.221C215.597 150.221 177.427 122.462 177.427 88.2431C177.427 54.0246 200.675 11.077 230.519 11.077C260.36 11.077 285.692 54.0246 285.692 88.2431Z" fill="#F4A082"/>
<path opacity="0.18" d="M230.344 29.4082C230.344 29.4082 249.778 70.6103 281.007 85.6245C281.007 85.6245 312.238 100.639 281.007 85.6245L242.317 28.1862L219.066 23.2978C219.066 23.2978 184.714 74.9748 189.745 90.5128C189.745 90.5128 194.776 106.051 189.745 90.5128C189.745 90.5128 218.198 35.1695 236.418 29.5829C254.635 23.9963 226.527 21.3776 226.527 21.3776" fill="#A05940"/>
<path d="M230.864 30.9796C230.864 30.9796 202.931 49.1365 189.745 90.5128C189.745 90.5128 182.284 108.67 187.315 118.621C192.174 128.572 211.085 141.841 207.094 154.237C207.094 154.237 207.962 175.711 189.051 190.724C189.051 190.724 207.094 183.217 222.71 212.198C222.71 212.198 255.677 194.739 279.445 225.466C279.445 225.466 296.796 205.563 313.974 231.229C313.974 231.229 329.589 220.402 337.744 241.178C337.744 241.178 350.062 231.229 345.899 258.638C345.899 258.638 359.953 270.16 342.601 280.984C342.601 280.984 345.031 286.746 335.14 292.506L330.283 278.365C330.283 278.365 332.711 275.92 338.438 275.92C338.438 275.92 333.579 264.398 341.733 258.462C341.733 258.462 328.547 255.145 328.547 241.004C328.547 241.004 313.8 250.956 303.909 233.497C303.909 233.497 280.141 253.4 261.054 226.863C261.054 226.863 223.232 252.526 205.88 218.658C205.88 218.658 159.033 240.132 156.606 197.882C156.606 197.882 131.968 164.012 163.199 144.11C163.199 144.11 134.571 105.876 151.746 72.1816C169.966 36.7408 187.315 -16.158 226.701 6.18866C226.701 6.18866 295.754 -24.3635 285.866 89.8146C286.04 89.8146 251.511 63.2778 230.864 30.9796Z" fill="#1D3542"/>
<path d="M190.439 93.3062C192 99.7657 189.919 105.876 185.579 106.924C181.416 107.971 176.559 103.607 174.997 97.147C173.435 90.6874 175.517 84.5768 179.854 83.5295C184.191 82.4819 188.877 86.8464 190.439 93.3062Z" fill="#F4A082"/>
<path d="M280.313 87.5449C278.753 94.0044 280.835 100.115 285.172 101.162C289.335 102.21 294.195 97.8454 295.757 91.3857C297.316 84.9261 295.234 78.8155 290.897 77.7682C286.734 76.7206 281.875 81.0852 280.313 87.5449Z" fill="#F4A082"/>
<path d="M142.03 277.667C124.681 271.905 117.393 292.506 117.393 292.506C105.075 287.619 101.778 303.33 101.778 303.33C91.0209 312.41 101.778 324.804 101.778 324.804C101.778 326.2 101.952 327.423 102.125 328.645L111.321 323.758C109.065 323.758 107.504 323.932 107.504 323.932C111.668 315.727 105.075 306.473 105.075 306.473C117.393 307.346 121.558 296.522 121.558 296.522C165.974 313.108 177.427 261.779 177.427 261.779C177.427 261.779 159.381 283.429 142.03 277.667Z" fill="#1D3542"/>
<path d="M199.807 91.7348C203.451 92.6077 206.922 92.9571 210.566 92.7824C214.035 92.6077 217.504 91.7348 220.976 90.3381C218.198 92.7824 214.383 94.1791 210.566 94.5282C206.922 94.7029 202.931 93.83 199.807 91.7348Z" fill="#2E2430"/>
<path d="M224.271 129.794C229.303 131.889 234.682 131.366 239.367 128.747C240.235 128.223 239.367 127.001 238.673 127.525C234.336 130.143 229.303 130.318 224.619 128.398C223.752 128.048 223.403 129.445 224.271 129.794Z" fill="#A34F31"/>
<path d="M224.445 115.828C225.833 115.828 227.047 116.002 228.263 116.002C229.477 116.002 230.693 116.002 231.732 115.828C232.948 115.828 233.988 115.653 235.202 115.478C236.418 115.304 237.631 115.129 239.019 114.78C238.151 115.828 237.111 116.701 235.898 117.224C234.682 117.748 233.294 118.097 231.906 118.272C230.519 118.446 229.131 118.272 227.915 117.748C226.701 117.574 225.487 116.875 224.445 115.828Z" fill="#A34F31"/>
<path d="M244.398 91.9094C248.042 92.7824 251.511 93.1315 255.155 92.9568C258.626 92.7824 262.096 91.9094 265.565 90.5127C262.79 92.9568 258.972 94.3535 255.155 94.7027C251.339 94.8773 247.348 94.0044 244.398 91.9094Z" fill="#2E2430"/>
<path d="M199.635 83.7039C204.492 78.1173 211.605 75.4986 218.892 76.8951C220.108 77.0698 220.628 75.1492 219.414 74.9748C211.433 73.4034 203.625 76.0222 198.245 82.1328C197.38 83.1801 198.767 84.7515 199.635 83.7039Z" fill="#1D3542"/>
<path d="M266.087 81.4345C260.708 75.3239 252.899 72.7052 244.918 74.2766C243.704 74.451 244.224 76.3715 245.44 76.1968C252.727 74.8001 259.84 77.2444 264.697 83.0057C265.393 83.8786 266.781 82.4819 266.087 81.4345Z" fill="#1D3542"/>
<path d="M232.426 28.1861C233.468 33.4238 235.55 38.6613 238.151 43.5497C240.755 48.438 243.704 53.1517 247.348 57.3418C250.991 61.5317 254.983 65.5472 259.494 68.6897C261.576 70.4355 264.003 71.8322 266.433 73.4034C268.863 74.8001 271.292 76.0224 273.894 77.4188C271.292 76.1968 268.689 75.1494 266.259 73.7527C263.831 72.356 261.402 71.134 259.146 69.3882C254.461 66.2456 250.297 62.5793 246.306 58.3892C242.491 54.1993 239.019 49.6601 236.244 44.7717C233.468 39.8833 231.038 34.6459 229.477 28.8846L232.426 28.1861Z" fill="#1D3542"/>
<path d="M233.642 24.5201C232.426 27.1388 231.732 30.1067 231.212 33.2492C230.69 36.2173 230.519 39.3598 230.69 42.3277C230.864 45.4702 231.558 48.4381 232.6 51.4059C233.642 54.374 235.202 56.9928 237.111 59.6115C235.03 57.1672 233.12 54.7232 231.906 51.7553C230.519 48.9619 229.651 45.8194 229.131 42.6768C228.609 39.5343 228.609 36.2173 228.783 33.0748C229.131 29.7576 229.651 26.7897 230.69 23.4725L233.642 24.5201Z" fill="#1D3542"/>
<path d="M236.418 27.837C235.03 28.7099 233.468 29.9322 232.08 31.1542C230.69 32.3762 229.477 33.7729 228.263 35.1696C227.047 36.5663 226.007 38.1375 224.965 39.7089C223.926 41.28 223.058 43.0259 222.364 44.7717C222.884 43.0259 223.578 41.1054 224.271 39.3595C224.965 37.6137 226.007 35.8679 227.047 34.2967C228.089 32.7254 229.131 30.9795 230.519 29.5828C231.732 28.0117 233.12 26.615 234.682 25.2183L236.418 27.837Z" fill="#1D3542"/>
</svg>
