<svg width="497" height="375" viewBox="0 0 497 375" fill="none" xmlns="http://www.w3.org/2000/svg">
<path d="M316.211 329C293.5 340.5 225.247 375.033 201.13 371.192C178.054 367.35 155.152 361.938 133.29 353.907C91.8229 338.72 53.3052 313.231 28.3207 275.869C5.24459 241.301 -2.56301 199.75 7.50003 159.247C17.2163 119.965 41.5068 84.6991 72.5641 59.3844C143.874 0.549652 245.548 -3.4658 332.994 7.53295C358.498 10.6755 383.83 15.7385 408.466 22.8965C429.113 28.8322 450.628 35.9902 467.631 49.7824C485.503 64.2728 494.351 85.572 493.657 108.617C492.964 132.536 482.553 154.708 469.193 174.087C444.383 210.4 408.5 246.5 376.5 276.5C344.5 306.5 309.1 334.919 268.5 351.853C258.783 355.868 250.753 359.602 240.688 363.093C243.5 366.984 240.688 361.617 240.688 366.492C327.5 335.489 397.71 266.964 455.313 196.607C482.901 163.087 509.967 116.3 488.972 72.3037C479.952 53.274 462.254 40.8786 443.689 32.4985C421.307 22.5472 397.016 16.4368 373.072 11.5484C324.491 1.59723 273.655 -2.41822 224.207 1.77168C178.748 5.438 133.117 16.9605 93.7316 40.8786C24.5034 82.9533 -22.169 171.816 11.6642 251.078C28.8412 291.233 62.1539 322.308 100.151 342.211C121.319 353.383 144.221 361.24 167.472 367.002C191.24 372.762 190.538 374.152 215 374.5C228.5 372.5 261.445 357.923 272.55 353.907C274.286 353.383 317.773 328.302 316.211 329Z" fill="#1A7F72"/>
</svg>
