<svg width="1920" height="1314" viewBox="0 0 1920 1314" fill="none" xmlns="http://www.w3.org/2000/svg">
<g opacity="0.5">
<path fill-rule="evenodd" clip-rule="evenodd" d="M-434.895 640.767L-471 1297.37C-464.618 1294.66 -458.561 1291.8 -452.505 1288.94C-426.262 1276.53 -400.019 1264.12 -347.219 1264.12C-294.128 1264.12 -267.631 1276.64 -241.182 1289.13C-214.831 1301.58 -188.527 1314 -136.016 1314C-82.9255 1314 -56.4286 1301.48 -29.9803 1288.99C-3.62863 1276.55 22.6748 1264.12 75.1856 1264.12C128.277 1264.12 154.773 1276.64 181.222 1289.13C207.573 1301.58 233.877 1314 286.388 1314C339.382 1314 365.879 1301.53 392.376 1289.06C418.873 1276.59 445.37 1264.12 498.363 1264.12C550.874 1264.12 577.178 1276.55 603.529 1288.99C629.978 1301.48 656.474 1314 709.566 1314C762.076 1314 788.38 1301.58 814.731 1289.13C841.18 1276.64 867.677 1264.12 920.768 1264.12C973.278 1264.12 999.582 1276.55 1025.93 1288.99C1052.38 1301.48 1078.88 1314 1131.97 1314C1184.48 1314 1210.78 1301.58 1237.14 1289.13C1263.58 1276.64 1290.08 1264.12 1343.17 1264.12C1395.68 1264.12 1421.99 1276.55 1448.34 1288.99C1474.79 1301.48 1501.28 1314 1554.37 1314C1606.88 1314 1633.19 1301.58 1659.54 1289.13C1685.99 1276.64 1712.48 1264.12 1765.58 1264.12C1818.09 1264.12 1844.39 1276.55 1870.74 1288.99C1897.19 1301.48 1923.69 1314 1976.78 1314C2029.29 1314 2055.59 1301.58 2081.94 1289.13C2108.39 1276.64 2134.89 1264.12 2187.98 1264.12C2191.18 1264.12 2194.17 1264.31 2197.06 1264.5C2199.77 1264.68 2202.38 1264.84 2205 1264.84L2127.17 763.277L2205 53.1554C2202.38 53.1554 2199.77 53.3243 2197.06 53.4988C2194.17 53.6853 2191.18 53.8783 2187.98 53.8783C2134.89 53.8783 2108.39 41.363 2081.94 28.8706C2055.59 16.4239 2029.29 4 1976.78 4C1923.69 4 1897.19 16.5153 1870.74 29.0077C1844.39 41.4544 1818.09 53.8783 1765.58 53.8783C1712.48 53.8783 1685.99 41.363 1659.54 28.8706C1633.19 16.4239 1606.88 4 1554.37 4C1501.28 4 1474.79 16.5153 1448.34 29.0077C1421.99 41.4543 1395.68 53.8783 1343.17 53.8783C1290.08 53.8783 1263.58 41.363 1237.14 28.8706C1210.78 16.4239 1184.48 4 1131.97 4C1078.88 4 1052.38 16.5153 1025.93 29.0077C999.582 41.4544 973.278 53.8783 920.768 53.8783C867.677 53.8783 841.18 41.363 814.731 28.8706C788.38 16.4239 762.076 4 709.566 4C656.474 4 629.978 16.5153 603.529 29.0077C577.178 41.4544 550.874 53.8783 498.363 53.8783C445.37 53.8783 418.873 41.4087 392.376 28.9391C365.879 16.4696 339.382 4 286.388 4C233.877 4 207.573 16.4239 181.222 28.8706C154.773 41.363 128.277 53.8783 75.1856 53.8783C22.6748 53.8783 -3.62863 41.4543 -29.9803 29.0077C-56.4286 16.5153 -82.9255 4 -136.016 4C-188.527 4 -214.831 16.4239 -241.182 28.8706C-267.631 41.363 -294.128 53.8783 -347.219 53.8783C-400.019 53.8783 -426.262 41.4708 -452.505 29.0634C-458.561 26.2001 -464.618 23.3369 -471 20.6261L-434.895 640.767Z" fill="url(#paint0_linear_29_52)"/>
</g>
<g opacity="0.5">
<path fill-rule="evenodd" clip-rule="evenodd" d="M-368.487 668.094L-403 16.4991C-396.899 19.1892 -391.11 22.0306 -385.321 24.8721C-360.235 37.1848 -335.149 49.4976 -284.677 49.4976C-233.927 49.4976 -208.598 37.0779 -183.316 24.6808C-158.127 12.3291 -132.983 0 -82.7878 0C-32.0379 0 -6.70941 12.4197 18.5727 24.8168C43.7623 37.1685 68.9059 49.4976 119.101 49.4976C169.851 49.4976 195.18 37.0778 220.462 24.6808C245.651 12.3291 270.795 0 320.99 0C371.647 0 396.976 12.3744 422.304 24.7488C447.633 37.1232 472.962 49.4976 523.619 49.4976C573.814 49.4976 598.958 37.1685 624.147 24.8168C649.429 12.4198 674.758 0 725.508 0C775.703 0 800.847 12.3291 826.036 24.6808C851.318 37.0778 876.647 49.4976 927.397 49.4976C977.592 49.4976 1002.74 37.1685 1027.93 24.8168C1053.21 12.4197 1078.54 0 1129.29 0C1179.48 0 1204.62 12.3291 1229.81 24.6808C1255.1 37.0779 1280.42 49.4976 1331.17 49.4976C1381.37 49.4976 1406.51 37.1685 1431.7 24.8168C1456.99 12.4197 1482.31 0 1533.06 0C1583.26 0 1608.4 12.3291 1633.59 24.6808C1658.87 37.0779 1684.2 49.4976 1734.95 49.4976C1785.15 49.4976 1810.29 37.1685 1835.48 24.8168C1860.76 12.4197 1886.09 0 1936.84 0C1987.04 0 2012.18 12.3291 2037.37 24.6808C2062.65 37.0779 2087.98 49.4976 2138.73 49.4976C2141.79 49.4976 2144.65 49.306 2147.41 49.121C2150 48.9478 2152.5 48.7802 2155 48.7802L2080.61 546.519L2155 1251.22C2152.5 1251.22 2150 1251.05 2147.41 1250.88C2144.65 1250.69 2141.79 1250.5 2138.73 1250.5C2087.98 1250.5 2062.65 1262.92 2037.37 1275.32C2012.18 1287.67 1987.04 1300 1936.84 1300C1886.09 1300 1860.76 1287.58 1835.48 1275.18C1810.29 1262.83 1785.15 1250.5 1734.95 1250.5C1684.2 1250.5 1658.87 1262.92 1633.59 1275.32C1608.4 1287.67 1583.26 1300 1533.06 1300C1482.31 1300 1456.99 1287.58 1431.7 1275.18C1406.51 1262.83 1381.37 1250.5 1331.17 1250.5C1280.42 1250.5 1255.1 1262.92 1229.81 1275.32C1204.62 1287.67 1179.48 1300 1129.29 1300C1078.54 1300 1053.21 1287.58 1027.93 1275.18C1002.74 1262.83 977.592 1250.5 927.397 1250.5C876.647 1250.5 851.318 1262.92 826.036 1275.32C800.847 1287.67 775.703 1300 725.508 1300C674.758 1300 649.429 1287.58 624.147 1275.18C598.958 1262.83 573.814 1250.5 523.619 1250.5C472.962 1250.5 447.633 1262.88 422.304 1275.25C396.976 1287.63 371.647 1300 320.99 1300C270.795 1300 245.651 1287.67 220.462 1275.32C195.18 1262.92 169.851 1250.5 119.101 1250.5C68.9059 1250.5 43.7623 1262.83 18.5727 1275.18C-6.70941 1287.58 -32.0379 1300 -82.7878 1300C-132.983 1300 -158.127 1287.67 -183.316 1275.32C-208.598 1262.92 -233.927 1250.5 -284.677 1250.5C-335.149 1250.5 -360.235 1262.82 -385.321 1275.13C-391.11 1277.97 -396.899 1280.81 -403 1283.5L-368.487 668.094Z" fill="url(#paint1_linear_29_52)"/>
</g>
<defs>
<linearGradient id="paint0_linear_29_52" x1="867" y1="4" x2="867" y2="1314" gradientUnits="userSpaceOnUse">
<stop stop-color="#1A7F72"/>
<stop offset="1" stop-color="#7ADBAE"/>
</linearGradient>
<linearGradient id="paint1_linear_29_52" x1="876" y1="1300" x2="876" y2="0" gradientUnits="userSpaceOnUse">
<stop stop-color="#1A7F72"/>
<stop offset="1" stop-color="#7ADBAE"/>
</linearGradient>
</defs>
</svg>
