<svg width="260" height="305" viewBox="0 0 260 305" fill="none" xmlns="http://www.w3.org/2000/svg">
<path d="M15.7894 82.1897C23.1469 85.3072 40.9745 85.0238 40.9745 85.0238C41.2575 85.0238 37.0128 73.404 36.7299 72.5538C32.7682 64.335 20.3171 50.7314 10.4128 52.1484C3.05535 52.9986 -0.906357 60.3673 0.791517 67.169C2.48939 74.2542 9.56387 79.3556 15.7894 82.1897Z" fill="#1A7F72"/>
<path d="M22.0149 134.053C29.6554 135.187 45.5022 130.652 46.9171 130.085C49.4639 139.154 52.8597 147.94 56.5384 157.009C58.8022 162.11 61.066 167.212 63.6129 172.313C62.198 170.046 60.7831 168.345 60.5001 168.062C54.5575 161.26 38.9937 151.341 29.6554 155.309C22.8639 158.143 20.883 166.361 24.2788 172.596C27.6745 178.831 36.1639 181.949 42.6724 183.083C49.4639 184.216 63.0469 180.532 66.7256 179.398C67.5746 181.382 68.7065 183.366 69.5554 185.066C74.0831 194.419 78.8937 203.488 83.1384 212.557C84.5533 215.674 85.9682 219.075 87.3831 222.193C85.9682 220.209 85.1193 218.792 84.8363 218.509C78.8937 211.707 63.3299 201.787 53.9916 205.755C47.2001 208.589 45.2192 216.808 48.615 223.043C52.0107 229.278 60.5001 232.396 67.0086 233.529C73.5171 234.379 86.2512 231.262 90.4959 230.128C91.9108 233.529 93.0427 236.93 94.1746 240.048C95.0235 242.315 95.8725 244.582 96.4384 246.849C97.0044 249.117 97.5703 251.384 98.4193 253.651C99.5512 257.902 100.683 262.437 101.532 266.688C102.098 269.522 102.664 272.639 103.23 275.474C101.815 272.356 98.7023 266.121 98.4193 265.554C93.6086 257.902 79.7427 245.716 69.8384 248.266C62.7639 249.967 59.6511 257.902 61.915 264.421C64.4618 271.222 72.1022 275.474 78.6107 277.457C85.6852 279.725 101.532 277.741 103.513 277.457C104.362 282.275 105.211 286.81 106.06 291.061C107.758 299.847 108.89 308.065 109.738 314.867H116.247C115.115 307.782 113.7 299.28 111.719 289.927C110.87 285.109 109.738 280.008 108.607 274.623C109.738 274.057 116.53 271.506 122.472 268.105C127.566 273.773 141.149 280.292 142.847 281.142C141.149 285.676 139.168 289.927 137.47 293.895C134.075 301.547 130.962 308.632 128.132 314.584H135.207C137.753 309.199 140.3 302.964 143.13 296.162C145.111 291.628 146.809 286.81 148.79 281.709C150.77 281.992 166.334 285.393 173.692 283.692C180.2 282.275 188.407 278.308 191.236 271.789C194.066 265.271 191.519 257.335 184.445 255.068C174.824 251.951 160.109 262.72 154.732 270.089C154.449 270.656 151.619 275.474 149.638 278.874C150.487 276.891 151.053 274.907 151.902 272.639C153.317 268.388 154.732 264.137 156.43 259.603C156.996 257.335 157.845 255.068 158.411 252.801C159.26 250.534 159.543 247.983 160.109 245.716C161.524 240.331 162.373 234.663 163.504 228.711C167.183 230.128 180.2 234.663 187.275 234.096C194.066 233.529 202.556 231.262 206.517 225.027C210.479 219.075 209.064 210.857 202.556 207.456C193.5 202.638 177.37 211.423 170.862 217.942C170.579 218.225 166.334 223.61 164.07 226.444C164.636 223.043 165.202 219.642 165.485 215.958C166.617 205.755 167.749 195.553 168.598 185.35C168.881 182.232 169.164 179.115 169.447 175.997C170.862 176.564 186.143 182.232 193.783 181.665C200.575 181.099 209.064 178.831 213.026 172.596C216.988 166.645 215.573 158.426 209.064 155.025C200.009 150.207 183.879 158.993 177.37 165.511C176.804 166.078 170.862 173.447 169.447 175.431C170.296 168.629 170.862 161.544 171.994 155.025C173.409 145.673 175.39 136.604 177.936 128.101C178.502 128.385 194.632 134.336 202.556 133.77C209.347 133.203 217.836 130.935 221.798 124.7C225.76 118.749 224.345 110.53 217.836 107.129C208.781 102.311 192.651 111.097 186.143 117.615C185.577 118.182 179.351 126.118 178.219 127.535C178.502 126.968 178.502 126.401 178.502 125.834C181.332 116.765 185.294 108.263 189.256 100.327C191.519 95.7929 194.066 91.5417 196.613 87.574C199.443 88.9911 212.743 95.5095 219.817 95.7929C226.609 96.0763 235.381 94.6592 239.909 88.9911C244.436 83.6063 243.87 75.1041 237.928 71.1364C229.439 65.4682 212.46 72.27 205.102 77.9382C204.819 78.2216 201.141 81.9059 198.594 84.4565C199.726 82.7561 200.858 80.7722 201.99 79.0718C206.234 72.5534 210.479 66.8852 214.441 62.0673C216.705 59.2332 218.685 56.6826 220.666 54.4153C224.345 54.4153 238.777 53.8485 245.002 51.0144C251.228 48.1803 258.302 42.7956 259.717 35.7104C261.132 28.9086 256.888 21.54 249.53 20.9731C239.343 19.8395 227.458 33.7265 223.779 42.2287C223.496 43.079 219.817 54.6987 219.817 54.6987H220.1C218.119 56.966 216.139 59.2332 213.875 61.7839C209.913 66.6018 205.385 72.27 201.141 78.505C196.613 84.7399 192.085 91.8251 187.841 99.7606C183.596 107.696 179.634 116.198 176.521 125.267V125.551C176.521 122.433 176.521 114.214 176.239 113.648C175.107 104.579 167.466 87.8574 157.562 85.8736C150.204 84.4565 144.262 90.1247 143.696 97.2099C143.13 104.295 148.224 111.664 153.317 116.198C158.977 121.3 174.824 126.401 176.239 126.684C173.409 135.47 171.145 144.822 169.447 154.458C168.598 159.843 167.749 165.511 166.9 170.896C166.9 168.345 166.9 166.078 166.9 165.795C165.768 156.726 158.128 140.005 148.224 138.021C140.866 136.604 134.924 142.272 134.358 149.357C133.792 156.442 138.885 163.811 143.979 168.345C149.073 172.88 162.656 177.414 166.051 178.548C165.768 180.815 165.485 182.799 165.202 185.066C164.07 195.269 162.938 205.472 161.241 215.391C160.675 218.792 160.109 222.476 159.543 225.877C159.543 223.61 159.543 221.626 159.543 221.343C158.411 212.274 150.77 195.553 140.866 193.569C133.509 192.152 127.566 197.82 127 204.905C126.434 211.99 131.528 219.359 136.621 223.893C141.432 228.144 153.883 232.679 158.128 233.813C157.279 237.213 156.713 240.898 155.864 244.299C155.298 246.566 154.732 248.833 153.883 251.1C153.034 253.368 152.468 255.635 151.619 257.902C150.204 262.153 148.507 266.405 146.809 270.656C145.677 273.49 144.545 276.324 143.413 278.874C143.979 275.474 144.828 268.388 144.828 267.822C144.828 261.87 142.847 251.951 138.602 245.149C138.602 244.299 138.602 243.448 138.319 242.598C137.187 235.513 130.679 230.412 123.604 232.396C113.7 234.946 107.475 252.234 106.909 261.303C106.909 261.87 107.192 267.822 107.475 271.506C106.909 269.239 106.626 267.255 106.06 264.987C104.928 260.736 103.796 256.202 102.664 251.667C102.098 249.4 101.249 247.133 100.683 244.866C100.117 242.598 98.9852 240.331 98.4193 238.064C96.4384 232.679 94.1746 227.294 91.9108 222.193C95.5895 221.343 109.172 217.942 114.549 213.691C119.926 209.439 125.585 202.638 125.585 195.553C125.585 188.467 119.926 182.516 112.568 183.083C102.381 184.216 93.6086 200.37 91.9108 209.156C91.9108 209.723 91.0618 216.241 91.0618 219.926C89.6469 216.808 88.232 213.691 86.5342 210.29C82.0065 201.221 77.1959 192.152 72.3852 183.083C70.9703 180.248 69.5554 177.414 68.1405 174.58C69.5554 174.297 85.6852 170.613 91.6278 165.795C97.0044 161.544 102.664 154.742 102.664 147.657C102.664 140.571 97.0044 134.62 89.6469 135.187C79.4597 136.32 70.6873 152.474 68.9895 161.26C68.9895 161.827 68.1405 171.463 67.8575 173.73C65.0278 168.062 61.915 161.827 59.0852 155.875C55.1235 147.373 51.7277 138.587 49.1809 130.085C49.7469 129.802 66.7256 126.118 72.9512 121.3C78.3278 117.048 83.9873 110.247 83.9873 103.161C83.9873 96.0763 78.3278 90.1247 70.9703 90.6915C60.7831 91.8251 52.0107 107.979 50.3128 116.765C50.0299 117.332 49.1809 127.535 49.1809 129.518C48.8979 128.952 48.8979 128.385 48.615 128.101C45.7852 119.032 44.3703 109.68 43.5213 100.894C42.9554 95.7929 42.6724 90.9749 42.6724 86.157C45.7852 85.8736 60.5001 83.8897 66.7256 80.2054C72.6682 76.8045 78.8937 70.5695 79.7427 63.4843C80.5916 56.3991 75.498 49.8808 68.1405 49.8808C57.9533 49.8808 47.4831 64.9014 44.6533 73.687C44.3703 74.2538 43.5213 79.0718 42.6724 82.7561C42.6724 80.4888 42.6724 78.505 42.6724 76.2377C42.6724 68.5857 43.2384 61.5005 43.5213 55.2655C43.8043 51.5812 44.0873 48.4637 44.6533 45.6296C47.4831 43.6458 59.3682 35.1435 63.0469 29.192C66.4426 23.2404 69.5554 15.0216 66.7256 8.21978C64.1788 1.70139 56.5384 -1.98292 50.0299 1.41798C40.9745 6.23592 38.7107 24.374 40.1256 33.4431C40.1256 34.2933 43.8043 46.1965 43.8043 45.913H44.0873C43.8043 48.7471 43.2384 51.8646 42.9554 55.2655C42.3894 61.5005 41.8235 68.5857 41.5405 76.2377C41.2575 83.8897 41.2575 92.392 42.1064 101.178C42.9554 109.963 44.0873 119.316 46.6341 128.668V128.952C44.9362 126.401 40.4086 119.599 39.8426 119.032C33.9001 112.231 18.3362 102.311 8.9979 106.279C2.20641 109.113 0.225553 117.332 3.6213 123.567C7.01705 129.802 15.2234 132.919 22.0149 134.053Z" fill="#1A7F72"/>
<path d="M196.613 86.1568C196.896 86.1568 199.726 74.2537 200.009 73.4034C201.141 64.3344 198.311 46.1963 189.256 41.6617C182.747 38.5442 175.39 42.2285 172.843 49.0303C170.296 55.8321 173.409 64.051 177.087 69.7191C181.615 76.5209 196.613 86.1568 196.613 86.1568Z" fill="#1A7F72"/>
</svg>
