<svg width="172" height="200" viewBox="0 0 172 200" fill="none" xmlns="http://www.w3.org/2000/svg">
<path d="M9.95565 56.8257C14.7663 58.8095 26.6514 58.5261 26.6514 58.5261C26.6514 58.5261 24.1046 50.8741 23.8216 50.3073C21.2748 44.9226 13.0684 35.8535 6.55989 36.9871C1.74924 37.5539 -0.79756 42.3719 0.334356 46.9064C1.18329 51.4409 5.99394 54.8418 9.95565 56.8257Z" fill="#1A7F72"/>
<path d="M13.9174 90.8352C19.011 91.6854 29.4813 88.5679 30.3302 88.2845C32.0281 94.2361 34.2919 100.188 36.5557 105.856C37.9706 109.257 39.6685 112.658 41.0834 115.775C40.2345 114.358 39.3855 113.224 39.1025 112.941C35.1408 108.407 24.9536 101.888 18.7281 104.722C14.2004 106.706 13.0685 111.807 15.3323 116.059C17.5961 120.31 22.9727 122.294 27.5004 122.86C32.0281 123.427 41.0834 121.16 43.3472 120.31C43.9132 121.443 44.4791 122.86 45.3281 123.994C48.4409 129.946 51.5536 136.18 54.3834 142.132C55.5153 144.116 56.3643 146.383 57.2132 148.367C56.3643 147.233 55.5153 146.1 55.5153 145.816C51.5536 141.282 41.3664 134.763 35.1408 137.598C30.6132 139.581 29.4813 144.683 31.7451 148.934C34.0089 153.185 39.3855 155.169 43.9132 155.736C48.1579 156.302 56.6473 154.319 59.477 153.468C60.326 155.736 61.1749 158.003 62.0238 159.987C62.5898 161.404 63.1558 162.821 63.4387 164.521C63.7217 165.938 64.2877 167.639 64.5707 169.056C65.1366 171.89 65.9856 175.007 66.5515 177.558C67.1175 179.542 67.4004 181.242 67.6834 183.226C66.8345 181.242 64.8536 176.991 64.5707 176.708C61.4579 171.607 52.1196 163.671 45.894 165.372C41.0834 166.505 39.1025 171.607 40.8004 175.858C42.4983 180.392 47.5919 183.226 51.8366 184.36C56.6472 185.777 66.8345 184.36 68.2494 184.36C68.8153 187.477 69.3813 190.595 69.9473 193.429C71.0792 199.381 71.6451 204.482 72.494 209.016H76.7387C75.8898 204.198 75.0409 198.814 73.9089 192.579C73.343 189.461 72.4941 186.06 71.6451 182.659C72.4941 182.376 76.7388 180.676 80.7005 178.408C84.0962 182.093 92.8686 186.344 94.0005 186.911C92.8686 189.745 91.7366 192.579 90.3217 195.413C88.0579 200.514 86.0771 205.049 84.0962 209.016H88.9068C90.6047 205.332 92.3026 201.364 94.0005 196.83C95.1324 193.712 96.5473 190.595 97.6792 187.194C98.8111 187.477 109.281 189.461 114.092 188.611C118.337 187.761 123.713 185.21 125.694 180.959C127.675 176.708 125.977 171.607 121.449 169.906C115.224 167.639 105.32 175.007 101.924 179.825C101.641 180.109 99.6601 183.51 98.5282 185.494C99.0941 184.076 99.6601 182.943 99.9431 181.526C101.075 178.692 101.924 175.858 102.773 173.024C103.339 171.607 103.622 170.189 104.188 168.489C104.754 167.072 105.037 165.372 105.32 163.954C106.169 160.27 107.018 156.586 107.583 152.902C110.13 153.752 118.62 156.869 123.147 156.586C127.675 156.302 133.335 154.602 135.881 150.634C138.428 146.667 137.579 141.282 133.335 139.015C127.392 135.897 116.639 141.565 112.394 145.816C112.111 146.1 109.564 149.501 107.866 151.201C108.149 148.934 108.715 146.667 108.998 144.399C109.847 137.881 110.413 131.079 110.979 124.277C111.262 122.294 111.545 120.026 111.545 118.042C112.394 118.326 122.581 122.294 127.675 121.727C132.203 121.443 137.862 119.743 140.409 115.775C142.956 111.807 142.107 106.423 137.862 104.155C131.92 101.038 121.166 106.706 116.922 110.957C116.639 111.241 112.677 116.059 111.828 117.476C112.394 112.941 112.96 108.407 113.526 103.872C114.375 97.637 115.79 91.6854 117.488 86.0173C117.771 86.3007 128.524 90.2684 133.618 89.7016C138.145 89.4182 143.805 87.7177 146.352 83.75C148.898 79.7823 148.049 74.3975 143.805 72.1303C137.862 69.0128 127.109 74.6809 122.864 78.9321C122.581 79.2155 118.337 84.6002 117.771 85.4504C117.771 85.167 118.054 84.8836 118.054 84.3168C120.035 78.3653 122.298 72.6971 125.128 67.5957C126.543 64.4783 128.241 61.9276 129.939 59.0935C131.92 59.9437 140.692 64.1948 145.22 64.4782C149.747 64.7617 155.407 63.628 158.52 59.9437C161.349 56.2594 161.067 50.8747 157.105 48.324C151.445 44.6397 140.409 49.1742 135.598 52.8585C135.315 53.1419 133.052 55.4092 131.354 57.1096C132.203 55.976 132.769 54.559 133.618 53.4253C136.447 49.1742 139.277 45.4899 141.824 42.3724C143.239 40.672 144.654 38.9715 145.786 37.2711C148.049 37.2711 157.671 36.9877 161.632 35.0038C165.594 33.02 170.405 29.6191 171.254 24.8011C172.103 20.2666 169.556 15.4487 164.745 15.1652C157.954 14.315 150.03 23.6675 147.766 29.0522C147.484 29.6191 145.22 37.2711 145.22 37.2711C145.22 37.2711 145.22 37.2711 145.503 37.2711C144.371 38.6881 142.956 40.3886 141.541 42.089C138.994 45.2065 135.881 48.8908 133.052 53.1419C130.222 57.393 127.109 61.9276 124.279 67.0289C121.449 72.1303 118.903 77.7984 116.922 83.75V84.0334C116.922 82.0495 116.922 76.6648 116.922 76.098C116.073 70.1464 111.262 59.0935 104.471 57.9599C99.66 57.1096 95.6983 60.7939 95.4154 65.3285C95.1324 70.1464 98.5281 74.6809 101.641 77.7984C105.32 81.1993 115.79 84.3168 116.639 84.6002C114.658 90.5518 113.243 96.5034 112.111 102.738C111.545 106.423 110.979 109.824 110.413 113.508C110.413 111.807 110.413 110.39 110.413 110.107C109.564 104.155 104.754 93.1025 97.9622 91.9688C93.1515 91.1186 89.1898 94.8029 88.9068 99.3374C88.6239 104.155 92.0196 108.69 95.1324 111.807C98.5281 114.925 107.3 117.759 109.564 118.609C109.281 120.026 109.281 121.443 108.998 122.86C108.149 129.662 107.3 136.18 106.452 142.982C106.169 145.25 105.603 147.517 105.32 149.784C105.32 148.367 105.32 146.95 105.32 146.95C104.471 140.998 99.6601 129.946 92.8686 128.812C88.0579 127.962 84.0962 131.646 83.8132 136.18C83.5302 140.998 86.926 145.533 90.0388 148.65C93.1516 151.485 101.358 154.319 104.188 155.169C103.622 157.436 103.339 159.703 102.773 161.971C102.207 163.388 101.924 165.088 101.641 166.505C101.075 167.922 100.792 169.339 100.226 171.04C99.0941 173.874 98.2452 176.708 97.1133 179.259C96.2643 181.242 95.6984 182.943 94.8494 184.643C95.1324 182.376 95.6984 177.841 95.6984 177.558C95.6984 173.59 94.2835 167.072 91.4537 162.537C91.4537 161.971 91.4537 161.404 91.4537 160.837C90.6047 156.302 86.36 152.902 81.8324 154.035C75.3239 155.736 71.3621 167.072 71.0792 173.024C71.0792 173.307 71.3622 177.275 71.3622 179.542C71.0792 178.125 70.7962 176.708 70.5132 175.291C69.9473 172.457 69.0983 169.623 68.2494 166.505C67.6834 165.088 67.4004 163.671 66.8345 161.971C66.5515 160.554 65.7026 158.853 65.1366 157.436C63.7217 154.035 62.3068 150.351 60.8919 146.95C63.4387 146.383 72.2111 144.116 75.8898 141.282C79.5686 138.448 83.2473 134.197 83.2473 129.379C83.2473 124.844 79.5685 120.593 74.7579 121.16C67.9664 122.01 62.3068 132.496 61.1749 138.448C61.1749 138.731 60.6089 142.982 60.6089 145.533C59.76 143.549 58.6281 141.282 57.7791 139.298C54.6664 133.346 51.5536 127.395 48.4409 121.443C47.5919 119.743 46.46 117.759 45.6111 116.059C46.46 115.775 57.2132 113.508 61.1749 110.39C64.8536 107.556 68.5324 103.305 68.5324 98.4872C68.5324 93.9527 64.8536 89.7016 60.043 90.2684C53.2515 91.1186 47.5919 101.605 46.46 107.556C46.46 108.123 45.894 114.075 45.6111 115.775C43.6302 111.807 41.3664 107.556 39.6685 103.589C37.1217 97.9204 34.8579 92.2522 33.16 86.5841C33.443 86.5841 44.7621 84.0334 48.7238 80.9159C52.4026 78.0818 56.0813 73.8307 56.0813 69.0128C56.0813 64.4783 52.4026 60.2271 47.5919 60.7939C40.8004 61.6442 35.1408 72.1303 34.0089 78.0818C34.0089 78.6487 33.443 85.167 33.16 86.3007C33.16 86.0173 32.877 85.7339 32.877 85.167C31.1791 79.2155 30.0472 72.9805 29.4812 67.3123C29.1983 63.9114 28.9153 60.794 28.9153 57.6765C30.8961 57.3931 40.8004 56.2594 44.7621 53.7087C48.7238 51.4415 52.6855 47.4738 53.2515 42.6558C53.8174 38.1213 50.4217 33.5868 45.6111 33.5868C38.8196 33.5868 32.0281 43.5061 30.0472 49.1742C30.0472 49.4576 29.1983 52.8585 28.9153 55.1258C28.9153 53.7087 28.9153 52.2917 28.9153 50.8747C28.9153 45.7733 29.1983 41.2388 29.4812 36.9877C29.7642 34.7204 30.0472 32.4531 30.0472 30.4693C32.0281 29.0522 39.6685 23.6675 42.2153 19.6998C44.4791 16.0155 46.46 10.3473 44.7621 6.09619C43.0642 1.84507 38.2536 -0.705612 33.7259 1.56165C27.7834 4.67914 26.0855 16.5823 27.2174 22.5339C27.2174 23.1007 29.4813 30.7527 29.7642 30.7527C29.4813 32.7365 29.1983 34.7204 28.9153 36.9877C28.6323 41.2388 28.0663 45.7733 28.0663 50.8747C28.0663 55.976 28.0664 61.3608 28.3493 67.3123C28.9153 73.2639 29.7642 79.2155 31.4621 85.4504C31.4621 85.4504 31.4621 85.4505 31.4621 85.7339C30.3302 84.0334 27.2174 79.4989 26.9344 79.2155C22.9727 74.6809 12.7855 68.1626 6.55995 70.9966C2.03228 72.9805 0.900374 78.0818 3.16421 82.333C4.29612 88.0011 9.67271 90.2684 13.9174 90.8352Z" fill="#1A7F72"/>
<path d="M128.807 59.3769C128.807 59.3769 131.071 51.4415 131.071 51.1581C131.92 45.2065 129.939 33.3034 123.996 30.4693C119.752 28.4855 114.658 31.0361 113.243 35.2873C111.545 39.8218 113.809 45.2065 116.073 48.8908C118.903 53.142 128.807 59.3769 128.807 59.3769Z" fill="#1A7F72"/>
</svg>
