<svg width="160" height="181" viewBox="0 0 160 181" fill="none" xmlns="http://www.w3.org/2000/svg">
<path d="M10.5152 48.0295C15.0428 50.0134 26.079 49.7299 26.079 49.7299C26.079 49.7299 23.8152 42.6447 23.5322 42.0779C21.2684 36.9766 13.6279 28.7578 7.40238 29.608C2.87472 30.1748 0.610955 34.7093 1.45989 38.9604C2.30883 43.2116 6.55346 46.6125 10.5152 48.0295Z" fill="#1A7F72"/>
<path d="M14.1945 80.0543C18.7222 80.6211 28.6264 77.787 29.4754 77.787C30.8902 83.1718 33.1541 88.84 35.4179 94.2247C36.8328 97.3422 38.2477 100.46 39.6626 103.577C38.8137 102.16 37.9647 101.027 37.9647 101.027C34.286 96.7754 24.6647 90.8238 19.0051 93.3745C14.7604 95.0749 13.6285 100.176 15.6094 103.861C17.8732 107.828 22.6839 109.529 26.9286 110.379C31.1732 110.946 39.3796 108.679 41.6434 108.112C42.2094 109.245 42.7754 110.379 43.3413 111.513C46.1711 117.181 49.0009 122.849 51.5477 128.517C52.3966 130.501 53.2455 132.485 54.0945 134.469C53.2455 133.335 52.6797 132.201 52.3967 132.201C48.718 127.95 39.0966 121.999 33.437 124.549C29.1924 126.25 28.0604 131.351 30.0413 135.035C32.3051 139.003 37.1157 140.704 41.3604 141.554C45.3221 142.121 53.2456 140.137 55.7924 139.287C56.6413 141.27 57.4903 143.254 58.0563 145.522C58.6222 146.939 58.9052 148.356 59.4712 149.773C59.7541 151.19 60.3201 152.607 60.6031 154.024C61.169 156.574 62.0179 159.409 62.5839 161.959C62.8668 163.66 63.4329 165.644 63.7158 167.344C62.8669 165.36 60.8861 161.676 60.8861 161.109C58.0563 156.291 49.2839 148.922 43.3413 150.623C39.0966 151.757 37.1157 156.574 38.5306 160.542C39.9455 164.793 44.7562 167.344 48.7179 168.478C52.9626 169.895 62.8668 168.478 63.9988 168.478C64.5647 171.312 65.1307 174.146 65.6966 176.98C66.5456 182.365 67.3946 187.466 67.9605 191.717H71.9222C71.3563 187.183 70.2243 182.081 69.0924 176.413C68.5265 173.579 67.9605 170.461 67.1115 167.061C67.9605 166.777 71.9222 165.077 75.6009 163.093C78.7137 166.494 86.9201 170.745 88.052 171.028C86.9201 173.862 85.7882 176.413 84.6563 178.964C82.6754 183.782 80.6946 188.033 78.9967 191.717H83.5244C84.9393 188.316 86.6371 184.632 88.335 180.381C89.4669 177.547 90.5989 174.713 91.7308 171.595C92.8627 171.879 102.484 173.862 107.012 172.729C110.973 171.879 116.067 169.611 117.765 165.36C119.463 161.392 118.048 156.574 113.803 155.157C107.861 153.174 98.8052 159.975 95.4095 164.51C95.1265 164.793 93.4286 167.911 92.2967 169.895C92.8626 168.761 93.1456 167.344 93.7116 166.21C94.5605 163.66 95.4094 161.109 96.5414 158.275C96.8243 156.858 97.3904 155.441 97.6733 154.024C98.2393 152.607 98.5223 151.19 98.8052 149.773C99.6542 146.372 100.22 142.971 100.786 139.287C103.05 140.137 110.973 142.971 115.218 142.687C119.463 142.404 124.556 140.987 127.103 137.303C129.367 133.618 128.518 128.517 124.556 126.533C118.897 123.699 108.992 129.084 105.031 132.768C104.748 133.052 102.201 136.169 100.786 137.87C101.069 135.886 101.352 133.618 101.635 131.635C102.484 125.4 103.05 119.165 103.616 112.93C103.899 110.946 103.899 108.962 104.182 107.261C105.031 107.545 114.369 111.229 119.18 110.662C123.424 110.379 128.518 108.962 131.065 105.278C133.329 101.593 132.48 96.492 128.518 94.5081C122.858 91.674 112.954 97.0588 108.993 100.743C108.71 101.027 105.031 105.561 104.182 106.695C104.748 102.444 105.031 98.1924 105.88 94.2247C106.729 88.5565 107.861 82.8884 109.558 77.787C109.841 77.787 119.746 81.7547 124.556 81.4713C128.801 81.1879 133.895 79.7709 136.441 76.0866C138.705 72.4023 137.856 67.3009 133.895 65.3171C128.235 62.483 118.331 67.8678 114.369 71.5521C114.086 71.8355 110.124 76.6534 109.558 77.787C109.558 77.5036 109.841 77.2202 109.841 76.9368C111.539 71.2687 113.803 66.1673 116.35 61.3494C117.765 58.5153 119.18 55.9646 120.878 53.4139C122.575 54.2642 130.782 58.2319 135.027 58.5153C139.271 58.7987 144.648 57.6651 147.195 54.2642C150.024 50.8633 149.742 45.7619 145.78 43.2113C140.686 39.8104 130.216 43.7781 125.688 47.4624C125.405 47.7458 123.141 49.7296 121.727 51.4301C122.293 50.2965 123.141 49.1628 123.707 48.0292C126.254 44.0615 129.084 40.6606 131.348 37.5431C132.763 35.8426 133.895 34.4256 135.027 33.0086C137.29 33.0086 146.063 32.7252 150.024 31.0247C153.703 29.3243 158.231 25.9234 159.08 21.6722C159.929 17.4211 157.382 13.17 152.854 12.6032C146.629 12.0364 139.271 20.5386 137.007 25.6399C136.724 26.2068 134.461 33.292 134.744 33.292C133.612 34.709 132.197 36.126 131.065 37.5431C128.518 40.6606 125.971 44.0615 123.141 47.7458C120.312 51.7135 117.482 55.9646 114.935 60.7825C112.388 65.6005 109.841 70.7018 107.861 76.37C107.861 76.37 107.861 76.37 107.861 76.6534C107.861 74.953 107.861 69.5682 107.861 69.2848C107.012 63.6166 102.484 53.4139 96.2585 52.2803C91.7308 51.4301 88.0521 54.831 87.7691 59.3655C87.4861 63.9 90.5988 68.1512 93.7116 70.9853C97.1073 74.1027 107.012 77.2202 107.578 77.5036C105.88 82.8884 104.465 88.5565 103.333 94.5081C102.767 97.909 102.201 101.31 101.918 104.711C101.918 103.01 101.918 101.593 101.918 101.593C101.069 95.9251 96.5414 85.7225 90.3159 84.5888C85.7882 83.7386 82.1095 87.1395 81.8265 91.674C81.5435 96.2086 84.6563 100.46 87.7691 103.294C90.8818 106.128 99.0882 108.962 101.352 109.529C101.069 110.946 101.069 112.079 100.786 113.496C99.9371 119.731 99.3712 125.966 98.5222 132.201C98.2393 134.469 97.9563 136.452 97.3904 138.72C97.3904 137.303 97.3904 136.169 97.3904 135.886C96.5414 130.218 92.0137 120.015 85.7882 118.881C81.2605 118.031 77.5818 121.432 77.2988 125.966C77.0158 130.501 80.1286 134.752 83.2414 137.586C86.3542 140.137 93.7116 142.971 96.5414 143.821C95.9754 146.088 95.6924 148.072 95.1265 150.34C94.8435 151.757 94.5605 153.174 93.9946 154.591C93.4286 156.008 93.1456 157.425 92.5797 158.558C91.7307 161.109 90.5988 163.943 89.7499 166.21C89.1839 167.911 88.335 169.611 87.7691 171.312C88.0521 169.044 88.618 165.077 88.618 164.51C88.618 160.826 87.4861 154.874 84.6563 150.623C84.6563 150.056 84.6563 149.489 84.6563 148.922C84.0903 144.671 79.8456 141.554 75.6009 142.687C69.6584 144.388 65.6966 154.874 65.4137 160.542C65.4137 160.826 65.6966 164.51 65.6966 166.777C65.4137 165.36 65.1307 164.226 64.8477 162.809C64.2818 160.259 63.4328 157.425 62.8669 154.591C62.5839 153.174 62.0179 151.757 61.735 150.34C61.452 148.922 60.886 147.505 60.3201 146.088C59.1881 142.687 57.7733 139.57 56.3584 136.453C58.6222 135.886 66.8286 133.902 70.2243 131.351C73.6201 128.8 77.0158 124.549 77.0158 120.298C77.0158 116.047 73.6201 112.363 69.0924 112.646C62.8669 113.213 57.4903 123.132 56.3584 128.8C56.3584 129.084 55.7924 133.052 55.7924 135.319C54.9434 133.335 54.0945 131.351 52.9626 129.367C50.1328 123.699 47.303 118.314 44.1902 112.646C43.3413 110.946 42.4924 109.245 41.6434 107.545C42.4924 107.261 52.3966 104.994 56.0754 102.16C59.4711 99.6095 62.8669 95.3583 62.8669 91.1072C62.8669 86.8561 59.4711 83.1718 54.9435 83.4552C48.7179 84.022 43.3413 93.9413 42.2094 99.6095C42.2094 99.8929 41.6434 105.844 41.6434 107.261C39.6626 103.577 37.6817 99.6095 35.9838 95.9251C33.72 90.8238 31.4562 85.4391 29.7583 80.0543C30.0413 80.0543 40.5115 77.5036 44.1902 74.6695C47.586 72.1189 50.9818 67.8677 50.9818 63.6166C50.9818 59.3655 47.586 55.6812 43.0583 55.9646C36.8328 56.5314 31.4562 66.4507 30.3243 72.1189C30.3243 72.6857 29.7583 78.6373 29.7583 79.7709C29.7583 79.4875 29.4754 79.2041 29.4754 78.9207C27.7775 73.2525 26.9285 67.5843 26.3626 62.1996C26.0796 59.0821 25.7966 56.248 25.7966 53.1305C27.7774 52.8471 36.8328 51.7135 40.5115 49.4462C44.1903 47.179 47.8689 43.4947 48.4349 39.2435C49.0009 34.9924 45.8881 30.7413 41.3604 30.7413C35.1349 30.7413 28.6264 40.0938 26.9286 45.1951C26.9286 45.4785 26.0796 48.596 25.7966 50.8633C25.7966 49.4462 25.7966 48.3126 25.7966 46.8956C25.7966 42.0776 26.0796 37.8265 26.3626 34.1422C26.6455 31.8749 26.6456 29.8911 26.9286 28.1906C28.6264 27.057 35.9839 21.9556 38.2477 18.2713C40.5116 14.587 42.2094 9.48569 40.5115 5.51798C38.8136 1.55027 34.286 -0.716997 30.3243 1.26686C24.6647 4.10094 23.2498 15.4373 24.0988 20.822C24.0988 21.3888 26.3626 28.474 26.3626 28.474C26.0796 30.1745 25.7966 32.1583 25.7966 34.1422C25.5136 38.1099 24.9477 42.361 24.9477 47.179C24.9477 51.9969 24.9477 57.0983 25.2307 62.483C25.7966 67.8678 26.3626 73.5359 28.0605 79.4875C28.0605 79.4875 28.0605 79.4875 28.0605 79.7709C27.2115 78.3539 24.0987 74.1027 23.8158 73.8193C20.137 69.5682 10.5157 63.6166 4.85613 66.1673C0.611445 67.8678 -0.520419 72.9691 1.46043 76.6534C5.13916 77.5036 10.2328 79.2041 14.1945 80.0543Z" fill="#1A7F72"/>
<path d="M121.161 50.5792C121.161 50.5792 123.141 43.2106 123.141 42.9272C123.99 37.259 122.01 26.2061 116.633 23.6554C112.671 21.6716 108.144 23.9388 106.446 28.19C105.031 32.4411 106.729 37.5424 108.993 40.9433C112.105 44.6276 121.161 50.5792 121.161 50.5792Z" fill="#1A7F72"/>
</svg>
